<svg xmlns="http://www.w3.org/2000/svg" fill="none" viewBox="0 0 400 400" id="Alarm-Ringing--Streamline-Seoul.svg" height="400" width="400"><desc>Alarm Ringing Streamline Illustration: https://streamlinehq.com</desc><path fill="#f1f9ff" d="M114.68 292.42c-18.98 -44.9 10 -100 64.56 -123.04 55.04 -23.2 119.18 -5.48 135.48 45.5a12 12 0 0 0 -1.3 -5.84c-11.86 -28.3 -32 -56.52 -60.36 -69.4C193.52 112.84 112.8 149.1 94 210.86c-11.2 36.92 7.18 70.16 30 98.44a57.052 57.052 0 0 0 12.66 12.26 74.8 74.8 0 0 1 -21.98 -29.14Z" stroke-width="1"></path><path fill="#f1f9ff" d="M235.08 347.42c-7.62 -6.36 -10.74 -5.52 -26.52 -16l-22 5.5c7.44 32.48 49.04 40.26 53.04 21.6a13.03 13.03 0 0 0 -4.52 -11.1Z" stroke-width="1"></path><path fill="#325a80" d="M185.52 337.18C192 365.52 224 375.82 236.14 366a11.6 11.6 0 0 0 4.62 -9.44 14.96 14.96 0 0 0 -5.24 -10.2c-9.06 -7.08 -11.04 -5.64 -26.38 -15.88 -1.1 -0.74 -2 1.02 -1.04 1.76 18.82 12.54 25.42 11.8 29.8 20.76 3.56 8 -4.68 18.24 -22.72 13.02a40.006 40.006 0 0 1 -27.68 -29.48c-0.28 -1.26 -2.24 -0.74 -2 0.56l0.02 0.08Z" stroke-width="1"></path><path fill="#f1f9ff" d="M344.24 232.24c-16 5.32 -27.86 18.34 -39.04 30.86l-1.38 10.56c6.346 -1.88 12.62 -3.92 18.82 -6.12 11.82 -4.28 23.84 -9.64 31.8 -19.38 7.96 -9.74 3.68 -20.56 -10.2 -15.92Z" stroke-width="1"></path><path fill="#325a80" d="M306 263.88a192.714 192.714 0 0 1 18.38 -18.66c6.4 -5.42 14 -10.58 22.32 -12.54 15.18 -3.58 17.12 15.24 -12.34 29.08a202.11 202.11 0 0 1 -30.74 10.9 1.06 1.06 0 0 0 0.52 2 214.036 214.036 0 0 0 29.54 -10.22c8.28 -3.72 16.6 -8.74 22.14 -16.12a15.526 15.526 0 0 0 3.56 -11.16 8.172 8.172 0 0 0 -7.84 -6.8c-4.26 -0.064 -8.468 0.94 -12.24 2.92a63.012 63.012 0 0 0 -12 7.12 155.288 155.288 0 0 0 -22.8 22.2c-1.1 1.14 0.8 2.62 1.5 1.28Z" stroke-width="1"></path><path fill="#ffffff" d="M179.24 169.38c54.64 -23.1 114.3 -5.46 133.26 39.38 18.96 44.84 -10 100 -64.58 123.04 -54.58 23.04 -114.3 5.48 -133.26 -39.38 -18.96 -44.86 9.96 -99.94 64.58 -123.04Z" stroke-width="1"></path><path fill="#325a80" d="M314.34 208.64c-11.9 -28.38 -32.14 -56.88 -60.86 -70C193.46 111.72 112 148 93.12 210.56c-12.24 40.38 11.74 75.74 30.16 99.34 12.38 16 40 33.02 75.72 33.02 44 0 89.12 -24.8 109.7 -64 15 -28.6 10.82 -60.04 5.64 -70.28Zm-219.3 2.5C113.58 150 193.6 114 252.66 140.54c22.88 10.4 39.64 30.2 51.72 52.1 -23 -30.64 -73.52 -46.18 -125.52 -24.18 -26.64 11.26 -48.1 30.38 -60.4 53.82 -12.14 23.12 -14.78 49.6 -3.38 73.54 -15.7 -22.3 -29.96 -51.98 -20.04 -84.68ZM306.92 278c-20.34 38.76 -64.84 62.96 -108 62.96 -69.12 0 -109.54 -59.08 -78.74 -117.74 20.64 -39.32 65.64 -63 108 -63 69.56 -0.02 109.34 59.46 78.74 117.78Z" stroke-width="1"></path><path fill="#f1f9ff" d="M326.38 140.64a8.614 8.614 0 0 0 -7.17 -7.68 8.62 8.62 0 0 0 -3.73 0.2 24.744 24.744 0 0 0 -8.84 4 95.348 95.348 0 0 0 -25.24 26l10.6 13.92c5.74 -6.78 14.32 -10.12 21.7 -14.96 7.38 -4.84 14.1 -12.76 12.68 -21.48Z" stroke-width="1"></path><path fill="#325a80" d="M282.28 163.7a87.62 87.62 0 0 1 23.04 -24.34 26.3 26.3 0 0 1 10.2 -5.2 8.18 8.18 0 0 1 8.84 3.5 12.828 12.828 0 0 1 0.26 10.2c-5.2 14.6 -23.6 16.98 -33.46 28.38 -0.84 1 0.58 2.44 1.46 1.44 9.84 -11.38 28.28 -13.76 34 -29.1a15.644 15.644 0 0 0 0.22 -10.58 9.274 9.274 0 0 0 -7.72 -6 17 17 0 0 0 -10.86 2.98 90.498 90.498 0 0 0 -27.7 27.6c-0.72 1.12 1.06 2 1.76 1.04l-0.04 0.08Z" stroke-width="1"></path><path fill="#a4deff" d="M202.56 221c39.68 -16.78 81.58 -7.42 93.56 20.92 11.98 28.34 -10.48 64.94 -50.16 81.72 -39.68 16.78 -81.58 7.4 -93.58 -20.94 -12 -28.34 10.48 -64.92 50.18 -81.7Z" stroke-width="1"></path><path fill="#325a80" d="M297.04 241.54c-6 -14 -19.1 -24 -37.1 -28s-38.38 -1.68 -57.78 6.52c-40.14 16.96 -62.88 54.2 -50.7 83.02 6 14 19.1 24 37.1 28 19.16 4.28 39.86 1.06 57.78 -6.52 40.14 -16.98 62.88 -54.22 50.7 -83.02Zm-51.48 81.18c-19 8 -39.08 10.3 -56.56 6.4 -17.48 -3.9 -30 -13.4 -35.7 -26.8 -11.74 -27.8 10.52 -63.86 49.64 -80.4 17.6 -7.44 37.86 -10.58 56.58 -6.4 17.34 3.88 30 13.4 35.68 26.8 11.76 27.78 -10.52 63.86 -49.64 80.4Z" stroke-width="1"></path><path fill="#a4deff" d="M240.54 131.24a73.746 73.746 0 0 0 -0.78 12.58 5.894 5.894 0 0 0 0.62 2.98 3.996 3.996 0 0 0 5.58 0.46 11.718 11.718 0 0 0 3.32 -5.26l4 -9.84 -12.74 -0.92Z" stroke-width="1"></path><path fill="#325a80" d="M239.62 130.98a76.2 76.2 0 0 0 -0.82 13.88 4.63 4.63 0 0 0 2.64 3.936 4.644 4.644 0 0 0 4.72 -0.436 11.744 11.744 0 0 0 4 -6.12l4 -9.86a1.016 1.016 0 0 0 -1.484 -1.158 1.06 1.06 0 0 0 -0.496 0.618l-3 7.36a24.026 24.026 0 0 1 -2.92 6.14 3.734 3.734 0 0 1 -4.48 1.4 2.622 2.622 0 0 1 -1.1 -2.36 78.004 78.004 0 0 1 0.76 -12.94 1.018 1.018 0 1 0 -1.774 -0.956 1.02 1.02 0 0 0 -0.046 0.496Z" stroke-width="1"></path><path fill="#a4deff" d="M276.36 126.36c-3.86 11.02 -18.7 15.82 -33.1 10.74 -14.4 -5.08 -22.96 -18.14 -19.08 -29.1 3.88 -10.96 20.42 -19.66 34.9 -14.58 14.48 5.08 21.14 21.9 17.28 32.94Z" stroke-width="1"></path><path fill="#325a80" d="M259.42 92.46c-15.18 -5.32 -32.22 4 -36.18 15.18 -3.96 11.18 4.76 25.14 19.7 30.36a32.1 32.1 0 0 0 24.22 -0.58 18.98 18.98 0 0 0 10.14 -10.8c4.02 -11.46 -2.94 -28.92 -17.88 -34.16Zm16 33.56a17.064 17.064 0 0 1 -9.1 9.66 30 30 0 0 1 -22.7 0.48c-13.88 -4.9 -22.16 -17.4 -18.48 -27.84 2.94 -8.3 13.62 -15.42 25 -15.42 18.98 0 29.86 19.82 25.26 33.1l0.02 0.02Z" stroke-width="1"></path><path fill="#325a80" d="M265.74 104.66a24.44 24.44 0 0 1 4.348 10.526 24.444 24.444 0 0 1 -0.888 11.354c-0.4 1.26 1.56 1.8 2 0.54a26.3 26.3 0 0 0 -3.66 -23.46c-0.76 -1.04 -2.54 0 -1.76 1.04h-0.04Z" stroke-width="1"></path><path fill="#f1f9ff" d="m211.04 114 -5.42 1.1c8 12.88 5.54 26.14 4.68 34.7a4.22 4.22 0 0 0 5 -3.14c2.02 -5.14 6.24 -17.06 -4.26 -32.66Z" stroke-width="1"></path><path fill="#325a80" d="M210.14 114.46a32.748 32.748 0 0 1 4.16 31.86 3.46 3.46 0 0 1 -4 2.38l1.02 1.02c0.738 -5.3 1.052 -10.65 0.94 -16a40.256 40.256 0 0 0 -5.74 -19.02c-0.68 -1.1 -2.46 0 -1.78 1.04a38.202 38.202 0 0 1 5.52 18.78 108.734 108.734 0 0 1 -0.98 15.3c0 2 6 1.44 7.14 -3.06 4.7 -11.68 2.48 -23.02 -4.46 -33.2 -0.74 -1.1 -2.5 0 -1.76 1.02l-0.06 -0.12Z" stroke-width="1"></path><path fill="#f1f9ff" d="M224.8 117.46c-8.44 0.64 -20.42 2 -28.78 2.56a4.836 4.836 0 0 1 -3.84 -0.74 3.44 3.44 0 0 1 0.48 -4.8 10.14 10.14 0 0 1 4.96 -2c8.36 -1.7 18.26 -4.32 26.54 -6a2.7 2.7 0 0 1 2.58 0.28 7.868 7.868 0 0 1 2.42 8 4.678 4.678 0 0 1 -4.36 2.7Z" stroke-width="1"></path><path fill="#325a80" d="M227.06 105.88a4.522 4.522 0 0 0 -3.6 -0.2c-1.7 0.34 -22.42 5.14 -25.74 5.84 -2.72 0.56 -5.88 1.3 -7.06 4.2a4 4 0 0 0 2 5.1c2 0.86 3.76 0.18 31.76 -2.28a5.5 5.5 0 0 0 6 -4.66 8.554 8.554 0 0 0 -3.36 -8Zm1.1 8.62a3.504 3.504 0 0 1 -3.36 2c-10.64 0.84 -28.14 2.7 -30.64 2.6a1.82 1.82 0 0 1 -1.78 -1.84 3.82 3.82 0 0 1 3 -3.1 79.192 79.192 0 0 1 7.76 -1.76c5.54 -1.26 19.74 -4.56 21.28 -4.86 1.54 -0.3 2.58 0.64 3.18 2 0.836 1.514 1.036 3.298 0.56 4.96Z" stroke-width="1"></path><path fill="#f1f9ff" d="m149.8 130.44 -4.98 2.34c1.2 18.82 11.78 25.72 16.46 28.58a4.24 4.24 0 0 0 6 -0.58c-5.98 -6.3 -15.98 -15.36 -17.48 -30.34Z" stroke-width="1"></path><path fill="#325a80" d="M150 152.36a30.34 30.34 0 0 0 12.8 10.68 5.18 5.18 0 0 0 5.1 -1.58 1.04 1.04 0 0 0 0 -1.46 106.15 106.15 0 0 1 -10 -11.52 38.56 38.56 0 0 1 -6.92 -18c-0.14 -1.32 -2.18 -1.32 -2 0A40.38 40.38 0 0 0 156 149.24a107.828 107.828 0 0 0 10.56 12.24V160a3.44 3.44 0 0 1 -4.64 0.42 38.83 38.83 0 0 1 -5.74 -4c-6.64 -6 -9.76 -14.36 -10.3 -23.54a1.02 1.02 0 0 0 -2 0A40.2 40.2 0 0 0 150 152.36Z" stroke-width="1"></path><path fill="#f1f9ff" d="M159.82 122a10.16 10.16 0 0 0 -5.14 1.44c-7.74 3.72 -17.64 8 -25.34 11.68L136 144c7.12 -4.58 17.34 -10.86 24.5 -15.44a5.118 5.118 0 0 0 2.62 -2.94c0.3 -1.84 -1.5 -3.44 -3.3 -3.62Z" stroke-width="1"></path><path fill="#325a80" d="M136.52 144.82c8.16 -5.22 16.32 -10.2 24.5 -15.44 1.62 -1.1 3.44 -2.58 3.08 -4.8a4.7 4.7 0 0 0 -4 -3.58 13.32 13.32 0 0 0 -6.94 2c-7.74 3.74 -16 7.1 -23.58 10.86 -1.18 0.58 -0.14 2.32 1.04 1.76 8.16 -4 16.7 -7.54 24.94 -11.5 1.8 -0.88 5.24 -2.32 6.52 0.16 1.02 2 -2.34 3.5 -3.62 4.32 -3.56 2.28 -18.74 11.8 -22.72 14.36 -1.1 0.72 0 2.48 1.02 1.76l-0.24 0.1Z" stroke-width="1"></path><path fill="#325a80" d="M146 123.66a99.24 99.24 0 0 1 61.68 -14.56c1.3 0.12 1.3 -2 0 -2A101.48 101.48 0 0 0 145.04 122a1.02 1.02 0 0 0 1.02 1.76l-0.06 -0.1Z" stroke-width="1"></path><path fill="#325a80" d="M197.76 116a1.02 1.02 0 1 0 0 -2 88.18 88.18 0 0 0 -46 12.5 1.02 1.02 0 0 0 1.02 1.76A87.018 87.018 0 0 1 197.76 116Z" stroke-width="1"></path><path fill="#325a80" d="M172.4 126a75.366 75.366 0 0 1 28 -5.4 1.02 1.02 0 0 0 0 -2A76.12 76.12 0 0 0 171.8 124c-1.2 0.5 -0.66 2.48 0.56 2h0.04Z" stroke-width="1"></path><path fill="#325a80" d="M217.52 150.72a1.026 1.026 0 0 0 1.122 -0.564 1 1 0 0 0 0 -0.872 1.016 1.016 0 0 0 -1.122 -0.564 109.36 109.36 0 0 0 -59.18 16.28c-1.1 0.7 0 2.48 1.04 1.78 0.4 0.6 22.28 -16.58 58.14 -16.06Z" stroke-width="1"></path><path fill="#325a80" d="M163.08 156.6A93.242 93.242 0 0 1 210 145.34a1.02 1.02 0 0 0 0 -2.04 95.74 95.74 0 0 0 -48 11.62c-1.14 0.64 -0.12 2.42 1.04 1.78l0.04 -0.1Z" stroke-width="1"></path><path fill="#325a80" d="M156.82 138.2a89.48 89.48 0 0 1 34.84 -10.6 1.02 1.02 0 0 0 0 -2 92 92 0 0 0 -35.88 11c-1.14 0.62 -0.12 2.38 1.04 1.76v-0.16Z" stroke-width="1"></path><path fill="#325a80" d="M264.4 130.44c4.58 3.18 10.2 6.6 16 3.86 4.58 -2.2 5.5 -8.7 1.26 -11.4a1.02 1.02 0 1 0 -1.04 1.76c3.2 2.24 1.68 7.18 -2.14 8.18 -4.78 1.5 -9.24 -1.6 -12.96 -4.18 -1.1 -0.76 -2 1.02 -1.04 1.76l-0.08 0.02Z" stroke-width="1"></path><path fill="#325a80" d="M273.5 141.02a10.584 10.584 0 0 0 14.76 -6.8 1.062 1.062 0 0 0 -2 -0.54 8.55 8.55 0 0 1 -4.59 5.51 8.534 8.534 0 0 1 -7.17 0.07c-1.16 -0.62 -2.18 1.14 -1.02 1.76h0.02Z" stroke-width="1"></path><path fill="#f1f9ff" d="M215.26 184.96c-6.62 5.24 -17.38 7.64 -25.88 7.48 1.48 5.26 3.02 10.74 6.6 14.9 3.58 4.16 9.74 6.62 14.64 4.22a12.552 12.552 0 0 0 6.14 -8.16 34.01 34.01 0 0 0 -1.5 -18.44Z" stroke-width="1"></path><path fill="#325a80" d="M216.16 184.36c-0.22 -0.54 -0.78 -0.76 -1.68 -0.12 -6.84 5.4 -16.52 7.3 -25.1 7.18a1.022 1.022 0 0 0 -0.98 1.28c2.36 8.5 6 18.92 16 20.62a11.07 11.07 0 0 0 10.9 -4.32 17.8 17.8 0 0 0 3.22 -10.22 33.196 33.196 0 0 0 -2.36 -14.42Zm-1.34 21.64a9.466 9.466 0 0 1 -9.3 5.56 13.68 13.68 0 0 1 -9.66 -6 38.716 38.716 0 0 1 -5.14 -12 42.56 42.56 0 0 0 24.16 -6.98 29.74 29.74 0 0 1 1.6 10.34 19.064 19.064 0 0 1 -1.66 9.08Z" stroke-width="1"></path><path fill="#f1f9ff" d="M75.56 228.78c-6.3 -0.74 -13 -0.82 -18.5 2.26 -5.5 3.08 -9.08 10.38 -6.12 16 2.96 5.62 10.46 6.96 16.88 6.96 11.084 0.2 22.156 -0.86 33 -3.16l3.02 -14.84a110.54 110.54 0 0 0 -28.28 -7.22Z" stroke-width="1"></path><path fill="#325a80" d="M104.1 234.94A112.664 112.664 0 0 0 77.46 228c-7.64 -1 -16.66 -1.54 -23.04 3.62 -5 4 -7.68 11.76 -3.52 17.36s12 6.12 18.36 6.12a148.798 148.798 0 0 0 31.8 -3.28c1.3 -0.28 0.74 -2.24 -0.54 -2a148.442 148.442 0 0 1 -26 3.14c-6.34 0.18 -14.2 0.76 -19.68 -3.04s-4.4 -11.68 0.16 -16c5.48 -5.26 14.1 -4.86 21.08 -4a110.05 110.05 0 0 1 27.56 7.02c1.2 0.5 1.74 -1.48 0.52 -2h-0.06Z" stroke-width="1"></path><path fill="#ffffff" d="M250.48 299.28a130.146 130.146 0 0 1 -13.52 -16.44c-0.48 -2.2 -4.66 -26.34 -7.86 -48.7a3.114 3.114 0 0 0 -3.78 -2 3.172 3.172 0 0 0 -2 3.78c2.28 15.84 4.826 31.64 7.64 47.4a2.98 2.98 0 0 0 0.3 2 131.652 131.652 0 0 0 14.92 18.38 3.084 3.084 0 0 0 4.34 0 3.144 3.144 0 0 0 -0.04 -4.42Z" stroke-width="1"></path><path fill="#ffffff" d="m186 275.34 58.12 14.3c3.84 0.94 5.48 -4.96 1.64 -5.9l-58.14 -14.3c-3.8 -0.94 -5.44 4.96 -1.62 6v-0.1Z" stroke-width="1"></path><path fill="#f1f9ff" d="M169.1 192.76a12.24 12.24 0 1 1 0 24.48 12.24 12.24 0 0 1 0 -24.48Z" stroke-width="1"></path><path fill="#f1f9ff" d="M237.66 195.62a12.22 12.22 0 1 0 0 -24.44 12.22 12.22 0 0 0 0 24.44Z" stroke-width="1"></path><path fill="#325a80" d="M175.5 186.8a6.3 6.3 0 1 0 0 12.596 6.3 6.3 0 0 0 0 -12.596Z" stroke-width="1"></path><path fill="#325a80" d="M225.44 171.38a6.28 6.28 0 1 0 6.3 6.28 6.306 6.306 0 0 0 -6.3 -6.28Z" stroke-width="1"></path><path fill="#a4deff" d="M136 172.6a113.864 113.864 0 0 0 -7.76 -12.78L116 174.26c5 4.38 8.6 9.34 15.5 8.82a6.64 6.64 0 0 0 6 -6A10.2 10.2 0 0 0 136 172.6Z" stroke-width="1"></path><path fill="#325a80" d="M115.22 174.96c4.7 4 9.84 10.46 16.92 9A7.86 7.86 0 0 0 138 178.94c1.06 -3.1 -0.86 -6.12 -2.3 -8.8a113.098 113.098 0 0 0 -6.68 -10.82c-0.72 -1.08 -2.5 0 -1.74 1.02a120.716 120.716 0 0 1 6.18 10c1.62 2.92 4.26 6.72 1.44 9.74 -2.82 3.02 -6.56 2.26 -9.6 0.62a48.66 48.66 0 0 1 -8.72 -7.22c-0.98 -0.86 -2.44 0.58 -1.46 1.42l0.1 0.06Z" stroke-width="1"></path><path fill="#a4deff" d="M132.5 138.44c7.44 9.02 4 24.18 -7.82 34s-27.32 10.2 -34.7 1.28C82.6 164.8 83.62 146 95.38 136.22c11.76 -9.78 29.68 -6.78 37.12 2.22Z" stroke-width="1"></path><path fill="#325a80" d="M133.28 137.8c-7.86 -9.5 -26.42 -12.36 -38.54 -2.34 -12.12 10.02 -13.14 29.6 -5.52 38.82 8.34 10 24.88 8.12 36 -1.16 12.26 -10.06 15.84 -25.9 8.06 -35.32ZM105.64 179a17.86 17.86 0 0 1 -14.88 -6c-7 -8.46 -6 -26.74 5.24 -36 11.24 -9.26 28.52 -6.68 35.72 2 11.48 13.96 -5.14 39.26 -26.08 40Z" stroke-width="1"></path><path fill="#325a80" d="M108.5 136.34a24.402 24.402 0 0 1 20.54 8.38c0.86 1 2.32 -0.44 1.46 -1.42a26.3 26.3 0 0 0 -22 -8.92c-1.32 0.12 -1.32 2.16 0 2v-0.04Z" stroke-width="1"></path><path fill="#325a80" d="M76.6 164c-2.18 2.36 -4.5 5.08 -4 8.52 0.5 3.44 3.72 4.7 6.9 4a42.002 42.002 0 0 0 18.92 -11c0.94 -0.92 -0.52 -2.36 -1.44 -1.46A41.222 41.222 0 0 1 82 173.64c-2.22 0.8 -6.12 2.3 -7.18 -0.9 -0.92 -2.88 1.42 -5.36 3.2 -7.28 0.9 -0.96 -0.52 -2.42 -1.42 -1.46Z" stroke-width="1"></path><path fill="#325a80" d="M71.6 183.86c10.36 5.12 19 -5.58 27.46 -9.6 1.2 -0.56 0.14 -2.32 -1.04 -1.76 -4.26 2 -7.82 5.2 -11.84 7.64 -4.02 2.44 -9.12 4 -13.54 2 -1.18 -0.58 -2.22 1.18 -1.04 1.76v-0.04Z" stroke-width="1"></path><path fill="#325a80" d="M154.74 93.38a19.66 19.66 0 0 0 -2.2 1.86 28.656 28.656 0 0 1 -9.74 4.58c-3.54 0.9 -9.04 1.82 -11.62 -1.56a9.42 9.42 0 0 1 -1.4 -6.12c0 -0.84 1.2 -23.82 1.2 -24a1.04 1.04 0 0 0 -0.88 -1.16 1.06 1.06 0 0 0 -1.16 0.9C126.32 77.62 118.12 92.56 108 92.36c-5.7 0 -10.64 -4 -13.78 -8.64a98.24 98.24 0 0 1 -7.64 -15.88l-9.32 -20.88a1.04 1.04 0 0 0 -2 0.5c0.98 32 1.36 34.26 0 39.68a12.8 12.8 0 0 1 -11.66 10.34c-13.44 1.3 -28 -3.06 -39.22 -10.24 -0.82 -0.52 -2 0.56 -1.38 1.4 0 0 23.88 32.2 28.36 38.74a15.58 15.58 0 0 1 3.56 9.46 13.36 13.36 0 0 1 -4 8.16c-10.2 10 -26.64 16.38 -40 18a1.02 1.02 0 0 0 0 2 72.36 72.36 0 0 1 37.88 12.8 15.6 15.6 0 0 1 4.84 4c1.24 2 -0.28 3.84 -1.84 5.16l-14 10.58a1.02 1.02 0 0 0 0.8 1.86l22 -4.88a18.162 18.162 0 0 1 6.12 -0.88c5.32 0.74 0.78 8 -0.48 10.36l-6.92 13.4c-0.6 1.16 1.18 2.18 1.76 1.02 -0.2 0 6.46 -12.26 9 -17.54 0.73 -1.46 1.126 -3.068 1.16 -4.7 -0.2 -3.4 -3.2 -4.92 -6.26 -4.6 -2.18 0.24 -0.68 0 -22.4 4.82a1891.61 1891.61 0 0 0 9.84 -7.46A8.22 8.22 0 0 0 56 184.04a6.18 6.18 0 0 0 -2.4 -5.26A71.7 71.7 0 0 0 18.72 163.8a74.738 74.738 0 0 0 32 -15.56c5.34 -4.58 8 -11.02 5.12 -17.32 -2.54 -5.3 -2.7 -4.92 -28.16 -39.46A66.94 66.94 0 0 0 62 99.66c6.12 -0.44 11.48 -2.98 14 -8.72 3 -6.68 2.16 -13.14 1.4 -38.3L84.18 68c5.3 12 9.7 24.8 22.76 26.4 9.76 1.2 17.74 -10 21.68 -18.94 -0.92 18.2 -1.02 17.5 -0.74 20.18A8 8 0 0 0 134 102.46a24 24 0 0 0 15.16 -2.8c-0.3 0.56 -0.58 1.12 -0.82 1.7 -0.52 1.22 1.24 2.26 1.76 1.04a17.14 17.14 0 0 1 4.38 -6.14l1.52 -1.26c0.82 -0.76 -0.32 -2.28 -1.26 -1.62Z" stroke-width="1"></path><path fill="#325a80" d="M375.78 109.58A116.208 116.208 0 0 1 346 102.56a10.452 10.452 0 0 1 -6.4 -5.48 12.34 12.34 0 0 1 1.02 -8.76c5.1 -10 16.84 -26.46 31.26 -40.48a1.06 1.06 0 0 0 -1.26 -1.62A367.06 367.06 0 0 1 316 70.94c-3.196 1.182 -6.598 1.7 -10 1.52a9.866 9.866 0 0 1 -7.74 -4.86 21.62 21.62 0 0 1 -2.32 -8.94c-0.22 -4.28 -1 -27.2 -1 -27.2a1.036 1.036 0 0 0 -0.88 -1.16 1.066 1.066 0 0 0 -1.16 0.9 66.564 66.564 0 0 1 -20 28c-4.34 3.42 -10.2 6.3 -15.7 4.36 -4.88 -1.68 -7.8 -6.5 -9.76 -10.98a95.56 95.56 0 0 1 -6.14 -20 1.042 1.042 0 0 0 -2 0l-8.44 29.28c-2 6.7 -4 16.82 -13.16 16.32a10 10 0 0 1 -8.56 -5.66c-0.48 -1.06 -2.2 -0.3 -1.88 0.8a83.81 83.81 0 0 1 3.02 15.16c0.12 1.3 2.16 1.32 2 0a84.696 84.696 0 0 0 -1.86 -11.12 12.24 12.24 0 0 0 14.5 0.78 19.834 19.834 0 0 0 6.32 -10.64c0.68 -2.16 8.4 -28.3 9.04 -30.46a103.468 103.468 0 0 0 4.96 15.56c2 4.76 4.88 9.72 9.66 12.12 14.48 7.32 31.28 -14.18 38 -28.62 0.2 7.06 0.38 14.12 0.76 21.16 0.34 6.12 1.72 13.32 8 16 6.28 2.68 14.12 -0.26 20.4 -2.56a343.414 343.414 0 0 0 43.48 -19.44 189.534 189.534 0 0 0 -21.78 27.58c-3.24 5.02 -7.7 11.2 -6.42 17.56 1.28 6.36 8.86 8.48 14.28 10.22 2.96 0.92 6 1.74 8.96 2.44 -10.46 0 -21.14 1.34 -30.36 6 -3.26 1.76 -6.52 5.22 -4.68 9.14 1.84 3.92 6.82 4.66 10.48 4.96a1.024 1.024 0 0 0 0.818 -1 1.014 1.014 0 0 0 -0.818 -1c-2.78 -0.22 -7.02 -0.84 -8.52 -3.56 -2.2 -4 3.44 -6.72 6.24 -8 15.88 -6 27.6 -4.54 42 -4.16 1.36 0.2 1.32 -1.74 0.04 -1.86Z" stroke-width="1"></path><path fill="#325a80" d="m64.46 284.52 -21.34 7.36c-1.24 0.42 -0.72 2.38 0.54 2l21.32 -7.34c1.24 -0.44 0.72 -2.42 -0.52 -2v-0.02Z" stroke-width="1"></path><path fill="#325a80" d="M92.82 339.38c-0.96 0.92 0.5 2.36 1.42 1.44a90.156 90.156 0 0 0 8.18 -9.08 1.02 1.02 0 0 0 -0.73 -1.74 1.04 1.04 0 0 0 -0.73 0.3 81.88 81.88 0 0 1 -8.14 9.08Z" stroke-width="1"></path><path fill="#325a80" d="m355.72 188.38 22.8 -4.38c1.3 -0.26 0.74 -2.24 -0.54 -2l-22.8 4.36c-1.28 0.26 -0.74 2.22 0.54 2v0.02Z" stroke-width="1"></path><path fill="#325a80" d="M363.04 224.48c2.836 1.082 5.844 1.638 8.88 1.64a1.026 1.026 0 0 0 0.848 -0.21 1.012 1.012 0 0 0 0.274 -0.354 1 1 0 0 0 0 -0.872 1.012 1.012 0 0 0 -1.122 -0.564 23.386 23.386 0 0 1 -8.36 -1.56 1 1 0 0 0 -1.24 0.7 1.04 1.04 0 0 0 0.72 1.22Z" stroke-width="1"></path><path fill="#325a80" d="M42.26 274.24a26.582 26.582 0 0 0 -22.14 0.18 7.54 7.54 0 0 0 -4 3.22 3.6 3.6 0 0 0 1.38 4 8.264 8.264 0 0 0 5.84 0.86 51.55 51.55 0 0 0 19.8 -6.5 1.026 1.026 0 0 0 0.232 -1.216 1.02 1.02 0 0 0 -1.112 -0.544Zm-22.74 6.34c-1.06 -0.3 -2.26 -1.36 -1.48 -2.48a6.792 6.792 0 0 1 2.56 -1.68 23.884 23.884 0 0 1 19.16 -0.82c-8.5 4.26 -17.6 5.44 -20.24 4.98Z" stroke-width="1"></path><path fill="#325a80" d="M122.68 347.34a26.824 26.824 0 0 0 -8.16 11.12c-1.16 2.92 -3.3 9.26 0.66 11.1a1.04 1.04 0 0 0 1.4 -0.36 89.916 89.916 0 0 0 7.76 -20c0.36 -1.36 -0.64 -2.72 -1.66 -1.86Zm-7.36 19.74c-1.18 -1.9 0.58 -6.98 1.5 -9a25.042 25.042 0 0 1 4.86 -7.16 88.976 88.976 0 0 1 -6.36 16.16Z" stroke-width="1"></path><path fill="#325a80" d="M323.74 300a59.546 59.546 0 0 1 26 17.88c0.86 1 2.3 -0.44 1.46 -1.44a61.548 61.548 0 0 0 -26.9 -18.44c-1.24 -0.42 -1.8 1.54 -0.56 2Z" stroke-width="1"></path><path fill="#325a80" d="M390 311a8.528 8.528 0 0 0 -2.64 -4 32.746 32.746 0 0 0 -13.48 -8.84c-0.78 -0.26 -3.04 2.14 -1.52 2.84 2.78 1.28 4 4.26 5.36 6.86a12.582 12.582 0 0 0 5.86 6.54c2.9 1.22 6.74 -0.18 6.42 -3.4Zm-3.24 1.66a4.006 4.006 0 0 1 -3.34 -0.72c-4.78 -3.76 -3.6 -6.94 -7.38 -10.74a29.072 29.072 0 0 1 11.26 8.8c0.98 1.32 1 2.2 -0.56 2.66h0.02Z" stroke-width="1"></path><path fill="#325a80" d="m64 320.68 -0.24 0.34a44.004 44.004 0 0 0 -23.34 15.56 7.584 7.584 0 0 0 -2 6.78 5.16 5.16 0 0 0 4 3.24c5.1 0.84 8.18 -4 10.76 -7.54l12.56 -17.36c0.8 -1.06 -0.96 -2.04 -1.74 -1.02Zm-14 19.44c-2.18 3.6 -6.72 6.4 -9.48 3.14 -1.28 -2 0.68 -4.56 2 -6.14a43.224 43.224 0 0 1 19.4 -13.36L50 340.12Z" stroke-width="1"></path><path fill="#325a80" d="M308.22 326.5a92.828 92.828 0 0 1 12.24 20c0.54 1.2 2.28 0.16 1.76 -1.02a94.824 94.824 0 0 0 -12.6 -20.42c-0.88 -1.06 -2.3 0.62 -1.4 1.44Z" stroke-width="1"></path></svg>