<svg xmlns="http://www.w3.org/2000/svg" viewBox="0 0 600 600"><g fill="#d6d6e9"><path d="M221.97 188.37s-.07.02-.1.01v.07c.04.06.07.02.11-.08zM222.15 188.22h-.14c-.01.06-.02.11-.03.15.08-.03.15-.09.17-.14zM222.16 188.16c.01.02 0 .04 0 .07.03 0 .04-.03.01-.06zM221.91 188.1s0 .07-.01.1c.04 0 .08.01.11.02 0-.03.01-.06.02-.1h-.01c-.04 0-.07-.01-.1-.02z"></path><path d="M515.46 312.33c-.04-3.37-1.58-6.7-4.66-8-1.88-.8-3.78-1.52-5.69-2.16-3.16-2.8-6.62-5.31-10.25-7.47-3.8-2.25-7.9-4.33-12.2-6.16-3.3-1.97-6.73-3.73-10.23-5.24-1.61-.7-3.24-1.32-4.88-1.91-5.64-2.49-11.72-4.03-17.86-4.57-.73-.06-1.47-.1-2.21-.13 1.26-1.75 2.45-3.56 3.55-5.45 8.66-14.85 11.84-31.81 10.19-48.4.79-6.83.59-13.74-.63-20.35-3.12-16.85-12.18-31.96-22.7-45.2-10.05-12.64-22.29-24.9-36.9-32.16-15.1-7.51-32.1-9.07-47.91-2.69-3.43 1.39-6.72 3.04-9.89 4.89-6.96.69-13.81 2.42-20.36 5.44-12.02 5.55-21.62 16.15-26.99 28.15a78.392 78.392 0 00-4.07 11.41c-6.51-4.65-13.69-8.38-21.25-10.95-6.22-6.42-13.59-11.73-21.84-15.46-7.02-3.17-14.81-5.36-22.86-6.49-8.46-4.97-17.86-8.16-27.71-8.83-7.41-.51-14.59.93-21.02 3.94-3.99-.13-7.97.02-11.91.48-13.85 1.64-28.21 6.6-37.45 17.59-10.93 13.01-12.12 30.45-5.64 45.82 5.68 13.5 16.29 23.5 28.09 31.7.42.79.85 1.58 1.3 2.35-4.94 2.33-9.72 5.09-14.02 8.4-.23-.09-.45-.19-.68-.28-15.15-5.83-33.13-5.01-47.31 3.08-11.81 6.75-19.96 18.13-24.38 30.81a68.042 68.042 0 00-3.62 17.9c-5.15 15.52-.58 29.67 9.24 40.8 3.73 6.75 8.49 12.94 14.17 18.24 16.04 14.96 39.5 23.77 61.12 20 13.22 4.13 27.29 5.34 40.94 2.89 5.01-.9 9.87-2.4 14.5-4.41.37 3.12.98 6.18 1.83 9.18 1.59 21.07 9.63 42.36 26.12 55.18 27.47 21.34 63.26.64 77.41-26.39.37-.7.71-1.4 1.06-2.11 7.09-3.87 12.74-9.33 16.93-15.72 1.87.73 3.77 1.37 5.68 1.93 4.28 3.03 9.01 5.4 14.29 6.75 6.97 1.78 14.43 1.6 21.09-.62 9.9 10.24 19.9 20.38 29.93 30.49 3.5 3.68 7.08 7.29 10.74 10.81.69.66 1.41 1.18 2.15 1.59 1.42 1.64 2.84 3.28 4.28 4.89 7.29 8.17 20.21-2.31 14.92-11.51a359.273 359.273 0 00-26.01-39.08c.33-1.91.13-3.97-.81-5.98-.88-1.9-1.79-3.78-2.72-5.66.54-1.61.56-3.46-.18-5.46-.24-.64-.49-1.28-.73-1.91a62.1 62.1 0 008.05-.65c5.37-.81 10.76-2.56 15.57-5.24 10.03 7.81 21.81 13.55 33.21 16.62 13 3.5 28.79 4.2 40.51-3.53 5.68-3.75 9.74-8.78 12.24-14.48 9.09-6.59 16.24-16.04 17.84-27.25 1.59-11.18-2.63-21.16-9.39-29.43zM86.83 288.81c-2.45 5.37-3.79 11.24-3.75 17.31-.13.53-.25 1.07-.36 1.6-.85-2.78-1.34-5.69-1.39-8.71-.03-2.54.41-4.92 1.19-7.14 1.81-3.01 4.09-5.8 6.56-8.32-.88 1.68-1.64 3.44-2.26 5.27zm258.61-93.22c.24.67.55 1.33.93 1.98-.44-.26-.88-.52-1.33-.77.12-.41.26-.81.4-1.21zm73.47 82.5c-2.91-.39-5.84-.67-8.79-.86-.89-.78-1.82-1.53-2.76-2.25 1.29-1.62 2.5-3.31 3.63-5.05 2.08 2.44 5.29 3.93 9.27 3.11 2.63-.54 5.12-1.3 7.51-2.22-2.63 2.78-5.59 5.24-8.86 7.27zm-1.65-101.3c13.2 12.67 22.85 28.78 25.04 46.7-2.31 13.38-10.34 25.82-23.39 30.22.09-.24.18-.48.26-.72 2.83-8.16 4.28-16.93 4.43-25.81.15-1.11.27-2.22.36-3.34.66-2.79 1.06-5.68 1.18-8.64.79-19.23-9.41-39.79-25.25-50.96a71.786 71.786 0 00-5.27-4.43c-.59-.44-1.19-.86-1.8-1.29 9.06 5.16 17.41 11.5 24.43 18.25zm-195.12 11.37v-.01.01c.76.18 1.35.46 1.97.84-.76-.09-1.53-.15-2.32-.18.01-.08.03-.17.04-.25 0-.04 0-.07.01-.12-.01-.02-.02-.04-.04-.09 0 .02.03.02.05.02 0-.06.01-.12.02-.18-.43-.08-1.07-.33.01-.1.2-1.57.21-.58.11.02.04 0 .08.02.12.03zm59.87 81.42c-1.23 2.06-2.24 4.2-3.04 6.41-.26-.18-.52-.35-.78-.53-.5-.35-.99-.71-1.48-1.06-.64-1.77-1.35-3.52-2.13-5.24 1.29-1.13 2.7-2.09 4.19-2.87a83.67 83.67 0 013.24 3.29zm-53.4-57.72c.81.37 1.66.81 2.49 1.32-.2 3.46.31 7 1.34 10.46-.25-.03-.5-.07-.75-.13-1.63-2.93-3.17-5.91-4.61-8.93-.61-1.28-1.22-2.58-1.82-3.89.07-.04.14-.07.21-.1 1.12.41 2.18.83 3.14 1.27zm18.97 68.01c-2.65.52-5.18 1.26-7.59 2.2-1.08-.28-2.16-.53-3.25-.74-1.82-2.86-3.97-5.5-6.49-7.81 5.02.35 10.06-.07 14.88-1.22 1.18 1.17 2.37 2.32 3.58 3.45-.43 1.36-.81 2.73-1.13 4.11zm42.19-49.25c.56 3.63 1.4 7.24 2.54 10.84-2.22.66-4.63.95-7.06.87a60.13 60.13 0 004.52-11.7zm-96.26-45.85c-1.53 2.88-2.67 5.9-3.44 9.01-3.47 2.02-6.45 4.77-8.6 8.41.32-1.1.68-2.2 1.11-3.28 2.26-5.71 6.14-10.46 10.93-14.13zm-17.03 76.34c.83 1.36 1.68 2.69 2.55 3.99 2.25 3.35 4.62 6.61 7.11 9.78-.16.14-.32.28-.47.43-1.4-.79-2.83-1.53-4.28-2.22a59.387 59.387 0 00-9.15-12.74c1.42.16 2.84.41 4.25.75zm-25.23-88.02c-1.6 3.83-2.67 7.87-3.25 11.99-2.16 4.59-3.47 9.22-4.07 13.83-1.83-2.52-3.39-5.23-4.59-8.16-3.97-9.72-3.1-20.47 4.74-27.81 3.44-3.22 7.44-5.49 11.76-7.02-2.51 5.38-4 11.22-4.59 17.18zm-47.4 131.41s.04-.07.06-.1c.33.49.68.98 1.07 1.46.69.85 1.44 1.63 2.21 2.38.32 3.98 1.04 7.97 2.24 11.9-2.86-5.02-4.96-10.41-5.58-15.64zm37.92 31.05a65.873 65.873 0 01-4.37-4.3c-2.77-3-5.02-6.23-6.78-9.6 2.93 1.23 5.92 2.31 8.97 3.15 2.06 3.09 4.67 5.89 7.49 8.29-1.72.93-3.49 1.77-5.31 2.46zm125.39 74.24c-14.86-.23-29.1-8.4-37.96-20.33 5.06 3.85 10.7 6.92 16.72 9.07 7.37 5.04 15.48 9 23.89 11.22-.87.04-1.75.05-2.64.04zm21.14-34.36c-5.16 4.5-11.27 6.92-17.62 7.65-.39-.09-.78-.21-1.17-.31 1.53-.16 3.07-.59 4.59-1.37 6.2-3.17 8.21-8.18 7.96-13.71 1.72-.88 3.28-1.91 4.67-3.07 1.97 1.81 3.99 3.57 6.05 5.28l.09.76c-1.37 1.7-2.89 3.3-4.57 4.77zm50.49-.92c-2.04-1.68-3.99-3.56-5.84-5.57.29-1.7.49-3.41.63-5.13 3.45 3.79 6.93 7.55 10.42 11.3-1.75-.05-3.49-.26-5.21-.59zm54.49-17.18c.47-1.28.91-2.57 1.3-3.88 1.79-.55 3.56-1.2 5.3-1.96.95-.41 1.88-.86 2.8-1.33 1.24 2.06 2.62 4.06 4.1 6-4.35 1.26-9.18 1.49-13.5 1.17zm91.7-5.95c-6.26 2.14-13.07 2.31-19.75.98.13-.05.26-.1.39-.14 2.72.07 5.45-.14 8.09-.64 5.42-1.03 10.99-3.74 15.08-7.73.6 1.55 1.13 3.13 1.53 4.75-1.51 1.13-3.28 2.08-5.34 2.79z"></path></g><g fill="#4e4f66"><path d="M430.65 467.51a865.009 865.009 0 01-17.36-74.54c-1.32-7.09-2.55-14.19-3.7-21.31-.31-1.9-3.2-1.09-2.89.8 4.05 25.2 9.21 50.21 15.48 74.95a835.03 835.03 0 005.58 20.9c.52 1.86 3.42 1.07 2.89-.8zM423.25 464.87a615.28 615.28 0 00-54.75-67.36 622.74 622.74 0 00-17.03-17.45c-1.38-1.36-3.5.76-2.12 2.12 20.45 20.14 39.5 41.7 56.91 64.52 4.93 6.46 9.73 13.02 14.4 19.68 1.1 1.57 3.7.07 2.59-1.51z"></path><path d="M406.25 375.54c21.66 10.04 44.63 19.35 68.87 19.62 18.7.21 38.27-5.68 52.1-18.65s19.08-32.04 15.8-50.55-14.71-34.97-30.93-44.75c-19.24-11.59-43.15-13.98-64.79-8.84l1.46 2.51c16.21-13.25 23.94-34.71 22.98-55.31-1.06-22.67-12.22-43.82-27.12-60.48-28.44-31.79-77.34-51.26-116.74-27.5-18.67 11.27-32.72 30.82-33.29 53.09l2.95-.4c-14.78-36.65-51.36-61.79-91.01-61.43-20.55.19-41.16 6.77-57.68 19.07-8.07 6.01-15.43 13.46-19.6 22.74-4.2 9.36-4.85 19.83-2.89 29.83 4.72 24.09 23.57 41.45 42.91 54.81 1.6 1.11 3.06-1.47 1.51-2.59-17.88-12.92-41.93-16.76-62.85-9.58-19.33 6.63-35.24 22.02-42.48 41.12-4.31 11.37-5.8 23.94-5.58 36.05.21 11.28 2.23 22.66 7.17 32.88 9.2 19.02 28.42 30.43 48.72 34.1 27.53 4.98 55.03-4.1 80.21-14.51l-1.9-1.45c-1.4 27.4 20.5 49.33 43.71 60.23 26.59 12.49 61.74 15.12 85.7-4.39 11.54-9.39 19.52-23.27 19.78-38.33.03-1.93-2.97-1.93-3 0-.22 12.87-6.49 24.74-15.75 33.46-10.33 9.72-23.93 14.83-37.98 15.85-27.05 1.95-56.45-8.92-74.77-29.14-9.39-10.36-15.41-23.51-14.69-37.68.05-.89-1.01-1.81-1.9-1.45-21.81 9.02-45.17 17.16-69.14 15.65-19.46-1.22-39.78-9.32-51.47-25.55-13.04-18.1-14.04-43.49-9.29-64.6 4.54-20.16 17.68-37.3 36.33-46.4 21.66-10.57 48.23-7.7 67.66 6.33l1.51-2.59c-16.59-11.46-32.93-25.79-39.54-45.48-3.18-9.5-4.09-19.91-1.36-29.63s9.23-17.82 16.89-24.26c29.95-25.19 74.92-28.33 108.31-8.29 17.65 10.6 31.85 26.9 39.56 46.02.61 1.5 2.9 1.4 2.95-.4.49-19.05 11.52-36.2 26.73-47.15 16.43-11.83 36.64-15.86 56.49-12.33 21.26 3.78 40.79 15.13 56.1 30.16s27.49 34.59 30.98 56.13-3.45 46.71-21.26 61.27c-1.23 1.01.12 2.83 1.46 2.51 18.55-4.4 38.84-3.1 56.17 5.16 16.72 7.96 29.37 22.18 34.42 40.09s2.14 36.25-9.82 49.96c-12.04 13.8-30.58 20.66-48.55 21.58-25.43 1.3-49.94-8.61-72.57-19.1-1.74-.81-3.27 1.78-1.51 2.59z"></path><path d="M336.74 385.09a70.253 70.253 0 0023.01 16.25c1.75.77 3.28-1.82 1.51-2.59a68.263 68.263 0 01-22.4-15.78c-1.33-1.41-3.44.71-2.12 2.12z"></path><path d="M334.32 384.28l67.61 68.09c6.34 6.38 12.68 12.77 19.02 19.15 1.16 1.17 3.41-.42 2.36-1.82-9.31-12.37-19.49-24.05-30.2-35.23s-22.12-22.04-33.6-32.61c-6.44-5.93-12.94-11.81-19.44-17.68-1.43-1.29-3.44.7-2.12 2.12 11.31 12.21 22.79 24.26 34.44 36.15 11.59 11.83 23.35 23.5 35.26 35 6.77 6.53 13.59 13.01 20.46 19.44.85.8 2.72.31 2.56-1.06-3.49-29.37-6.81-58.76-10.47-88.1-.78-6.29-1.97-12.92-6.64-17.59-1.11-1.11-2.79.04-2.51 1.46 5.65 27.94 11.29 55.87 16.94 83.81 1.6 7.9 3.19 15.8 4.79 23.7.38 1.89 3.27 1.09 2.89-.8-5.65-27.94-11.29-55.87-16.94-83.81-1.6-7.9-3.19-15.8-4.79-23.7l-2.51 1.46c4.06 4.05 5.08 10 5.76 15.47.87 6.96 1.66 13.94 2.49 20.91l5.1 42.98 2.88 24.21 2.56-1.06c-12.16-11.37-24.15-22.9-35.99-34.61s-23.39-23.46-34.83-35.43c-6.5-6.8-12.95-13.65-19.34-20.55l-2.12 2.12c11.48 10.37 22.95 20.74 34.12 31.43s21.89 21.57 32.03 33.11c5.78 6.58 11.35 13.36 16.62 20.36l2.36-1.82-67.61-68.09c-6.34-6.38-12.68-12.77-19.02-19.15-1.36-1.37-3.48.75-2.12 2.12z"></path><path d="M334.01 386.1l-.54-7.17c-.14-1.91-3.12-1.94-3 0 .86 14.11-5.53 27.63-15.27 37.57-4.78 4.88-10.3 8.96-16.2 12.39s-12.67 6.86-19.54 8.37c-7.57 1.67-14.87-.6-22.06-2.84-5.91-1.84-11.81-3.75-17.57-6.02-11.18-4.38-22.22-10.25-30.12-19.51-10.23-12-12.21-28.04-13.84-43.13-.21-1.9-3.21-1.92-3 0 1.55 14.29 3.28 29.4 11.79 41.48 7.35 10.43 18.42 17.3 29.97 22.25 6 2.57 12.17 4.71 18.39 6.69 7.12 2.27 14.57 5.07 22.16 4.67s14.72-3.75 21.3-7.16c6.35-3.29 12.36-7.28 17.69-12.06 10.65-9.56 18.37-22.77 19.3-37.25.12-1.82.11-3.64 0-5.46h-3l.54 7.17c.14 1.91 3.14 1.93 3 0zM403.57 369.46c11.77 16.77 31.68 26.14 51.87 27.19 11.55.6 23.19-1.38 34.09-5.15 9.94-3.44 19.54-8.25 27.82-14.77 7.59-5.97 13.99-13.63 17.26-22.81 3.76-10.52 2.89-22.23-.61-32.69-5.84-17.41-18.82-31.68-34.83-40.42-15.54-8.48-33.92-11.93-51.39-8.59-2.15.41-4.27.93-6.36 1.55l1.16 2.74c16.79-12.24 26.46-31.91 28.55-52.34s-4.52-42.31-17.24-59.35c-13.09-17.54-31.69-30.8-52.21-38.26-22.23-8.09-48.03-9.51-69.75.95-19.76 9.51-34.2 29.02-37.92 50.61-.45 2.62-.75 5.26-.9 7.91-.11 1.93 2.89 1.92 3 0 1.16-20.97 12.97-41.05 30.72-52.27 19.64-12.42 44.42-12.97 66.27-6.8 20.47 5.78 39.42 17.55 53.45 33.56 13.52 15.43 22.07 35.06 21.98 55.73-.08 19.58-7.41 39.51-21.87 53.03a62.317 62.317 0 01-5.61 4.65c-1.29.94-.59 3.25 1.16 2.74 16.19-4.75 33.85-3.05 49.23 3.69s28.82 18.52 36.38 33.73c4.69 9.44 7.28 20.33 5.89 30.87-1.27 9.68-6.25 18.22-13.15 24.99s-15.37 11.79-24.17 15.67c-10.21 4.49-21.24 7.4-32.4 8.02-19.66 1.08-39.94-5.51-53.46-20.24a53.08 53.08 0 01-4.37-5.44c-1.1-1.57-3.7-.07-2.59 1.51zM287.17 186.35c-5.49-19.83-17.84-37.54-34.36-49.75s-36.73-18.11-57-15.4c-19.55 2.61-38.39 12.58-50.73 28.11-5.99 7.53-10.43 16.28-12.54 25.69-2.04 9.08-2.03 18.53-.28 27.66 3.49 18.1 14.21 35.22 30.32 44.6 1.98 1.15 4.03 2.17 6.14 3.06.75.32 1.6.22 2.05-.54.38-.63.21-1.74-.54-2.05-16.57-7.04-28.37-22.13-33.43-39.17s-3.16-36.6 6.82-52.1 27.59-27 46.05-31.14c9.3-2.08 19.03-2.43 28.42-.74s18.91 5.41 27.26 10.58c16.76 10.37 29.95 26.6 36.73 45.1.83 2.26 1.56 4.56 2.21 6.89.51 1.86 3.41 1.07 2.89-.8z"></path><path d="M166.99 245.63c-16.91-11.68-39.11-13.77-58.51-7.8-9.75 3-18.83 8.01-26.42 14.84s-13.73 15.4-18.04 24.7c-8.82 19.05-10.71 41.75-4.25 61.82 1.77 5.5 4.28 10.79 7.86 15.35s7.87 7.99 12.66 10.88 9.94 5.12 15.17 7.09c5.94 2.24 11.99 4.24 18.13 5.86 12.1 3.2 24.8 4.88 37.28 3.19 10.87-1.47 21.48-5.46 30.08-12.36 2.09-1.68 4.03-3.53 5.82-5.54 1.08-1.22-.31-3.31-1.82-2.36-17.05 10.73-37.63 14.24-57.5 12.27-9.97-.99-20.07-3.27-29.32-7.16-4.59-1.93-9.06-4.39-12.89-7.6s-7.04-7.27-9.57-11.68-4.37-8.91-6.07-13.56c-1.87-5.1-3.66-10.25-5.22-15.45s-2.85-10.93-2.92-16.58c-.05-4.53.61-9.02 1.89-13.37 5.28-17.95 20-32.13 35.76-41.36 9.3-5.44 19.65-9.4 30.58-8.62s20.81 5.18 31.41 6.81c2.59.4 5.19.65 7.81.67 1.93.01 1.93-2.99 0-3-11.28-.08-21.79-4.65-32.76-6.63-5.48-.99-10.97-1.25-16.49-.37s-10.65 2.75-15.61 5.12c-9.12 4.36-17.63 10.31-24.91 17.33s-12.87 14.59-16.63 23.5-4.96 19-3.15 28.79c1.09 5.92 3.05 11.64 5 17.33 1.7 4.95 3.43 9.9 5.56 14.68 2.11 4.73 4.67 9.25 7.97 13.25s7.34 7.27 11.79 9.88c8.96 5.25 19.39 8.17 29.57 9.91 20.31 3.47 41.85 1.55 60.42-7.76 2.32-1.16 4.58-2.44 6.77-3.82l-1.82-2.36c-7.04 7.92-16.58 13.04-26.78 15.63-11.38 2.89-23.3 2.5-34.76.31-6.18-1.18-12.25-2.86-18.22-4.82-5.4-1.77-10.78-3.69-15.94-6.07-4.84-2.24-9.57-4.9-13.63-8.38s-7.55-8.03-9.97-13.04c-4.56-9.44-6.32-20.39-6.35-30.81a85.3 85.3 0 015.09-29.29c6.74-18.57 20.41-34.38 38.81-42.03s39.07-7.6 56.35 1.42c2.16 1.13 4.24 2.39 6.24 3.78 1.59 1.1 3.09-1.5 1.51-2.59z"></path><path d="M157.14 239.75c1.46 1.57 2.92 3.14 4.39 4.71l1.82-2.36c-13.6-9.58-23.37-24.08-27.98-40-2.29-7.91-3.31-16.16-2.9-24.38.21-4.21.79-8.39 1.8-12.48 1.17-4.78 3.11-9.13 6.94-12.35 3.56-3 8-4.97 12.18-6.96 4.46-2.13 9-4.11 13.61-5.89 9.19-3.56 18.69-6.4 28.42-8.08 18.51-3.19 38.23-1.73 54.75 7.83 14.57 8.43 25.84 22.46 30.9 38.52.64 2.02 1.17 4.06 1.61 6.13.41 1.89 3.3 1.09 2.89-.8-3.73-17.33-14.27-32.9-28.72-43.12-15.95-11.29-35.9-14.62-55.05-12.47-10.19 1.14-20.18 3.62-29.86 6.99-4.8 1.67-9.52 3.55-14.16 5.6s-9.25 4.13-13.62 6.64-8.08 5.65-10.31 10.15c-2.08 4.2-3.07 8.92-3.72 13.54-1.22 8.62-.89 17.38.85 25.9 3.46 16.89 12.52 32.8 25.75 43.92a74.94 74.94 0 005.1 3.92c1.44 1.01 2.94-1.16 1.82-2.36-1.46-1.57-2.92-3.14-4.39-4.71-1.32-1.42-3.44.71-2.12 2.12zM293.8 184.17c2.78-18.03 13.15-34.09 27.37-45.3 14.11-11.12 32.26-17.41 50.28-15.86 11.28.97 22.19 4.69 32.38 9.49 5.19 2.45 10.25 5.19 15.21 8.07s9.57 5.64 14.05 8.93 8.47 6.95 11.69 11.34 5.88 9.65 7.91 14.91c4.28 11.03 7.13 22.79 8.08 34.59 1.77 22.13-4.19 44.23-17.34 62.18a89.812 89.812 0 01-4.99 6.18c-1.27 1.44.84 3.57 2.12 2.12 14.87-16.86 23.32-38.83 23.54-61.31.12-12.55-2.13-25.09-5.89-37.04-3.43-10.87-8.12-21.52-16.42-29.57-4.09-3.97-8.77-7.28-13.58-10.32s-10.07-6.09-15.26-8.85c-10.29-5.48-21.18-10.17-32.67-12.46-9.84-1.96-19.87-1.97-29.67.23-9.06 2.03-17.74 5.8-25.5 10.89-15.67 10.26-28.01 26.01-32.8 44.24-.58 2.22-1.04 4.47-1.39 6.74-.29 1.89 2.6 2.7 2.89.8z"></path><path d="M438.43 280.62c19.54-6.06 41.1-3.75 59.45 5.07 9.13 4.39 17.5 10.35 24.48 17.71a74.93 74.93 0 019.17 11.82c3.33 5.33 6.19 11.21 7.06 17.5.95 6.89-1.35 13.08-4.46 19.1-2.95 5.7-6.33 11.34-7.48 17.74-.34 1.89 2.55 2.7 2.89.8 2.15-11.97 12.11-21.16 12.28-33.69.09-6.63-2.23-13.06-5.31-18.84-2.56-4.8-5.7-9.3-9.23-13.44-13.63-16-33.54-26.44-54.29-29.32-11.82-1.64-23.93-.88-35.35 2.66-1.84.57-1.05 3.47.8 2.89zM329.27 384.83c-2.7 13.19-9.11 25.48-18.28 35.34-9.46 10.16-21.64 17.41-35.16 20.65-13.65 3.27-28.27 2.51-41.39-2.56-12.41-4.8-22.88-13.7-29.9-24.98-6.84-11-10.4-24.05-9.35-37.01.13-1.57.33-3.13.6-4.68l-2.95-.4c2.9 25.31 15.16 50.58 37.29 64.37 10.69 6.66 23.31 10.49 35.93 10.33 6.31-.08 12.62-1.17 18.55-3.33 6.75-2.45 12.99-6.05 18.99-9.94s12.55-8.19 18.31-12.92c5.52-4.54 10.49-9.94 13.32-16.58.75-1.76-1.83-3.29-2.59-1.51-4.94 11.57-16.01 18.67-26.05 25.44-11.07 7.46-22.68 14.47-36.28 15.64-11.94 1.03-24.04-1.76-34.59-7.36s-19.88-14.59-26.45-25.01c-7.43-11.76-11.86-25.33-13.43-39.12-.17-1.52-2.63-2.22-2.95-.4-2.32 13.44.2 27.3 6.43 39.38 6.26 12.14 16.26 22.34 28.52 28.44 13.22 6.57 28.38 8.51 42.91 6.26 14.38-2.23 27.78-8.8 38.44-18.69s17.91-21.9 21.7-35.38c.48-1.71.89-3.43 1.25-5.17.39-1.88-2.5-2.69-2.89-.8z"></path></g></svg>