<svg xmlns="http://www.w3.org/2000/svg" fill="none" viewBox="0 0 400 400" id="High-Five--Streamline-Seoul.svg" height="400" width="400"><desc>High Five Streamline Illustration: https://streamlinehq.com</desc><path fill="#325a80" d="M290.56 111.04a129.616 129.616 0 0 1 -22.6 6c-5.86 1 -13.74 2 -17.18 -4.2 -3.02 -5.34 -1.22 -12.4 0 -18a176.96 176.96 0 0 1 16.26 -45.6 1.144 1.144 0 0 0 -1.312 -1.664 1.148 1.148 0 0 0 -0.688 0.544c-19.76 31.34 -21.88 34.64 -27.02 39.68 -4.56 4.42 -10.58 7.48 -17.06 5.72 -6.48 -1.76 -11.54 -7.34 -14.68 -13.1 -4.26 -7.7 -6.34 -16.38 -10.76 -24a1.1 1.1 0 0 0 -2 0.56c1.08 16.96 1.24 41.28 -0.36 54.88 -0.68 4.7 -3.02 9.3 -8.44 9.16 -6.18 -0.18 -10.14 -5.66 -13.38 -10.24 -0.82 -1.14 -2.7 0 -2 1.12v-0.12c3.08 4.4 6.64 8.96 11.88 10.72a10.14 10.14 0 0 0 12.46 -4.96c2.38 -4.98 2.2 -11.16 2.32 -16.52 0.58 -12 0.6 -26.4 0 -38.98 5.66 12.14 8.74 27.08 22.14 32.74a18.36 18.36 0 0 0 18.38 -2.8c6.92 -5.36 11.06 -12.82 22.2 -30a200.556 200.556 0 0 0 -10.2 32.32c-1.32 6 -2.96 13 -0.22 18.88 2.9 6.3 10 7.32 16.18 6.62 18.44 -2.4 15.14 -5.78 2.44 5.24 -11.48 10.38 -8.24 22 0.4 25.42 1.3 0.56 2.42 -1.34 1.12 -2a10.414 10.414 0 0 1 -6.6 -8 13.746 13.746 0 0 1 3.32 -10.28 46.606 46.606 0 0 1 11.44 -9.5 97.154 97.154 0 0 1 14.42 -7.4c1.42 -0.54 0.98 -2.64 -0.46 -2.24Z" stroke-width="1"></path><path fill="#ffffff" d="M114.48 258.12a114.364 114.364 0 0 0 -16.18 -14.12l-49.14 -10.4a123.626 123.626 0 0 0 -28.86 6c-3.08 1.04 -6.62 2.6 -7.4 5.76 -3.22 11.64 29.62 11.5 36.64 12.56 14.38 2.2 29 5.26 41.54 12.98 -2.38 2.56 -9.12 6.62 -8.58 10.66 0.44 3.24 4.58 4.4 7.86 4.2a34.388 34.388 0 0 0 26.18 -14.22 10.366 10.366 0 0 0 2.2 -4.6c0.4 -3.34 -1.94 -6.3 -4.26 -8.82Z" stroke-width="1"></path><path fill="#325a80" d="M117.62 260.26a107.96 107.96 0 0 0 -18.88 -17.18c-1.16 -0.82 -2.22 1.1 -1.12 2a128.23 128.23 0 0 1 15.28 13.22c2 2 4.6 4.7 4.64 7.84 0.04 3.14 -2.54 5.86 -4.4 8a33.666 33.666 0 0 1 -22.32 10.6c-2.2 0 -5.14 0 -6.6 -1.9s0.56 -4.56 2 -6c1.78 -1.78 3.9 -3.22 5.66 -5.04a1.13 1.13 0 0 0 0.298 -0.912 1.112 1.112 0 0 0 -0.52 -0.808c-15.2 -9.26 -33.38 -12.5 -50.88 -13.88a94.744 94.744 0 0 1 -18.5 -2.72c-3.38 -0.96 -9.84 -3.14 -8.28 -7.88 0.82 -2.48 3.6 -3.72 5.86 -4.54a123.208 123.208 0 0 1 29.28 -6.22c1.26 -0.12 1.56 -2.2 0 -2.2A124.692 124.692 0 0 0 21.48 238a22.84 22.84 0 0 0 -6.6 2.88 7.082 7.082 0 0 0 -3.02 7.86c4.22 9.78 27.72 8.62 40.72 10.7s25.5 5.12 36.7 11.62c-4 3.62 -8 5.62 -8 10.56 0.82 6.32 10 5.38 14.28 4.42 10.12 -2 19.24 -8.9 23.26 -16.52a9.062 9.062 0 0 0 -1.2 -9.26Z" stroke-width="1"></path><path fill="#ffffff" d="M372 271.5c-1.8 -3.06 -5.58 -4.24 -9.02 -5.12 -15.88 -4 -33.12 -7.1 -44.9 -18.52l-5.62 10a41.59 41.59 0 0 0 14.2 15.6c8.62 5.74 18.98 11.9 29.56 12.3a19.82 19.82 0 0 0 12.52 -2.88c3.56 -2.44 5.48 -7.62 3.26 -11.38Z" stroke-width="1"></path><path fill="#a4deff" d="M351.56 263.56c-12.32 -3.12 -24.48 -6.98 -33.48 -15.7l-5.62 10a40.006 40.006 0 0 0 14.1 15.62A73.08 73.08 0 0 0 348 284.6c6 -4.92 8.44 -15.06 3.56 -21.04Z" stroke-width="1"></path><path fill="#325a80" d="M372.34 270c-3.56 -4.78 -10 -4.44 -25.32 -8.84 -10.2 -2.82 -20.4 -6.62 -28.2 -14.16 -1 -0.96 -2.56 0.6 -1.54 1.58 10 9.04 20 12.44 33.44 15.8 4.28 5.44 2 14.38 -3.06 18.86a59.384 59.384 0 0 1 -11.7 -5.16c-8.82 -4.94 -18.18 -11.26 -22.52 -20.72 -0.6 -1.28 -2.5 -0.18 -1.9 1.12 4 8.82 12.42 14.92 20.56 19.84 8.6 5.24 18.64 9.52 28.92 8.38a14.974 14.974 0 0 0 11.3 -6 9.218 9.218 0 0 0 0.02 -10.7Zm-0.46 5.72a10.194 10.194 0 0 1 -8.22 8.42c-4.378 1.028 -8.94 0.988 -13.3 -0.12 4.5 -4.86 6.58 -12.76 3.7 -18.76 3.48 0.86 6.96 1.7 10.4 2.66 3.76 1.08 7.82 3.28 7.42 7.8Z" stroke-width="1"></path><path fill="#f1f9ff" d="M347.82 336.92a84.814 84.814 0 0 1 -13.22 -15.32 17.748 17.748 0 0 1 -2.74 -6c-0.26 -2.434 -0.16 -4.894 0.3 -7.3a38.4 38.4 0 0 0 -20.48 -37.48l-45.02 18.1a46.974 46.974 0 0 0 -14.28 -2.72 15.658 15.658 0 0 0 -12.82 5.84c-6.6 8.38 0.44 25.72 6.78 34.44a14.83 14.83 0 0 0 5.78 5.22 6.14 6.14 0 0 0 7.18 -1.4c2.82 -3.7 -0.44 -10.48 3.46 -13.02a5.348 5.348 0 0 1 3.08 -0.7 17.058 17.058 0 0 1 7.12 2.3c22.54 11.56 42.92 30.7 69.18 32.46 4.4 0.28 10 -0.9 11.02 -5.24 0.72 -3.58 -2.56 -6.7 -5.34 -9.18Z" stroke-width="1"></path><path fill="#325a80" d="M267.04 287.86c-8.82 -2.62 -20.76 -5.46 -27.68 2.78 -6.36 7.54 -2.82 19.24 0.76 27.2a38.51 38.51 0 0 0 8.4 12.74c2.96 2.68 8 4.16 11.16 1.06 2.86 -2.74 1.78 -6.96 2.2 -10.44 0.82 -6.34 8.58 -2.38 12 -0.62 19.4 10.2 36.68 25.26 58.48 30.36 4.548 1.288 9.292 1.73 14 1.3 3.52 -0.54 7.3 -2.38 7.88 -6.26 1.04 -7.12 -7.2 -8.52 -17.3 -23.04a23.58 23.58 0 0 1 -3.76 -6.62 24.218 24.218 0 0 1 0.2 -8.82 39.518 39.518 0 0 0 -21.1 -37.64c-1.26 -0.66 -2.38 1.26 -1.1 1.9a37.194 37.194 0 0 1 20 35.82 32.922 32.922 0 0 0 -0.4 7.68c0.68 4.64 4.22 8.82 7.02 12.4a90.592 90.592 0 0 0 10 10.56c2.66 2.44 6.62 7.04 2.54 10.16 -3.2 2.38 -7.88 1.88 -11.54 1.4 -26.8 -3.46 -48.32 -24.9 -68.8 -33.58 -3.62 -1.34 -8.5 -1.42 -10 2.88 -1.1 3.16 0.4 7.04 -1.32 10a4.708 4.708 0 0 1 -5.4 1.74 10.892 10.892 0 0 1 -5.4 -4.2c-5.58 -7.26 -10 -17.46 -9.84 -26.9a12.406 12.406 0 0 1 6.62 -10.8c7.52 -3.42 13.76 -1.54 21.68 0.84a1.146 1.146 0 0 0 1.41 -0.81 1.146 1.146 0 0 0 -0.81 -1.41l0.1 0.32Z" stroke-width="1"></path><path fill="#ffffff" d="M194.14 145.7a20.36 20.36 0 0 0 -7.44 -12.6c-4.12 -2.82 -10.34 -2.92 -13.76 0.74 -2.82 3.04 -3.06 7.58 -3.5 11.74 -2.86 28.96 -22.74 54.86 -52.88 60.9l-2.22 8.3c49 4.44 85.42 -37.8 79.8 -69.08Z" stroke-width="1"></path><path fill="#f1f9ff" d="M140.88 196a62.01 62.01 0 0 1 -24.4 10.52l-2.2 8.3a74.296 74.296 0 0 0 33.22 -4.42c-5.5 -2.52 -7.32 -8.28 -6.62 -14.4Z" stroke-width="1"></path><path fill="#325a80" d="M195.14 145.2c-3.5 -16.42 -18.16 -18.92 -24 -10.88 -4.56 6.68 -0.52 17.3 -10.4 36.8a64.24 64.24 0 0 1 -44.48 34.28c-1.4 0.26 -0.8 2.4 0.58 2.2a68.82 68.82 0 0 0 22.68 -9.3 13.816 13.816 0 0 0 5.42 12 74.896 74.896 0 0 1 -30.6 3.38c-1.4 -0.14 -1.4 2 0 2.2 31.58 2.92 63.8 -14 77.46 -44.42a44 44 0 0 0 3.34 -26.26Zm-3.32 20c-6 20 -23.64 36.62 -43.86 44.16 -5.84 -2.62 -6.28 -8.84 -6 -12.64A71.062 71.062 0 0 0 170.42 147.4c0.48 -3.82 0.36 -8.14 2.44 -11.54 4.64 -6.48 14.2 -3.84 18 3.8 3.8 7.64 3.4 17.36 0.96 25.44v0.1Z" stroke-width="1"></path><path fill="#f1f9ff" d="M77 181.84a124.21 124.21 0 0 1 -23.8 33.4 31.13 31.13 0 0 0 -7.64 9.72c-3.64 9.68 2.6 21.56 11.7 27.22a51.02 51.02 0 0 0 21.4 7.24c5.414 1.082 11.022 0.638 16.2 -1.28a30.342 30.342 0 0 0 12.12 -11.6 96.4 96.4 0 0 0 16.5 -54L77 181.84Z" stroke-width="1"></path><path fill="#325a80" d="M122.38 192.6a95.044 95.044 0 0 1 -17.12 54.5c-7.1 10.14 -14.56 14.48 -34 9.68 -20.4 -4.56 -29.7 -21.56 -24.14 -32.72a30.536 30.536 0 0 1 5.72 -7A128.38 128.38 0 0 0 78 182.38c0.62 -1.24 -1.26 -2.38 -1.9 -1.1a123.862 123.862 0 0 1 -24 33.5 41.964 41.964 0 0 0 -6.2 7.1c-7.1 11.38 1.1 29.56 20.14 35.7a57.48 57.48 0 0 0 20.36 3.34 23.166 23.166 0 0 0 16.78 -7.74c12 -13.72 21.36 -36.5 21.36 -60.66a1.1 1.1 0 1 0 -2.16 0.08Z" stroke-width="1"></path><path fill="#f1f9ff" d="M16.5 200.96a7.702 7.702 0 0 0 1.24 7.58c2.94 3.22 8.12 2.42 12.34 1.42 10.92 -2.58 23.16 -4.6 32.7 1.26l8.78 -11.64C51.04 184 22 187.42 16.5 200.96Z" stroke-width="1"></path><path fill="#ffffff" d="M47.78 207.44c3.2 -5.6 4.34 -13.34 0 -17.64 -24 -3.78 -36.68 10.7 -30.12 18.74 2.94 3.22 8.12 2.42 12.34 1.42a77.052 77.052 0 0 1 17.78 -2.52Z" stroke-width="1"></path><path fill="#ffffff" d="M83.42 200a41.08 41.08 0 0 1 4.78 29.68 3.094 3.094 0 0 0 0 2.46c0.76 1.12 2.48 0.8 3.72 0.26a46.706 46.706 0 0 0 26 -28.88L83.42 200Z" stroke-width="1"></path><path fill="#325a80" d="M82.46 200.56A40 40 0 0 1 87.74 226c-0.26 2 -1.76 5.44 0 7.18 1.76 1.74 4.24 0.46 6 -0.34a48.02 48.02 0 0 0 25.44 -29.02c0.42 -1.34 -1.7 -2 -2.2 -0.58a46.002 46.002 0 0 1 -16 22.62c-1.4 1.04 -10.9 7.74 -12 5.42 -0.4 -0.9 0.4 -2.86 0.56 -3.84a42.58 42.58 0 0 0 -5.36 -28 1.1 1.1 0 0 0 -1.52 -0.38 1.12 1.12 0 0 0 -0.4 1.52l0.2 -0.02Z" stroke-width="1"></path><path fill="#a4deff" d="M45.72 113.58c-2.68 -9.5 10.1 -13.84 15.58 -18.58a21.26 21.26 0 0 0 6.26 -22 29.42 29.42 0 0 0 -15.1 -17.64c3.42 3.32 0.82 9.58 -3.46 11.66 -8.48 4.1 -17 -1.74 -28.32 5.52a25 25 0 0 0 -2.56 38c14 14.56 34.26 16.46 48.5 30L62 128.88c-5.64 -4.7 -14 -7.5 -16.28 -15.3Z" stroke-width="1"></path><path fill="#325a80" d="M67.42 139.82C53.66 126.8 33.54 124.12 20 110.84a28.14 28.14 0 0 1 -7.78 -13.22A25.04 25.04 0 0 1 22 72.94a27.462 27.462 0 0 1 15.44 -3.36c5.08 0 11.24 0.22 15 -3.88A9.68 9.68 0 0 0 55.12 58c11.84 7.88 16.66 23.42 7.5 34.22 -3.56 4.2 -9.08 6.18 -13.22 9.72 -4.14 3.54 -6.3 8.82 -3.8 13.9 3.06 6.76 10.5 9.38 15.88 13.76 1.1 0.9 2.66 -0.66 1.56 -1.54 -4.8 -4 -11.46 -6.38 -14.76 -11.88a8.836 8.836 0 0 1 -1.02 -8c3.9 -7.48 13.5 -8.98 18.54 -16.3 8.9 -13.46 1.46 -30.46 -12.6 -37.48a1.14 1.14 0 0 0 -1.36 1.74c2.96 3.04 0.2 8 -2.94 9.76 -4.82 2.6 -10.84 1.4 -16 1.7C11.48 68.78 2.26 94 15.76 109.54c13.38 16.36 35.14 17.74 50 31.78 1.04 0.96 2.58 -0.58 1.56 -1.54l0.1 0.04Z" stroke-width="1"></path><path fill="#ffffff" d="M54.1 146.34c4.52 -28.4 34.1 -47.3 66 -42.22C152 109.2 174.4 136.36 169.88 164.76c-4.52 28.4 -34 47.3 -66 42.22 -32 -5.08 -54.3 -32.24 -49.78 -60.64Z" stroke-width="1"></path><path fill="#325a80" d="M114.16 208.9c-36.52 0 -66.44 -29.56 -61.16 -62.74 4.62 -28.96 34.82 -48.3 67.34 -43.12S175.58 136 170.96 164.94c-4.1 25.8 -28.52 43.96 -56.8 43.96ZM55.18 146.52C50.58 175.42 74 201.1 104 205.88c30.9 4.92 60.34 -13.16 64.82 -41.3C173.2 136.84 151.32 110.2 120 105.22c-30.98 -4.94 -60.36 13.24 -64.82 41.3Z" stroke-width="1"></path><path fill="#a4deff" d="M150.86 131.66c-18 10 -32.32 -5.82 -46.32 -12A30.68 30.68 0 0 1 112.8 138a57.324 57.324 0 0 0 -18.66 2.8 37.36 37.36 0 0 0 -2.62 -21.18c-1.12 12.78 -4.6 27.1 -15.2 35.28 -3.76 2.9 -18.16 9.2 -21.28 8 -1.82 -0.78 -2.36 -3.06 -2.56 -5.06 -2.64 -29.08 19.34 -49.58 45.4 -57.02a53.48 53.48 0 0 1 43.78 6.38c6.62 4.42 13.24 10.68 21.1 9.76a25.28 25.28 0 0 1 -11.9 14.7Z" stroke-width="1"></path><path fill="#325a80" d="M56.24 164.14c-3.3 0 -4.52 -2.96 -4.86 -6.22 -2.94 -32.38 23.04 -51.58 46.2 -58.2a54.5 54.5 0 0 1 44.68 6.56c6.36 4.24 12.98 10.44 20.38 9.58a1.1 1.1 0 0 1 1.18 1.42A26.44 26.44 0 0 1 136.88 136c-10.62 -0.88 -19.26 -8 -28.34 -13.04A31.8 31.8 0 0 1 114 138a1.1 1.1 0 0 1 -1.12 1.2 56.356 56.356 0 0 0 -18.3 2.74 1.1 1.1 0 0 1 -1.44 -1.24c0.92 -5.394 0.6 -10.928 -0.94 -16.18 -2 14.78 -6.96 25.06 -15.1 31.36a40.002 40.002 0 0 1 -13.22 6.38 25.784 25.784 0 0 1 -7.64 1.88Zm42 -62.3c-22.34 6.38 -47.42 24.84 -44.6 55.86 0.24 2.34 0.86 3.7 1.9 4.14 1.04 0.44 5.36 -0.92 7.56 -1.7a37.86 37.86 0 0 0 12.6 -6c8.48 -6.54 13.32 -17.82 14.8 -34.5a1.1 1.1 0 0 1 2.1 -0.34 38.1 38.1 0 0 1 2.94 20 59.234 59.234 0 0 1 16 -2.34 29.64 29.64 0 0 0 -7.84 -16.5 1.1 1.1 0 0 1 1.24 -1.76c11.1 4.88 20.4 14 32 15.08a24.36 24.36 0 0 0 24.14 -15.6c-7.62 0 -13.9 -5.86 -20.14 -10a52.38 52.38 0 0 0 -42.76 -6.34h0.06Z" stroke-width="1"></path><path fill="#a4deff" d="M323.2 270.44c-3.72 -9.3 -0.66 -19.84 2.4 -29.38l-52.78 -28.24c-23.3 24.68 -28.14 64.88 -11.38 94.38 16.18 -20.68 48.24 -26.8 70.88 -13.52 2 -8.28 -5.94 -15.3 -9.12 -23.24Z" stroke-width="1"></path><path fill="#325a80" d="M324.8 271.3c-4.56 -9.6 -1.18 -20.52 1.88 -30 0.42 -1.38 -1.74 -2 -2.2 -0.6 -3.24 9.24 -6.2 19.84 -2.58 29.52 4.84 10.88 10.12 14.48 9.52 21.66 -22.42 -12 -53.08 -6.66 -69.86 13.3 -15.06 -28.12 -11.52 -66.74 12.1 -91.56 0.96 -1.04 -0.58 -2.6 -1.56 -1.56a83.24 83.24 0 0 0 -11.52 95.64 1.122 1.122 0 0 0 1.74 0.22c15.76 -20 46.66 -26.56 69.54 -13.34a1.096 1.096 0 0 0 1.6 -0.66c2.04 -8.6 -5.24 -15.46 -8.66 -22.62Z" stroke-width="1"></path><path fill="#ffffff" d="M68 160.74c-6.26 -5.34 -15.48 -0.98 -16.7 7.04C49.76 180 63.72 190 71.84 182.28L68 160.74Z" stroke-width="1"></path><path fill="#325a80" d="M68.8 160a10.9 10.9 0 0 0 -10.8 -2.24 12.318 12.318 0 0 0 -7.08 7.3c-4.76 12.32 11.22 27.42 21.74 18 1.04 -0.98 -0.52 -2.56 -1.54 -1.56 -10.56 9.06 -26.16 -10.44 -14.96 -20a8.6 8.6 0 0 1 11.02 0c1.08 0.94 2.64 -0.64 1.56 -1.54l0.06 0.04Z" stroke-width="1"></path><path fill="#ffffff" d="M261.36 162.1c10.98 -30.32 47.88 -44.78 82.38 -32.26 34.5 12.52 53.54 47.24 42.54 77.56S338.4 252.2 304 239.68c-34.4 -12.52 -53.64 -47.24 -42.64 -77.58Z" stroke-width="1"></path><path fill="#325a80" d="M383.04 161.4a72.004 72.004 0 0 0 -38.94 -32.6c-35 -12.7 -72.6 2 -83.78 32.94 -14.42 39.76 21.78 83.56 68.9 83.56 47.54 0 75.6 -44.18 53.82 -83.9Zm2.22 45.64c-10.44 28.74 -46 44.32 -80.98 31.6 -29.16 -10.58 -47.16 -37.38 -44.7 -63.6a13.22 13.22 0 0 0 14 -0.68c1.14 -0.8 0 -2.7 -1.12 -2a11.182 11.182 0 0 1 -12.68 0c5.1 -35.44 45.1 -55.58 83.5 -41.66 35.26 12.92 52.36 47.7 41.98 76.34Z" stroke-width="1"></path><path fill="#f1f9ff" d="M386.32 207.44c-4 10.82 -15.26 28 -28.66 27.14 -6.62 -0.48 -12.78 -7.38 -10.66 -13.68 -5.9 5.36 -16 3.68 -21.66 -1.88 -5.66 -5.56 -8 -13.76 -8.82 -21.7a84.936 84.936 0 0 1 3.68 -36 62.748 62.748 0 0 1 -22 -32.82 9.266 9.266 0 0 1 0.14 -7.24 6.612 6.612 0 0 1 7.7 -2.2c3.06 0.96 5.16 3.5 7.64 5.04 -0.86 -3.1 -2.2 -8.56 2.76 -9.14a5.26 5.26 0 0 1 4.14 1.78 46.32 46.32 0 0 1 2.88 3.72c4.64 5.9 13.76 6.94 20.46 9.36 34.32 12.54 53.4 47.28 42.4 77.62Z" stroke-width="1"></path><path fill="#325a80" d="M357.58 235.68c-6.34 -0.46 -12.2 -6.22 -12 -12.3 -6.56 3.76 -15.64 1.52 -20.92 -3.56 -5.28 -5.08 -8.1 -12.26 -9.14 -22.4a85.808 85.808 0 0 1 3.5 -35.6 64.412 64.412 0 0 1 -21.84 -32.94 10.24 10.24 0 0 1 0.22 -8l0.12 -0.2a7.74 7.74 0 0 1 8.98 -2.56 16.908 16.908 0 0 1 5.5 3.4c-0.84 -5 1.22 -7.22 4.38 -7.58a6.458 6.458 0 0 1 5.1 2.16c1.018 1.246 1.966 2.548 2.84 3.9 4.34 5.48 13.24 6.52 20 8.94 33.66 12.18 54.72 46.88 43.1 78.92 -4.56 12.34 -16.42 28.72 -29.84 27.82Zm-9.58 -14.42c-1.9 5.6 3.78 11.8 9.68 12.22 12 0.8 23.38 -14.96 27.54 -26.42 10.58 -29.18 -7.4 -66.48 -47.14 -77.76 -14.76 -4.18 -14.26 -6.9 -18.42 -11.74a3.508 3.508 0 0 0 -4.034 -1.154c-0.47 0.18 -0.894 0.456 -1.246 0.814 -1.12 1.66 -0.18 5.06 0.28 6.7a1.12 1.12 0 0 1 -1.66 1.22c-2.54 -1.58 -4.58 -4 -7.4 -4.94a5.56 5.56 0 0 0 -6.4 1.72 7.98 7.98 0 0 0 0 6.26 62.172 62.172 0 0 0 21.7 32.38 1.054 1.054 0 0 1 0.36 1.2 83.768 83.768 0 0 0 -3.62 35.44c0.98 9.6 3.76 16.48 8.48 21.04 5.2 5.02 14.54 6.96 20.16 1.84a1.126 1.126 0 0 1 1.262 0.004 1.128 1.128 0 0 1 0.458 1.176Z" stroke-width="1"></path><path fill="#325a80" d="M302.32 177.72c2 -2.3 5.46 -1.12 6.62 1.6 1.56 3.2 0.3 7.06 -0.86 10.18a16.444 16.444 0 0 1 -5.64 8 8.13 8.13 0 0 1 -8.56 0.66 1.082 1.082 0 0 0 -1.52 0.4 1.096 1.096 0 0 0 0.38 1.52c5.88 3.22 12.68 -0.34 15.66 -6.16 2.86 -5.12 6 -14.26 0.14 -18.52a6.004 6.004 0 0 0 -8.16 1.16c-0.84 1.14 1.08 2.2 2 1.1l-0.06 0.06Z" stroke-width="1"></path><path fill="#a4deff" d="M242.32 180.46c-2.68 -13.48 4 -38.76 -7.44 -48.98 -5.78 -5.12 -15.44 -3.74 -21.12 1.36 -22.28 19.66 -8.32 56.62 7.3 75.48a110.826 110.826 0 0 0 42.52 31.24l7.4 -15a69.996 69.996 0 0 1 -28.66 -44.1Z" stroke-width="1"></path><path fill="#ffffff" d="M234.86 131.52c-5.78 -5.1 -15.44 -3.74 -21.12 1.38 -12.3 10.84 -13.54 26.98 -9.56 42.44 5.78 -14 24 -23.16 37.66 -15.6 0.16 -11.02 -0.22 -22.22 -6.98 -28.22Z" stroke-width="1"></path><path fill="#325a80" d="M271.5 223.68a66.716 66.716 0 0 1 -19.88 -21.68c-12.6 -20.5 -8.18 -35.14 -8.82 -49.84 -0.26 -7.18 -1.24 -15.42 -6.62 -20.76 -6.22 -6.3 -16.58 -5.02 -23.02 0.28 -19.22 16.44 -13.36 45.44 -0.32 67.2a105.496 105.496 0 0 0 50.22 41.74c1.3 0.52 1.88 -1.64 0.56 -2.2 -32 -13.86 -51.88 -37.7 -58.5 -62.68 5.58 -13.06 22.74 -21.78 35.54 -15.26 -0.28 10.54 -1.76 22.62 7.06 39.14a69.054 69.054 0 0 0 22.68 26c1.16 0.76 2.2 -1.14 1.1 -1.94ZM204.22 172a57.796 57.796 0 0 1 -1.14 -14.12c0.5 -11.6 7.74 -24.86 18.84 -28a13.26 13.26 0 0 1 12.08 2.48c6.64 5.52 6.78 16.56 6.66 25.44 -13.02 -5.8 -29.38 1.86 -36.44 14.2Z" stroke-width="1"></path><path fill="#325a80" d="M174.24 193.58c2.7 -0.76 6.62 -2.2 8.98 0a8 8 0 0 1 1.86 6.22 44.174 44.174 0 0 1 -1.48 8.42 328.164 328.164 0 0 1 -16.9 52.46c-0.44 1.04 1.16 1.82 1.86 1.08 13.84 -15 19.2 -34.46 36.24 -45.52 2.94 -1.84 6.82 -4 10.14 -1.88 2.76 1.8 4 5.28 5.36 8.2l12.28 28.18c0.54 1.22 2.2 0.26 2 -0.86a31.478 31.478 0 0 1 4.88 -22c0.8 -1.18 -1.12 -2.2 -1.9 -1.1a33.74 33.74 0 0 0 -5.1 23.8l2 -0.86 -11.52 -26.8a29.8 29.8 0 0 0 -5.32 -9.44 8.466 8.466 0 0 0 -9.44 -1.78 41.864 41.864 0 0 0 -15.8 12.3c-12.28 15.2 -12.44 21.02 -25.4 36l1.84 1.1a324.776 324.776 0 0 0 17.3 -54.28c0.74 -2.766 1.12 -5.616 1.12 -8.48A9.46 9.46 0 0 0 184.9 192a8.22 8.22 0 0 0 -8 -1.42 69.076 69.076 0 0 0 -22 9.34c-1.2 0.76 0 2.68 1.1 2a77.64 77.64 0 0 1 18.24 -8.34Z" stroke-width="1"></path><path fill="#f1f9ff" d="M101.16 173.2a9.72 9.72 0 1 0 0 -19.44 9.72 9.72 0 0 0 0 19.44Z" stroke-width="1"></path><path fill="#f1f9ff" d="M157.78 165.5a9.72 9.72 0 1 0 0 -19.44 9.72 9.72 0 0 0 0 19.44Z" stroke-width="1"></path><path fill="#325a80" d="M107.8 150a5.02 5.02 0 1 0 0 10.04 5.02 5.02 0 0 0 0 -10.04Z" stroke-width="1"></path><path fill="#325a80" d="M148.98 144.64a5.02 5.02 0 1 0 0 10.04 5.02 5.02 0 0 0 0 -10.04Z" stroke-width="1"></path><path fill="#f1f9ff" d="M283.46 170.92a8.88 8.88 0 1 0 0 -17.76 8.88 8.88 0 0 0 0 17.76Z" stroke-width="1"></path><path fill="#325a80" d="M279.8 157.34a4.58 4.58 0 1 0 0 -9.16 4.58 4.58 0 0 0 0 9.16Z" stroke-width="1"></path><path fill="#325a80" d="M120.7 165.2c2.2 4.54 7.86 5.18 12.28 4.4 4.42 -0.78 8 -3.4 8.4 -8 0.14 -1.44 -2 -1.42 -2.2 0 -0.34 3.6 -3.64 5.28 -6.86 5.86 -3.22 0.58 -8 0.22 -9.8 -3.38 -0.6 -1.26 -2.52 -0.14 -1.88 1.12h0.06Z" stroke-width="1"></path><path fill="#325a80" d="M72.1 198.58c-12.28 -9.1 -29.72 -13.4 -44.96 -8.28 -6.32 2.36 -14.56 8.72 -11.72 16.48s13.04 4.56 18.96 3.32c9.18 -2 19.4 -3 27.82 2a1.11 1.11 0 0 0 1.51 -0.39 1.104 1.104 0 0 0 -0.39 -1.51 33.872 33.872 0 0 0 -13.62 -4c2.22 -4.74 3.08 -10.7 0.7 -15.08a48.32 48.32 0 0 1 20.6 9.2c1.16 0.98 2.2 -0.94 1.1 -1.74Zm-41.66 10.18c-3.14 0.72 -6.8 1.7 -10 0.44 -3.66 -1.48 -4.22 -6 -2.46 -9.08a16.62 16.62 0 0 1 8.36 -7.14 38.5 38.5 0 0 1 20.58 -2.3c3.74 3.8 2.68 10.6 0 15.58a99.706 99.706 0 0 0 -16.48 2.5Z" stroke-width="1"></path></svg>