<svg xmlns="http://www.w3.org/2000/svg" xmlns:xlink="http://www.w3.org/1999/xlink" width="1587" zoomAndPan="magnify" viewBox="0 0 1190.25 1417.499958" height="1889" preserveAspectRatio="xMidYMid meet" version="1.0"><defs><clipPath id="a4c0528cf7"><path d="M 937 1077.660156 L 945.125 1077.660156 L 945.125 1085.789062 L 937 1085.789062 Z M 937 1077.660156 " clip-rule="nonzero"/></clipPath><clipPath id="27f7bdf27e"><path d="M 941.0625 1077.660156 C 938.820312 1077.660156 937 1079.480469 937 1081.726562 C 937 1083.96875 938.820312 1085.789062 941.0625 1085.789062 C 943.308594 1085.789062 945.125 1083.96875 945.125 1081.726562 C 945.125 1079.480469 943.308594 1077.660156 941.0625 1077.660156 Z M 941.0625 1077.660156 " clip-rule="nonzero"/></clipPath><clipPath id="d0fdb5a3e7"><path d="M 597.539062 860.167969 L 605.667969 860.167969 L 605.667969 868.296875 L 597.539062 868.296875 Z M 597.539062 860.167969 " clip-rule="nonzero"/></clipPath><clipPath id="d3337d76ed"><path d="M 601.605469 860.167969 C 599.359375 860.167969 597.539062 861.988281 597.539062 864.230469 C 597.539062 866.476562 599.359375 868.296875 601.605469 868.296875 C 603.847656 868.296875 605.667969 866.476562 605.667969 864.230469 C 605.667969 861.988281 603.847656 860.167969 601.605469 860.167969 Z M 601.605469 860.167969 " clip-rule="nonzero"/></clipPath></defs><path stroke-linecap="butt" transform="matrix(0.590575, 0.461533, -0.461533, 0.590575, 586.113086, 1208.677027)" fill="none" stroke-linejoin="miter" d="M 0.0024405 2.000121 L 32.882765 2.000856 " stroke="#000000" stroke-width="4" stroke-opacity="1" stroke-miterlimit="4"/><path stroke-linecap="butt" transform="matrix(0.625339, 0.413211, -0.413211, 0.625339, 946.779064, 354.486591)" fill="none" stroke-linejoin="miter" d="M 0.00128153 2.000773 L 32.882479 1.999291 " stroke="#000000" stroke-width="4" stroke-opacity="1" stroke-miterlimit="4"/><g clip-path="url(#a4c0528cf7)"><g clip-path="url(#27f7bdf27e)"><path fill="#000000" d="M 937 1077.660156 L 945.125 1077.660156 L 945.125 1085.789062 L 937 1085.789062 Z M 937 1077.660156 " fill-opacity="1" fill-rule="nonzero"/></g></g><path stroke-linecap="butt" transform="matrix(0.749004, 0.0280232, -0.0280232, 0.749004, 1054.633459, 706.61077)" fill="none" stroke-linejoin="miter" d="M 0.000979959 2.000762 L 21.613016 2.000537 " stroke="#000000" stroke-width="4" stroke-opacity="1" stroke-miterlimit="4"/><g clip-path="url(#d0fdb5a3e7)"><g clip-path="url(#d3337d76ed)"><path fill="#000000" d="M 597.539062 860.167969 L 605.667969 860.167969 L 605.667969 868.296875 L 597.539062 868.296875 Z M 597.539062 860.167969 " fill-opacity="1" fill-rule="nonzero"/></g></g><path stroke-linecap="butt" transform="matrix(0.485028, -0.571437, 0.571437, 0.485028, 275.821676, 215.827703)" fill="none" stroke-linejoin="miter" d="M 0.00115259 1.999537 L 32.882684 2.00088 " stroke="#000000" stroke-width="4" stroke-opacity="1" stroke-miterlimit="4"/><path fill="#3d9cfb" d="M 506.386719 567.285156 C 525.425781 550.625 521.523438 508.503906 487.089844 509.074219 C 445.347656 509.789062 443.039062 553.078125 475.761719 570.949219 C 449.894531 577.847656 429.640625 627.230469 483.066406 632.820312 C 549.507812 623.039062 549.769531 577.683594 506.386719 567.285156 Z M 506.386719 567.285156 " fill-opacity="1" fill-rule="nonzero"/><path fill="#001434" d="M 452.699219 775.058594 C 462.21875 771.0625 459.4375 761.996094 450.558594 769.871094 C 455.699219 757.042969 445.800781 757.972656 444.753906 769.585938 C 439.730469 760.066406 430.925781 763.828125 439.730469 772.273438 C 429.210938 768.917969 425.097656 777.035156 437.875 777.488281 C 425.121094 782.9375 431.59375 789.625 441.492188 781.722656 C 433.804688 793.621094 444.15625 794.335938 447.085938 783.03125 C 452.675781 794.644531 461.625 791.3125 452.203125 780.652344 C 463.480469 783.816406 467.144531 776.988281 452.699219 775.058594 Z M 452.699219 775.058594 " fill-opacity="1" fill-rule="nonzero"/><path fill="#001434" d="M 411.769531 771.109375 C 418.527344 761.804688 411.199219 755.734375 406.222656 769.230469 C 404.414062 759.042969 394.324219 759.351562 400.394531 769.964844 C 388.496094 761.707031 387.164062 771.800781 398.703125 775.558594 C 387.519531 778.152344 389.183594 787.457031 400.25 781.105469 C 394.277344 790.457031 401.703125 796.546875 405.152344 784.246094 C 407.722656 798.023438 416.148438 793.429688 410.414062 781.867188 C 420.8125 792.359375 424 782.484375 413.101562 776.75 C 426.714844 774.464844 425.214844 766.492188 411.769531 771.109375 Z M 411.769531 771.109375 " fill-opacity="1" fill-rule="nonzero"/><path fill="#001434" d="M 476.710938 679.347656 C 475.839844 678.828125 474.929688 678.394531 473.980469 678.042969 C 473.03125 677.695312 472.054688 677.433594 471.058594 677.257812 C 470.058594 677.085938 469.054688 677.003906 468.042969 677.015625 C 467.027344 677.027344 466.023438 677.128906 465.03125 677.324219 C 464.035156 677.515625 463.066406 677.796875 462.125 678.167969 C 461.183594 678.539062 460.28125 678.992188 459.421875 679.527344 C 458.558594 680.0625 457.753906 680.667969 457.007812 681.351562 C 456.257812 682.03125 455.574219 682.777344 454.960938 683.582031 C 450.488281 689.863281 451.390625 699.027344 455.507812 699.242188 C 457.078125 699.242188 457.890625 697.242188 457.484375 695.71875 C 455.105469 686.605469 464.625 679.058594 473.878906 683.820312 C 474.703125 684.371094 475.421875 685.035156 476.035156 685.808594 C 476.652344 686.585938 477.132812 687.433594 477.484375 688.359375 C 477.832031 689.285156 478.03125 690.242188 478.085938 691.230469 C 478.136719 692.21875 478.035156 693.191406 477.785156 694.148438 C 476.238281 699.382812 469.453125 701.621094 466.980469 696.8125 C 464.195312 691.507812 472.859375 694.148438 473.546875 691.222656 C 474.808594 685.792969 465.480469 686.792969 463.316406 689.792969 C 457.722656 695.859375 463.171875 705.191406 471.429688 705 C 483.851562 704.785156 487.824219 685.699219 476.710938 679.347656 Z M 476.710938 679.347656 " fill-opacity="1" fill-rule="nonzero"/><path fill="#001434" d="M 491.96875 771.65625 C 499.488281 761.707031 493.65625 755.523438 486.515625 769.609375 C 485.257812 759.898438 475.261719 759.6875 480.664062 770.015625 C 469.265625 761.613281 467.359375 771.085938 478.6875 775.203125 C 467.382812 777.105469 469.167969 784.839844 479.949219 780.53125 C 473.453125 789.101562 480.566406 795.214844 484.707031 783.746094 C 486.539062 796.90625 495.203125 792.980469 490.085938 781.699219 C 499.914062 792.144531 503.652344 782.984375 493.039062 776.9375 C 505.414062 775.058594 504.03125 766.824219 491.96875 771.65625 Z M 491.96875 771.65625 " fill-opacity="1" fill-rule="nonzero"/><path fill="#001434" d="M 446.464844 628.777344 C 526.972656 660.140625 579.730469 570.472656 547.867188 521.164062 C 530.136719 493.652344 492.0625 477.589844 457.554688 483.5625 C 387.1875 495.582031 371.597656 599.578125 446.464844 628.777344 Z M 424.761719 608 C 431.234375 583.964844 451.9375 572.945312 473.144531 572.566406 C 497.917969 572.113281 519.167969 584.464844 526.734375 611.238281 C 497.15625 637.296875 450.65625 632.273438 424.761719 608 Z M 460.578125 563.714844 C 440.613281 552.625 439.015625 531.136719 449.082031 518.5 C 449.824219 517.585938 450.613281 516.710938 451.445312 515.882812 C 452.28125 515.054688 453.160156 514.273438 454.078125 513.539062 C 455 512.808594 455.957031 512.125 456.949219 511.496094 C 457.945312 510.867188 458.96875 510.296875 460.027344 509.777344 C 461.082031 509.261719 462.164062 508.804688 463.269531 508.402344 C 464.378906 508.003906 465.503906 507.664062 466.644531 507.386719 C 467.789062 507.113281 468.945312 506.898438 470.109375 506.746094 C 471.277344 506.59375 472.449219 506.507812 473.625 506.484375 C 474.800781 506.460938 475.976562 506.5 477.148438 506.605469 C 478.316406 506.707031 479.480469 506.875 480.632812 507.105469 C 481.789062 507.335938 482.925781 507.628906 484.046875 507.984375 C 485.167969 508.339844 486.269531 508.753906 487.34375 509.226562 C 488.421875 509.703125 489.46875 510.234375 490.488281 510.820312 C 491.507812 511.410156 492.492188 512.050781 493.4375 512.746094 C 494.386719 513.441406 495.296875 514.1875 496.164062 514.980469 C 497.03125 515.777344 497.855469 516.613281 498.628906 517.5 C 508.148438 528.089844 504.4375 546.054688 498.34375 554.910156 C 497.832031 555.628906 497.289062 556.324219 496.714844 556.996094 C 496.140625 557.667969 495.535156 558.3125 494.902344 558.925781 C 494.269531 559.542969 493.609375 560.128906 492.921875 560.6875 C 492.238281 561.242188 491.527344 561.769531 490.792969 562.261719 C 490.058594 562.753906 489.304688 563.210938 488.53125 563.636719 C 487.753906 564.058594 486.960938 564.449219 486.152344 564.800781 C 485.339844 565.152344 484.515625 565.46875 483.679688 565.746094 C 482.839844 566.023438 481.988281 566.261719 481.128906 566.460938 C 480.269531 566.664062 479.398438 566.824219 478.523438 566.945312 C 477.648438 567.070312 476.769531 567.152344 475.886719 567.191406 C 475.003906 567.234375 474.121094 567.238281 473.238281 567.199219 C 472.355469 567.164062 471.476562 567.085938 470.601562 566.96875 C 469.726562 566.851562 468.855469 566.695312 467.996094 566.5 C 467.132812 566.304688 466.28125 566.070312 465.441406 565.796875 C 464.601562 565.523438 463.773438 565.210938 462.960938 564.863281 C 462.152344 564.515625 461.355469 564.132812 460.578125 563.714844 Z M 403.464844 549.125 C 411.125 499.414062 451.296875 482.207031 487.777344 489.15625 C 520.785156 495.460938 550.722656 521.996094 551.652344 553.410156 C 552.101562 569.734375 546.890625 587.773438 531.066406 606.097656 C 526.304688 591.960938 515.621094 573.683594 491.632812 568.304688 C 520.953125 552.578125 515.359375 499.890625 473.714844 501.101562 C 433.257812 502.292969 424.90625 550.292969 458.054688 568.855469 C 439.730469 573.304688 427.261719 584.679688 420.265625 603.433594 C 418.578125 601.648438 417 599.769531 415.53125 597.804688 C 414.058594 595.839844 412.703125 593.796875 411.46875 591.675781 C 410.230469 589.554688 409.121094 587.371094 408.132812 585.121094 C 407.148438 582.871094 406.292969 580.574219 405.570312 578.230469 C 404.847656 575.882812 404.261719 573.503906 403.8125 571.089844 C 403.359375 568.675781 403.050781 566.242188 402.878906 563.792969 C 402.707031 561.34375 402.675781 558.894531 402.785156 556.441406 C 402.898438 553.988281 403.144531 551.550781 403.535156 549.125 Z M 403.464844 549.125 " fill-opacity="1" fill-rule="nonzero"/><path fill="#001434" d="M 408.222656 700.238281 C 403.320312 704.144531 401.964844 698.90625 405.390625 692.457031 C 408.34375 686.769531 406.960938 682.9375 403.726562 680.703125 C 398.609375 677.226562 387.804688 683.558594 392.207031 687.839844 C 392.519531 688.070312 392.863281 688.222656 393.238281 688.304688 C 393.613281 688.386719 393.992188 688.386719 394.367188 688.304688 C 394.746094 688.226562 395.089844 688.074219 395.402344 687.847656 C 395.714844 687.621094 395.964844 687.34375 396.15625 687.007812 C 398.203125 683.84375 402.464844 685.4375 400.417969 689.648438 C 395.515625 698.242188 397.847656 703.929688 401.347656 706.164062 C 401.71875 706.433594 402.113281 706.664062 402.53125 706.859375 C 402.945312 707.054688 403.375 707.207031 403.820312 707.324219 C 404.265625 707.441406 404.714844 707.515625 405.175781 707.550781 C 405.632812 707.585938 406.089844 707.578125 406.546875 707.53125 C 407.003906 707.480469 407.453125 707.390625 407.890625 707.261719 C 408.332031 707.128906 408.757812 706.960938 409.167969 706.753906 C 409.578125 706.542969 409.964844 706.300781 410.328125 706.023438 C 410.695312 705.742188 411.03125 705.433594 411.339844 705.09375 C 413.863281 701.859375 412.363281 696.957031 408.222656 700.238281 Z M 408.222656 700.238281 " fill-opacity="1" fill-rule="nonzero"/><path fill="#001434" d="M 792.578125 782.554688 C 800.476562 751.929688 802.429688 720.683594 788.960938 701.644531 C 781.820312 691.195312 770.992188 685.722656 758.023438 684.390625 C 757.5 671.183594 755.644531 663.164062 740.078125 661.023438 C 733.605469 629.085938 719.375 609.714844 694.53125 600.71875 C 701.859375 598.957031 728.203125 600.078125 724.777344 586.273438 C 757.546875 579.132812 734.296875 549.269531 703.8125 569.828125 C 699.910156 549.554688 682.871094 565.332031 672.375 573.089844 C 683.65625 559.289062 678.371094 541.890625 661.359375 550.648438 C 662.191406 528.777344 635.988281 537.964844 635.917969 556.90625 C 628.039062 553.125 620.070312 557.289062 624.019531 578.324219 C 619.6875 573.257812 613.523438 568.140625 607.574219 567.808594 C 596.582031 541.820312 567.121094 554.148438 583.492188 573.160156 C 581.875 577.777344 583.230469 580.777344 591.628906 588.867188 C 571.617188 585.917969 576.28125 597.457031 576.28125 597.457031 C 550.769531 602.671875 553.792969 627.515625 587.964844 618.449219 C 577.710938 629.777344 571.949219 644.886719 571.308594 663.355469 C 567.730469 664.277344 564.652344 666.0625 562.074219 668.707031 C 506.792969 668.328125 444.0625 664.875 401.726562 669.253906 C 358.890625 673.421875 365.292969 720.824219 403.105469 721.609375 C 437.257812 721.277344 481.402344 722.277344 517.785156 722.347656 C 509.671875 730.488281 505.578125 737.695312 504.984375 750.144531 C 452.820312 749.238281 439.96875 749.738281 401.632812 751 C 363.292969 752.261719 361.175781 801.925781 399.039062 804.402344 C 437.113281 805.828125 475.191406 803.925781 513.265625 803.808594 C 517.8125 822.082031 524.996094 841.574219 539.585938 850.449219 C 536.515625 882.648438 525.308594 890.167969 535.375 896.710938 C 528.996094 898.78125 521.976562 900.140625 512.789062 909.492188 C 504.175781 918.273438 511.265625 931.3125 519.644531 931.648438 C 536.515625 932.359375 647.960938 940.476562 653.101562 926.292969 C 655.027344 931.289062 658.214844 932.527344 662.929688 932.457031 C 667.640625 932.382812 735.796875 932.003906 735.796875 932.003906 C 735.796875 932.003906 780.105469 929.957031 781.964844 920.9375 C 784.558594 908.347656 775.679688 902.78125 758.476562 894.761719 C 768.398438 884.171875 751.835938 876.9375 747.386719 831.769531 C 774.441406 824.820312 785.652344 809.375 792.578125 782.554688 Z M 399.226562 798.570312 C 368.648438 796.476562 370.71875 757.210938 401.796875 756.617188 C 440.039062 755.355469 452.75 754.925781 504.816406 755.734375 C 505.28125 770.101562 507.523438 784.179688 511.550781 797.976562 C 473.546875 798.167969 435.660156 799.976562 399.226562 798.570312 Z M 641.960938 587.867188 C 657.527344 586.367188 665.402344 590.746094 672.160156 595.601562 C 654.003906 590.296875 629.183594 594.699219 611.761719 601.8125 C 614.738281 595.4375 627.566406 589.273438 641.890625 587.867188 Z M 564.738281 674.394531 C 566.097656 670.707031 570.308594 669.183594 574.542969 668.519531 C 574.875 668.460938 575.183594 668.351562 575.476562 668.1875 C 575.765625 668.023438 576.023438 667.8125 576.238281 667.558594 C 576.457031 667.304688 576.625 667.019531 576.742188 666.707031 C 576.859375 666.390625 576.921875 666.066406 576.925781 665.734375 C 576.925781 660.449219 577.488281 655.222656 578.617188 650.058594 C 579.742188 644.894531 581.410156 639.910156 583.609375 635.105469 C 584.707031 634.960938 585.773438 634.691406 586.808594 634.300781 C 587.84375 633.90625 588.820312 633.402344 589.734375 632.78125 C 590.652344 632.164062 591.484375 631.445312 592.234375 630.632812 C 592.988281 629.820312 593.632812 628.929688 594.175781 627.96875 C 603.695312 633.105469 616.808594 625.992188 615.59375 615.832031 C 620.519531 621.351562 629.253906 618.542969 631.824219 614.617188 C 631.832031 614.980469 631.875 615.335938 631.957031 615.691406 C 632.035156 616.042969 632.152344 616.382812 632.300781 616.714844 C 632.449219 617.042969 632.632812 617.355469 632.847656 617.648438 C 633.0625 617.941406 633.300781 618.207031 633.570312 618.449219 C 633.839844 618.695312 634.128906 618.90625 634.441406 619.089844 C 634.753906 619.273438 635.082031 619.425781 635.425781 619.539062 C 635.769531 619.65625 636.121094 619.738281 636.480469 619.78125 C 636.839844 619.824219 637.199219 619.832031 637.558594 619.804688 C 634.703125 630.847656 644.34375 641.007812 657.976562 633.605469 C 675.492188 636.273438 675.96875 620.660156 673.351562 616.019531 C 676.96875 617.117188 681.65625 616.019531 682.679688 612.140625 C 685.058594 616.902344 689.820312 621.828125 701.3125 619.28125 C 701.449219 620.019531 701.652344 620.734375 701.929688 621.433594 C 702.207031 622.128906 702.546875 622.792969 702.957031 623.421875 C 703.363281 624.050781 703.828125 624.632812 704.351562 625.171875 C 704.875 625.707031 705.445312 626.1875 706.066406 626.609375 C 706.683594 627.035156 707.335938 627.394531 708.027344 627.6875 C 708.714844 627.980469 709.429688 628.207031 710.164062 628.359375 C 710.894531 628.511719 711.636719 628.589844 712.386719 628.597656 C 713.136719 628.605469 713.878906 628.535156 714.617188 628.394531 C 714.617188 632.726562 721.96875 639.460938 726.707031 641.128906 C 729.65625 642.148438 733.84375 657.40625 734.964844 664.589844 C 736.34375 673.132812 751.621094 658.855469 752.3125 684.128906 C 750.90625 684.195312 749.507812 684.320312 748.113281 684.511719 C 746.71875 684.703125 745.335938 684.957031 743.964844 685.273438 C 742.59375 685.585938 741.242188 685.964844 739.902344 686.402344 C 738.566406 686.835938 737.253906 687.332031 735.960938 687.890625 C 734.667969 688.445312 733.402344 689.058594 732.164062 689.726562 C 730.929688 690.394531 729.722656 691.121094 728.550781 691.898438 C 727.378906 692.675781 726.246094 693.503906 725.148438 694.382812 C 724.050781 695.265625 722.992188 696.191406 721.980469 697.167969 C 720.964844 698.140625 719.996094 699.160156 719.074219 700.222656 C 718.152344 701.285156 717.28125 702.386719 716.457031 703.527344 C 715.632812 704.667969 714.863281 705.84375 714.144531 707.054688 C 713.429688 708.261719 712.765625 709.503906 712.160156 710.773438 C 711.554688 712.042969 711.007812 713.335938 710.519531 714.65625 C 710.03125 715.972656 709.601562 717.3125 709.230469 718.671875 C 708.863281 720.027344 708.554688 721.398438 708.308594 722.785156 C 708.066406 724.167969 707.882812 725.5625 707.761719 726.964844 C 695.53125 722.824219 685.988281 726.964844 684.820312 747.289062 C 655.980469 747.691406 620.1875 744.195312 594.605469 730.414062 C 571.523438 717.945312 556.648438 696.527344 564.738281 674.394531 Z M 689.914062 790.335938 C 695.269531 816.0625 707.121094 825.460938 731.179688 825.84375 C 732.773438 825.84375 733.558594 827.007812 732.84375 828.414062 C 731.085938 831.816406 707.570312 830.53125 695.601562 816.515625 C 690.105469 810.089844 685.941406 797.855469 685.511719 790.003906 C 685.296875 787.886719 688.84375 785.554688 689.914062 790.335938 Z M 646.152344 750.882812 C 654.082031 751.816406 662.453125 752.445312 671.257812 752.761719 L 649.457031 791.289062 C 649.457031 791.289062 640.273438 776.082031 640.703125 771.964844 C 644.699219 764.539062 656.765625 763.160156 646.054688 750.882812 Z M 586.65625 767.539062 C 582.515625 768.253906 580.46875 751.453125 578.234375 741.171875 C 578.109375 740.816406 578.054688 740.453125 578.0625 740.082031 C 578.074219 739.707031 578.152344 739.347656 578.300781 739 C 578.445312 738.65625 578.644531 738.347656 578.90625 738.078125 C 579.164062 737.808594 579.464844 737.59375 579.804688 737.433594 C 584.015625 735.9375 585.324219 742.195312 586.300781 748.8125 C 586.941406 753.640625 590.632812 766.777344 586.539062 767.445312 Z M 403.035156 715.78125 C 372.3125 715.160156 366.957031 678.25 402.25 674.96875 C 442.824219 670.707031 504.578125 673.945312 558.195312 674.371094 C 554.984375 680.773438 555.171875 690.363281 557.625 698.167969 C 545.574219 702.769531 534.40625 708.957031 524.117188 716.730469 C 506.671875 716.328125 422.90625 715.566406 403.035156 715.78125 Z M 522.023438 813.113281 C 534.5625 797.429688 598.675781 766.230469 608.597656 782.175781 C 610.976562 786.007812 610.789062 795.667969 601.839844 803.832031 C 605.242188 812.375 607.835938 828.292969 601.554688 836.863281 C 596.226562 833.699219 591.585938 829.734375 587.632812 824.960938 C 587.417969 824.714844 587.164062 824.515625 586.867188 824.367188 C 586.574219 824.21875 586.261719 824.132812 585.933594 824.109375 C 585.605469 824.082031 585.285156 824.121094 584.972656 824.222656 C 584.660156 824.324219 584.378906 824.484375 584.125 824.695312 C 583.875 824.910156 583.675781 825.160156 583.523438 825.453125 C 583.375 825.746094 583.285156 826.058594 583.253906 826.386719 C 583.226562 826.714844 583.261719 827.035156 583.359375 827.347656 C 583.460938 827.664062 583.613281 827.945312 583.824219 828.199219 C 587.621094 833.65625 592.378906 838.074219 598.105469 841.453125 C 595.570312 844.015625 592.726562 846.167969 589.574219 847.910156 C 586.417969 849.652344 583.082031 850.910156 579.566406 851.6875 C 575.285156 848.113281 571.40625 844.148438 567.929688 839.789062 C 565.546875 837.003906 562.980469 840.835938 564.929688 844.023438 C 567.054688 847.292969 569.503906 850.289062 572.285156 853.019531 C 546.4375 855.496094 528.613281 838.835938 521.902344 813.136719 Z M 613.121094 914.65625 C 613.050781 914.835938 612.960938 915.007812 612.855469 915.171875 C 612.746094 915.332031 612.621094 915.480469 612.480469 915.613281 C 612.339844 915.746094 612.183594 915.863281 612.019531 915.960938 C 611.851562 916.0625 611.675781 916.140625 611.488281 916.199219 C 611.304688 916.257812 611.113281 916.296875 610.921875 916.3125 C 610.726562 916.332031 610.535156 916.328125 610.34375 916.300781 C 610.148438 916.273438 609.960938 916.226562 609.78125 916.15625 C 609.597656 916.089844 609.425781 916 609.265625 915.894531 C 600.863281 909.039062 589.75 902.804688 556.503906 901.613281 C 552.816406 901.613281 551.746094 897.332031 555.363281 897.210938 C 587.988281 896.164062 614.738281 908.96875 613 914.65625 Z M 613.90625 780.082031 C 613.375 778.859375 612.652344 777.773438 611.730469 776.8125 C 610.808594 775.855469 609.75 775.089844 608.550781 774.511719 C 606.171875 762.613281 604.742188 754.355469 602.980469 741.027344 C 609.203125 743.332031 615.550781 745.222656 622.019531 746.691406 C 609.480469 758.925781 619.902344 760.972656 622.804688 769.585938 C 621.996094 771.871094 616.832031 777.128906 613.761719 780.082031 Z M 654.359375 909.46875 C 651.316406 909.945312 650.910156 898.378906 644.582031 880.246094 C 641.914062 872.605469 640.652344 869.488281 643.390625 868.34375 C 646.128906 867.203125 647.886719 874.105469 652.457031 891.023438 C 656.097656 904.96875 657.574219 908.945312 654.21875 909.46875 Z M 656.242188 847.59375 C 651.71875 847.214844 628.039062 847.925781 629.183594 843.046875 C 629.515625 841.597656 628.613281 840.453125 647.363281 841.8125 C 666.117188 843.167969 701.074219 842.523438 709.976562 840.480469 C 716.140625 839.074219 718.351562 843.359375 715.117188 844.332031 C 703.742188 847.6875 663.546875 848.09375 656.097656 847.5 Z M 733.75 897.09375 C 713.570312 897.902344 696.625 904.445312 682.824219 910.441406 C 680.730469 911.347656 679.679688 909.632812 680.441406 908.230469 C 682.371094 904.753906 694.339844 900.089844 706.8125 896.640625 C 724.375 891.882812 738.058594 892.761719 738.792969 894.476562 C 739.105469 895.425781 737.9375 896.832031 733.605469 896.996094 Z M 691.058594 754.308594 C 688.011719 733.722656 699.578125 726.894531 707.5 733.699219 C 709.070312 735.03125 708.382812 751.40625 712.261719 751.09375 C 712.648438 751.050781 713.015625 750.929688 713.351562 750.730469 C 713.691406 750.53125 713.972656 750.269531 714.199219 749.949219 C 714.425781 749.628906 714.578125 749.277344 714.65625 748.890625 C 714.730469 748.507812 714.726562 748.121094 714.640625 747.738281 C 709.570312 721.847656 718.972656 698.167969 742.910156 691.246094 C 742.433594 692.007812 736.628906 719.46875 742.507812 719.800781 C 747.265625 720.132812 744.695312 710.640625 749.265625 689.984375 C 751.339844 689.570312 753.433594 689.363281 755.550781 689.363281 C 757.664062 689.359375 759.761719 689.5625 761.835938 689.972656 C 763.914062 690.378906 765.929688 690.984375 767.886719 691.789062 C 769.84375 692.589844 771.703125 693.574219 773.46875 694.742188 C 770.707031 703.917969 768.835938 713.269531 767.851562 722.800781 C 767.398438 726.488281 771.324219 729.488281 772.015625 725.820312 C 773.675781 716.488281 775.804688 707.265625 778.394531 698.144531 C 797.144531 709.710938 796.671875 747.289062 787.53125 780.03125 C 777.324219 815.824219 700.648438 819.65625 690.914062 754.261719 Z M 691.058594 754.308594 " fill-opacity="1" fill-rule="nonzero"/><path fill="#001434" d="M 593.320312 689.699219 C 615.761719 700.238281 649.171875 684.511719 626.636719 660.238281 C 590.582031 629.394531 565.214844 674.085938 593.320312 689.699219 Z M 595.890625 656.070312 C 601.339844 654.121094 607.097656 656.070312 613.121094 658.664062 C 605.980469 666.875 603.171875 677.894531 602.195312 686.484375 C 584.015625 685.867188 583.609375 660.355469 595.890625 656.070312 Z M 595.890625 656.070312 " fill-opacity="1" fill-rule="nonzero"/><path fill="#001434" d="M 531.921875 701.453125 C 531.707031 705.140625 537.632812 705.761719 537.609375 702.023438 C 537.609375 696.003906 539.753906 679.632812 533.898438 680.273438 C 528.851562 680.796875 532.113281 697.980469 531.921875 701.453125 Z M 531.921875 701.453125 " fill-opacity="1" fill-rule="nonzero"/><path fill="#001434" d="M 665.617188 658.453125 C 670.210938 656.59375 677.800781 650.171875 681.539062 647.433594 C 684.535156 645.21875 681.964844 640.554688 678.753906 642.4375 C 672.476562 645.386719 667.089844 649.503906 662.59375 654.785156 C 660.929688 656.738281 663.308594 659.402344 665.617188 658.453125 Z M 665.617188 658.453125 " fill-opacity="1" fill-rule="nonzero"/><path fill="#001434" d="M 652.527344 694.789062 C 658.214844 694.980469 664.808594 695.125 665.261719 692.410156 C 665.710938 689.699219 663 689.386719 655.742188 689.125 C 644.175781 688.722656 644.222656 688.554688 644.007812 685.582031 C 644.152344 682.792969 644.460938 680.023438 644.9375 677.277344 C 644.949219 676.917969 644.898438 676.566406 644.78125 676.226562 C 644.664062 675.886719 644.492188 675.582031 644.257812 675.304688 C 644.027344 675.03125 643.753906 674.808594 643.4375 674.636719 C 643.121094 674.464844 642.785156 674.355469 642.429688 674.308594 C 642.074219 674.265625 641.722656 674.285156 641.371094 674.371094 C 641.023438 674.457031 640.703125 674.601562 640.40625 674.808594 C 640.113281 675.011719 639.867188 675.265625 639.667969 675.5625 C 639.46875 675.863281 639.328125 676.1875 639.25 676.539062 C 636.988281 689.386719 635.824219 694.148438 652.527344 694.789062 Z M 652.527344 694.789062 " fill-opacity="1" fill-rule="nonzero"/><path fill="#001434" d="M 515.789062 693.980469 C 513.410156 694.601562 513.671875 691.195312 512.835938 689.222656 C 507.769531 668.804688 487.96875 677.324219 494.273438 703.691406 C 494.371094 704.039062 494.527344 704.355469 494.742188 704.640625 C 494.960938 704.929688 495.21875 705.167969 495.523438 705.359375 C 495.832031 705.550781 496.160156 705.679688 496.511719 705.746094 C 496.867188 705.8125 497.21875 705.8125 497.574219 705.746094 C 497.929688 705.683594 498.257812 705.554688 498.5625 705.363281 C 498.871094 705.175781 499.132812 704.9375 499.347656 704.648438 C 499.5625 704.363281 499.722656 704.046875 499.820312 703.699219 C 499.917969 703.355469 499.949219 703 499.914062 702.644531 C 498.273438 690.746094 498.726562 682.390625 503.769531 683.820312 C 508.816406 685.246094 507.195312 696.671875 512.3125 699.289062 C 518 702.285156 523.785156 691.769531 515.789062 693.980469 Z M 515.789062 693.980469 " fill-opacity="1" fill-rule="nonzero"/><path fill="#001434" d="M 619.117188 647.671875 C 623.734375 651.480469 632.777344 661.257812 636.394531 660.734375 C 644.367188 659.546875 627.019531 645.816406 622.117188 642.792969 C 618.972656 640.839844 616.140625 645.292969 619.117188 647.671875 Z M 619.117188 647.671875 " fill-opacity="1" fill-rule="nonzero"/><path fill="#001434" d="M 657.242188 704.191406 C 653.195312 701.8125 628.421875 699.574219 627.566406 705.191406 C 626.707031 710.804688 647.363281 707.949219 656.121094 709.6875 C 658.976562 710.257812 661.121094 706.5 657.242188 704.191406 Z M 657.242188 704.191406 " fill-opacity="1" fill-rule="nonzero"/><path fill="#001434" d="M 442.0625 697.433594 C 433.496094 706.378906 425.121094 697.695312 428.738281 683.84375 C 429.164062 682.320312 428.308594 680.320312 426.714844 680.320312 C 419.789062 680.320312 418.574219 702.644531 429.5 706.714844 C 430.234375 706.960938 430.988281 707.152344 431.753906 707.289062 C 432.519531 707.425781 433.289062 707.503906 434.066406 707.523438 C 434.84375 707.542969 435.621094 707.503906 436.390625 707.40625 C 437.164062 707.308594 437.921875 707.15625 438.671875 706.945312 C 439.417969 706.734375 440.148438 706.46875 440.855469 706.148438 C 441.566406 705.824219 442.246094 705.453125 442.898438 705.03125 C 443.550781 704.609375 444.167969 704.136719 444.75 703.621094 C 445.332031 703.105469 445.871094 702.550781 446.371094 701.953125 C 449.011719 698.765625 445.371094 693.957031 442.0625 697.433594 Z M 442.0625 697.433594 " fill-opacity="1" fill-rule="nonzero"/><path fill="#001434" d="M 669.496094 663.019531 C 657.597656 682.511719 678.347656 704.878906 708.644531 689.769531 C 727.539062 680.25 721.683594 652.3125 704.191406 650.171875 C 694.863281 648.933594 674.207031 655.308594 669.496094 663.019531 Z M 702.003906 655.882812 C 720.019531 657.453125 719.804688 684.960938 698.242188 688.414062 C 697.316406 678.894531 694.007812 666.851562 687.320312 658.617188 C 691.988281 656.507812 696.882812 655.554688 702.003906 655.761719 Z M 702.003906 655.882812 " fill-opacity="1" fill-rule="nonzero"/><path stroke-linecap="butt" transform="matrix(0.590575, 0.461533, -0.461533, 0.590575, 169.237919, 996.18593)" fill="none" stroke-linejoin="miter" d="M 0.00171956 1.998836 L 32.882044 1.999572 " stroke="#000000" stroke-width="4" stroke-opacity="1" stroke-miterlimit="4"/><path stroke-linecap="butt" transform="matrix(0.485028, -0.571437, 0.571437, 0.485028, 356.939339, 631.040415)" fill="none" stroke-linejoin="miter" d="M -0.00142592 2.000894 L 32.884079 1.998864 " stroke="#000000" stroke-width="4" stroke-opacity="1" stroke-miterlimit="4"/></svg>