<svg xmlns="http://www.w3.org/2000/svg" fill="none" viewBox="0 0 400 400" id="People--Streamline-Seoul.svg" height="400" width="400"><desc>People Streamline Illustration: https://streamlinehq.com</desc><path fill="#ffffff" d="M247.88 222.3a73.134 73.134 0 0 0 -21.46 5.44c-2.8 1.2 -6 3.5 -5.36 6.46 0.64 2.96 4 3.86 4.8 6.48 0.26 1.452 0.056 2.95 -0.58 4.28 -0.94 2.68 -2.82 6 -5.64 5.42 -1.84 -0.28 -3.18 -2.24 -5.04 -2.24a3.808 3.808 0 0 0 -3.62 2.96 9.784 9.784 0 0 0 0.32 5.04 57.14 57.14 0 0 0 11.86 22.76l24.72 -56.6Z" stroke-width="1"></path><path fill="#325a80" d="M226.14 226.68a10.17 10.17 0 0 0 -6 5.16 5.812 5.812 0 0 0 2.26 6.32c0.984 0.724 1.756 1.698 2.24 2.82a8.356 8.356 0 0 1 -1.2 5.22c-0.6 1.14 -1.48 2.7 -2.84 3.06 -1.36 0.36 -2.66 -0.92 -3.84 -1.58a4.524 4.524 0 0 0 -6.24 1.3c-2.1 3.2 -0.48 7.12 0.5 10.58a58.498 58.498 0 0 0 11.26 20c0.94 1.12 2.52 -0.48 1.6 -1.56a56.026 56.026 0 0 1 -11.34 -21.3 9.58 9.58 0 0 1 -0.48 -5.6 2.39 2.39 0 0 1 1.06 -1.484 2.392 2.392 0 0 1 1.8 -0.296c0.64 0.16 1.2 0.8 3.8 2a5.22 5.22 0 0 0 5.8 -2.52 12.212 12.212 0 0 0 2.48 -7.82c-0.36 -2.46 -2.46 -3.7 -4 -5.44 -5.7 -6.42 16.2 -11.28 24.8 -12.18 1.4 -0.14 1.44 -2.4 0 -2.26a76.302 76.302 0 0 0 -21.66 5.58Z" stroke-width="1"></path><path fill="#a4deff" d="M284 213.14c-15.78 -0.68 -32.12 2.96 -44.88 12.28 -12.76 9.32 -21.48 24.78 -20.54 40.58 0.84 14.28 9.02 27.04 18 38.3L284 213.14Z" stroke-width="1"></path><path fill="#325a80" d="M284 212c-29.78 -0.6 -56.42 12.54 -64.68 39.2 -6 20.24 3.32 37.24 16.5 53.76 0.92 1.14 2.5 -0.46 1.6 -1.6 -11 -13.78 -20.92 -30.56 -16.64 -48.88 5.34 -22.8 29 -42 63.24 -40.24a1.15 1.15 0 0 0 0.79 -0.334 1.134 1.134 0 0 0 0.23 -1.224 1.06 1.06 0 0 0 -0.246 -0.36A1.096 1.096 0 0 0 284 212Z" stroke-width="1"></path><path fill="#ffffff" d="M182.2 258a72.27 72.27 0 0 0 4.98 -21.58c0.24 -3.04 -0.34 -6.96 -3.3 -7.72 -2.96 -0.76 -5.26 1.84 -8 1.3a6.912 6.912 0 0 1 -3.52 -2.48c-2 -2 -4 -5.2 -2.26 -7.48 1.12 -1.5 3.46 -1.8 4.5 -3.4a3.836 3.836 0 0 0 -0.98 -4.5 10.024 10.024 0 0 0 -4.5 -2 56.84 56.84 0 0 0 -25.68 0.12L182.2 258Z" stroke-width="1"></path><path fill="#325a80" d="M183.28 258.2a75.248 75.248 0 0 0 5 -21.34 11.502 11.502 0 0 0 -1.2 -7.14 5.298 5.298 0 0 0 -6.28 -2 14.374 14.374 0 0 1 -4 1.14c-1.74 0 -3.08 -1.64 -4.12 -2.88a6.68 6.68 0 0 1 -2 -4.18c0 -1.74 2 -2.26 3.18 -3.02a4.516 4.516 0 0 0 1.7 -6.14c-1.68 -2.96 -4.96 -3.58 -8.34 -4.22a58.344 58.344 0 0 0 -24.18 0.58c-1.4 0.32 -0.8 2.5 0.6 2.24 8.36 -1.974 17.06 -1.974 25.42 0 1.64 0.2 3.146 1.006 4.22 2.26 2 3.1 -2.54 3.88 -4 5.7a5.72 5.72 0 0 0 0.4 6.76 10.712 10.712 0 0 0 6 5.14c3.66 0.42 4 -1.56 7.74 -1.36 2.26 0.58 2.54 3.7 2.52 5.62a63.774 63.774 0 0 1 -4.98 22.28c-0.48 1.3 1.64 2 2.32 0.56Z" stroke-width="1"></path><path fill="#ffffff" d="M132.96 349.12c-2.44 3.84 1.18 9.3 5.66 10 9.62 1.46 21.04 -13.14 16.6 -24.4l-22.26 14.4Z" stroke-width="1"></path><path fill="#325a80" d="M132.62 356.56a9.024 9.024 0 0 0 8.16 3.7c7.3 -0.64 13.06 -7.52 15.34 -14a17.56 17.56 0 0 0 0 -11.88c-0.5 -1.34 -2.68 -0.76 -2.24 0.62 4.7 12.5 -9.54 26.66 -17.3 22.32 -2.58 -1.42 -4.5 -4.8 -2.92 -7.62a1.15 1.15 0 1 0 -2 -1.14 7.88 7.88 0 0 0 0.96 8Z" stroke-width="1"></path><path fill="#ffffff" d="M56 216.2a6.51 6.51 0 0 1 -4.78 -1.404 6.506 6.506 0 0 1 -2.38 -4.376 9.84 9.84 0 0 1 4.92 -9 22.366 22.366 0 0 1 10 -2.86c6.76 -0.58 14.58 0.62 17.72 6.54L56 216.2Z" stroke-width="1"></path><path fill="#325a80" d="M55.62 215.12c-4.3 0.44 -7.06 -4.48 -5.14 -8.42 1.92 -3.94 6.14 -5.88 10.26 -6.64 6.56 -1.16 16 -1.08 19.78 5.6 0.7 1.28 2.64 0.14 2 -1.14 -3.58 -6.4 -11.64 -7.62 -18.3 -7a22.28 22.28 0 0 0 -12 3.78 10.6 10.6 0 0 0 -4.36 9.7 7.606 7.606 0 0 0 8.62 6.28c1.42 -0.22 0.82 -2.4 -0.6 -2.26l-0.26 0.1Z" stroke-width="1"></path><path fill="#ffffff" d="M179.62 187.56a71.544 71.544 0 0 0 15.24 16c2.44 1.88 6 3.56 8.26 1.52s1.36 -5.44 3.3 -7.36a7.34 7.34 0 0 1 4 -1.6c2.8 -0.46 6.54 -0.42 7.52 2.26 0.62 1.76 -0.42 3.86 0.4 5.56a3.834 3.834 0 0 0 4.38 1.7 10.108 10.108 0 0 0 4.2 -2.72 56.962 56.962 0 0 0 14 -21.5l-61.3 6.14Z" stroke-width="1"></path><path fill="#325a80" d="M178.64 188.12a80 80 0 0 0 14.84 15.88c2.26 1.74 5 3.6 8 3.14 3 -0.46 4 -3.14 4.5 -5.7A4.508 4.508 0 0 1 208 198a11.34 11.34 0 0 1 4.88 -0.92 5.3 5.3 0 0 1 3.34 0.84c1.36 1.16 0.56 3.32 0.66 4.84a4.496 4.496 0 0 0 4.78 4.22c3.58 -0.22 6 -2.94 8.34 -5.56a59.44 59.44 0 0 0 12 -19.6c0.5 -1.36 -1.68 -2 -2.24 -0.6A56.68 56.68 0 0 1 230 198c-1.04 1.2 -2 2.26 -3.2 3.44a11.134 11.134 0 0 1 -4 2.98 2.76 2.76 0 0 1 -3.58 -1.16c-0.54 -1.48 0.24 -3.24 -0.14 -4.76 -1.2 -4.88 -8.84 -4.3 -12.24 -2.5 -2.6 1.4 -2.7 4 -3.56 6.6 -1.16 3.4 -4.5 2.26 -6.9 0.72a67.856 67.856 0 0 1 -15.84 -16.46c-0.8 -1.08 -2.86 -0.06 -1.9 1.26Z" stroke-width="1"></path><path fill="#f1f9ff" d="M153.88 160.5c7.14 14 18.28 26.56 32.68 33.1 14.4 6.54 32.14 6.52 45.44 -2 12 -7.74 19.1 -21.12 24.46 -34.38l-102.58 3.28Z" stroke-width="1"></path><path fill="#325a80" d="M191.74 196.82c18 6 37.8 1.82 50.4 -12.5a91.008 91.008 0 0 0 15.4 -26.82c0.54 -1.32 -1.64 -2 -2.24 -0.58 -6.54 16.14 -16.12 32.8 -33.8 38.3C198.84 202.2 170.14 190.82 154.8 160c-0.66 -1.28 -2.6 -0.16 -2 1.16 1.2 1.52 12.82 27.2 38.94 35.66Z" stroke-width="1"></path><path fill="#ffffff" d="M130.6 96.12c-1.88 -4.14 -8.3 -4.14 -11.34 -0.78 -6.46 7.12 -0.74 24.76 11.34 27.3V96.12Z" stroke-width="1"></path><path fill="#325a80" d="M124.58 91.82a9.02 9.02 0 0 0 -7.52 4.5c-3.7 6.38 -1.04 15.26 3.2 20.72a17.56 17.56 0 0 0 9.88 6.62 1.166 1.166 0 0 0 0.58 -2.26c-12.84 -2.9 -17.06 -22.66 -8.94 -26.76a5.8 5.8 0 0 1 8 1.88c0.62 1.32 2.56 0.16 2 -1.14a7.78 7.78 0 0 0 -7.2 -3.56Z" stroke-width="1"></path><path fill="#ffffff" d="M284 105.14a6.542 6.542 0 0 1 3.814 -3.24 6.52 6.52 0 0 1 4.986 0.42 10.006 10.006 0 0 1 4.72 9.12 22.686 22.686 0 0 1 -3.16 10c-3.18 6 -8.56 11.84 -15.22 11.28L284 105.14Z" stroke-width="1"></path><path fill="#325a80" d="M292.36 103.42c4.16 2.2 4.72 7.74 3.34 12.38 -2.26 6.86 -8.18 16.28 -16.48 15.76 -1.44 0 -1.44 2.14 0 2.26 8 0.6 13.7 -6.76 16.88 -13.06 4 -6.88 3.76 -17.02 -4.16 -19.82a7.56 7.56 0 0 0 -9.02 3.72c-0.58 1.34 1.36 2.48 2 1.16 0.14 -0.16 2.7 -4.92 7.44 -2.4Z" stroke-width="1"></path><path fill="#a4deff" d="M308 208.9a53.588 53.588 0 0 0 -9.64 -33.8c-2 -2.88 -5.58 -5.84 -8.7 -4.22 -6.96 3.58 0.62 26.76 -2.62 44l20.96 -5.98Z" stroke-width="1"></path><path fill="#ffffff" d="M298.34 175.12c-4.76 -6.68 -11.36 -6.58 -11.68 2.8a76.9 76.9 0 0 0 0.54 14 10.554 10.554 0 0 1 6.936 -7.934A10.558 10.558 0 0 1 304.48 186a38.706 38.706 0 0 0 -6.14 -10.88Z" stroke-width="1"></path><path fill="#325a80" d="M298.92 174a11.2 11.2 0 0 0 -6.32 -4.5 5.42 5.42 0 0 0 -5.82 2.84 16.106 16.106 0 0 0 -1.26 7.82c0 12.76 2.54 21.04 0.5 34.54 -0.2 1.42 2 2 2.26 0.6 1.44 -7.88 0.76 -15.74 0.18 -23.62a9.368 9.368 0 0 1 6.144 -6.614 9.36 9.36 0 0 1 8.876 1.654 52.908 52.908 0 0 1 3.46 22.26 1.14 1.14 0 0 0 2.26 0A54.86 54.86 0 0 0 298.92 174Zm-10.78 12.88C288 184 288 181 288 178c0 -2 0.32 -5 2.42 -6 4.38 -2.18 9.36 6.66 11.5 11.06a11.76 11.76 0 0 0 -13.78 3.86v-0.04Z" stroke-width="1"></path><path fill="#a4deff" d="M235.12 299.56c-6.98 9.72 -20.28 11.66 -30.94 17.3a8.814 8.814 0 0 0 -5.18 5.56c-0.6 3.64 3.02 6.58 6.48 8a35.986 35.986 0 0 0 21.08 0.58 106.07 106.07 0 0 0 20 -7.76l-11.44 -23.68Z" stroke-width="1"></path><path fill="#ffffff" d="M205.48 330.34a45.156 45.156 0 0 0 17.62 1.44c-7.08 -2.86 -12 -14.62 -5.04 -20.4 -6 1.18 -18 4.94 -19.06 11.04 -0.58 3.58 3 6.58 6.48 7.92Z" stroke-width="1"></path><path fill="#325a80" d="M246 322.16a104.792 104.792 0 0 1 -23.08 8.42 14 14 0 0 1 -7.02 -10 10.996 10.996 0 0 1 3.32 -8.84c6.52 -2.64 12.36 -5.58 16.98 -11.62 0.88 -1.16 -1.1 -2.26 -2 -1.14 -7.5 10.26 -21.44 11.26 -31.54 17.54a8.37 8.37 0 0 0 -4.66 6.7 8.544 8.544 0 0 0 4.4 6.78c5.74 3.64 13.52 3.78 20 2.86 8.68 -1.26 16.72 -5.06 24.62 -8.74 1.38 -0.64 0.22 -2.6 -1.02 -1.96Zm-40.58 6.84c-2.26 -1.04 -5.44 -3.12 -5.26 -6 0.18 -2.88 3.72 -4.7 6.14 -5.88 2.9 -1.44 5.9 -2.6 8.9 -3.78 -3.32 5.62 -0.5 13.68 4.64 17.7a32.906 32.906 0 0 1 -14.48 -2.04h0.06Z" stroke-width="1"></path><path fill="#ffffff" d="M236.82 248.8c21.88 -38.8 68.1 -54.4 103.18 -34.64 35.08 19.76 46 67.32 24 106.22 -22 38.9 -68.1 54.4 -103.24 34.64 -35.14 -19.76 -45.82 -67.32 -23.94 -106.22Z" stroke-width="1"></path><path fill="#325a80" d="M294 364.76a68.106 68.106 0 0 1 -33.6 -8.76c-35.62 -20 -46.6 -68.36 -24.46 -107.74 22.14 -39.38 69.14 -55.12 104.78 -35.08a70.24 70.24 0 0 1 34 46.66c11.6 51.98 -29.52 104.92 -80.72 104.92Zm-56 -115.4c-21.52 38.3 -10.94 85.26 23.6 104.68a67.964 67.964 0 0 0 27.356 8.286 67.97 67.97 0 0 0 28.344 -3.686c39.8 -13.36 64.52 -57.34 55.26 -98.3a67.982 67.982 0 0 0 -32.84 -45.2c-34.76 -19.42 -80.38 -4.08 -101.92 34.22h0.2Z" stroke-width="1"></path><path fill="#f1f9ff" d="M388.9 280.98c-0.62 -5.58 -7.14 -10.3 -12 -8 7.42 -5.08 7.86 -18 0.34 -23.3 -7.88 -5.5 -20.74 0.18 -22 9.72 -0.64 -6.56 -9.46 -9.14 -15.5 -6.76a19.382 19.382 0 0 0 -12 19.7 13.162 13.162 0 0 0 -12.9 21.66 17.292 17.292 0 0 0 -14.48 10 12 12 0 0 0 6.2 15.14c-4 -1.78 -10.26 9.3 -10.98 11.74 -2 6.48 6 5.3 8.88 3.54 -4.4 2.68 -6.72 8.94 -4 13.3 2.56 4 9.5 4 11.8 0.2l-3.5 7.88a6.008 6.008 0 0 0 -0.6 5.02 5.34 5.34 0 0 0 4.52 2.14c3.808 0.176 7.608 -0.5 11.124 -1.976a25.678 25.678 0 0 0 9.196 -6.564 5.18 5.18 0 0 0 3.8 6.18c3.38 0.66 6.66 -1.42 9.48 -3.4a37.098 37.098 0 0 0 10.9 -10c2.54 -4.22 3.32 -10 0.3 -14 6.78 -0.8 14 -3.58 17.22 -9.58 3.22 -6 0.22 -15.3 -6.54 -16a66.618 66.618 0 0 0 13.28 -10.62c4.32 -4.34 8.14 -9.98 7.46 -16.02Z" stroke-width="1"></path><path fill="#325a80" d="M389.84 280.1a11.33 11.33 0 0 0 -9.58 -8.88 16.908 16.908 0 0 0 2 -17.38c-5.22 -11.16 -22.3 -9.26 -27.1 1.8a12.552 12.552 0 0 0 -11.08 -5.06 19.796 19.796 0 0 0 -17.52 20.4 14.272 14.272 0 0 0 -14.336 6.606 14.268 14.268 0 0 0 0.536 15.774c-6 1.26 -11.64 5 -13.66 10.92a13.194 13.194 0 0 0 4.34 14.14 23.568 23.568 0 0 0 -7.08 8.24 12.84 12.84 0 0 0 -2.24 5.9 4.154 4.154 0 0 0 3.76 4.22c0.824 0.09 1.656 0.09 2.48 0 -2.7 4 -3.42 9.46 0.4 12.9a9.036 9.036 0 0 0 8.76 1.6c-2 4.36 -3.88 7.62 -2.12 10.32a6.524 6.524 0 0 0 5.2 2.24 25.132 25.132 0 0 0 19.28 -6.74 7.186 7.186 0 0 0 7.076 4.764 7.164 7.164 0 0 0 2.924 -0.764 46.206 46.206 0 0 0 10.52 -6.96 22.594 22.594 0 0 0 7.22 -9.3 12.86 12.86 0 0 0 -0.3 -10.72c7.18 -1.26 15.26 -4.78 17.38 -12.28 1.58 -5.48 -0.66 -12.24 -5.84 -14.6a55.206 55.206 0 0 0 16.68 -16.24 16.216 16.216 0 0 0 2.3 -10.9Zm-2.86 6.74a30.254 30.254 0 0 1 -7.74 10.8 77 77 0 0 1 -11.64 9.02 1.12 1.12 0 0 0 0.56 2c5.82 0.8 7.9 8.32 6.16 13.14 -2.4 6.66 -10.46 9.46 -16.84 10.26a1.098 1.098 0 0 0 -0.96 1.68 10.912 10.912 0 0 1 0.7 10.96 24.004 24.004 0 0 1 -8 9.02c-1.62 1.2 -3.28 2.4 -5 3.5a12.004 12.004 0 0 1 -6 2.26 4.006 4.006 0 0 1 -4 -4.74c0.36 -0.42 0.7 -0.84 1.02 -1.28 0.68 -0.9 -0.62 -2.26 -1.52 -1.52a4.234 4.234 0 0 0 -1.08 1.16A25.04 25.04 0 0 1 314 362c-1.54 0 -4.12 0 -4.94 -1.62 -0.82 -1.62 0.98 -4.76 1.72 -6.4 0.1 -0.26 2.72 -6.12 3.02 -6.94 0.38 -1.18 -1.54 -2 -2 -0.86l-0.72 1.62c-2 2.66 -6.66 2.54 -8.96 0.32 -3.82 -3.7 -0.96 -10.14 2.84 -12.58a1.15 1.15 0 1 0 -1.14 -2 8.48 8.48 0 0 1 -6 1.1c-2.26 -0.54 -1.58 -2.9 -0.84 -4.5a33.534 33.534 0 0 1 4.12 -6.6c1.02 -1.24 3.12 -4 5.04 -3.24 1.16 0.44 2 -1.54 0.84 -2a11.024 11.024 0 0 1 -5.86 -13.32c1.88 -5.7 8 -9.02 13.52 -9.72a1.14 1.14 0 0 0 0.82 -2 11.996 11.996 0 0 1 -1.672 -14.412 12 12 0 0 1 13.432 -5.488 1.122 1.122 0 0 0 1.44 -1.08 18.614 18.614 0 0 1 10.22 -18.18c4.82 -2.26 14.28 -1.58 15.08 5.16 0.14 1.12 2 1.68 2.26 0.28 1.02 -6.98 8.32 -11.66 15.14 -10.96 7.32 0.76 11.06 8.2 9.86 14.96a12.174 12.174 0 0 1 -6 8.94 1.074 1.074 0 0 0 -0.334 0.288 1.092 1.092 0 0 0 -0.086 1.252 1.134 1.134 0 0 0 1.54 0.42 7.006 7.006 0 0 1 8.94 1.68 10 10 0 0 1 1.7 10.72Z" stroke-width="1"></path><path fill="#325a80" d="M279.14 252.94A17.774 17.774 0 0 0 264 278c0.58 1.34 2.52 0.18 2 -1.12a15.564 15.564 0 0 1 6.238 -19.42 15.556 15.556 0 0 1 7.002 -2.22 1.16 1.16 0 0 0 1.1 -1.2 1.16 1.16 0 0 0 -1.2 -1.1Z" stroke-width="1"></path><path fill="#ffffff" d="M351.54 224.56c4.5 0.4 7.72 -5.3 6.28 -9.58 -3.08 -9.12 -21.26 -12.72 -29.32 -3.6l23.04 13.18Z" stroke-width="1"></path><path fill="#325a80" d="M358.46 220.92a9.21 9.21 0 0 0 -0.96 -9.02c-4.1 -5.86 -12.62 -7.68 -19.32 -6.76a17.56 17.56 0 0 0 -10.46 5.36c-0.98 1.08 0.6 2.68 1.6 1.6 8.76 -9.66 27.64 -3.88 27.64 4.86 0 3.1 -2 6.58 -5.5 6.4a1.148 1.148 0 0 0 -0.99 1.13 1.144 1.144 0 0 0 0.99 1.13 7.628 7.628 0 0 0 7 -4.7Z" stroke-width="1"></path><path fill="#ffffff" d="M268.5 353.68a6.5 6.5 0 0 1 -2 9.02 10.002 10.002 0 0 1 -10 -0.4 22.32 22.32 0 0 1 -7.18 -7.66c-3.56 -5.62 -6 -13.24 -2.24 -18.72l21.42 17.76Z" stroke-width="1"></path><path fill="#325a80" d="M267.52 354.24a5.488 5.488 0 0 1 -0.754 6.908 5.48 5.48 0 0 1 -2.126 1.292c-4.16 1.5 -8.4 -0.88 -11.26 -3.88 -4.92 -5.26 -10.16 -15.06 -5.56 -22 0.8 -1.2 -1.16 -2.26 -2 -1.12 -4.52 6.76 -0.84 15.38 3.26 21.34a18.878 18.878 0 0 0 8.78 7.6 10.012 10.012 0 0 0 10.3 -1.66 7.562 7.562 0 0 0 1.18 -9.64c-0.88 -1.16 -2.82 0 -2 1.12l0.18 0.04Z" stroke-width="1"></path><path fill="#ffffff" d="M166.18 314.14a53.518 53.518 0 0 0 32.48 13.32c3.54 0.18 8 -0.78 8.7 -4.24 1.56 -7.8 -21.3 -16 -32.96 -29.3l-8.22 20.22Z" stroke-width="1"></path><path fill="#325a80" d="M165.36 314.92c10.92 9.64 25.06 14 35.36 13.64a9.6 9.6 0 0 0 6.56 -2.58 5.61 5.61 0 0 0 0.38 -6.76 24.776 24.776 0 0 0 -6.76 -6.3c-9.2 -6.86 -15.78 -9.48 -25.6 -19.7 -0.96 -1.1 -2.54 0.5 -1.6 1.58 7.86 9.02 18.66 14.18 27.88 21.46 2 1.52 5.26 3.84 4.82 6.76 -0.36 2.24 -3.16 3.1 -5.12 3.32 -8.92 0.64 -23.46 -3.5 -34.2 -12.98 -1.08 -0.96 -2.68 0.64 -1.6 1.58l-0.12 -0.02Z" stroke-width="1"></path><path fill="#ffffff" d="M119.44 211.3c-5.48 -10.66 -1.08 -23.46 -1.24 -35.44a8.74 8.74 0 0 0 -2.56 -7.14c-2.96 -2.24 -7.24 -0.34 -10 2.26a36 36 0 0 0 -10.18 18.46 109.754 109.754 0 0 0 -2.26 21.24l26.24 0.62Z" stroke-width="1"></path><path fill="#325a80" d="M120.32 210.72c-4.6 -9.18 -1.88 -20.7 -1.3 -30.5a22.92 22.92 0 0 0 -0.64 -9.18 6.38 6.38 0 0 0 -5.86 -4.5 11.6 11.6 0 0 0 -7.56 3.18 34.4 34.4 0 0 0 -10 16.16A94.662 94.662 0 0 0 92 210.5a1.142 1.142 0 0 0 2.26 0c0.48 -12.7 1.08 -27.04 10.14 -37a13.26 13.26 0 0 1 6.94 -4.5c3.22 -0.64 5.04 1.74 5.48 4.64 1.2 12 -4.64 26 1.52 38.26 0.66 1.28 2.6 0.16 2 -1.16l-0.02 -0.02Z" stroke-width="1"></path><path fill="#a4deff" d="M173.8 294.42c7.84 -13.74 12 -30 9.62 -45.52 -2.38 -15.52 -12.16 -30.54 -26.7 -36.9 -13.08 -5.78 -28.16 -4.32 -42.16 -1.5l59.24 83.92Z" stroke-width="1"></path><path fill="#325a80" d="M174.76 294.86c14.3 -25.12 15.14 -55.22 -4.92 -75.26 -15.22 -14.84 -34.86 -14.42 -55.6 -10.24 -1.44 0.26 -0.84 2.44 0.58 2.24 17.48 -3.48 37.14 -4.5 51.46 7.88 20.48 17.8 21.24 49.04 6.52 74.28a1.158 1.158 0 0 0 2 1.16l-0.04 -0.06Z" stroke-width="1"></path><path fill="#ffffff" d="M141.5 143.22a53.4 53.4 0 0 0 -29 19.8c-2 2.96 -3.78 7.12 -1.26 9.72 5.6 5.4 25.32 -9.08 42.58 -11.42l-12.32 -18.1Z" stroke-width="1"></path><path fill="#325a80" d="M141.2 142.14a54 54 0 0 0 -30 20.64 11.2 11.2 0 0 0 -2.38 7.38 5.4 5.4 0 0 0 4.8 4.82 19.26 19.26 0 0 0 8.72 -1.7c11.12 -3.88 17.02 -8.2 31.72 -10.96 1.42 -0.2 0.82 -2.24 -0.6 -2.24 -12.22 1.72 -22.88 8.26 -34.52 11.84 -2.26 0.7 -6 1.78 -7.52 -0.8 -1.24 -2.26 0.3 -5.1 1.52 -6.92a52.4 52.4 0 0 1 28.8 -19.86 1.16 1.16 0 0 0 0.82 -1.42 1.2 1.2 0 0 0 -1.36 -0.92v0.14Z" stroke-width="1"></path><path fill="#ffffff" d="M253.14 160.74c11.88 1.34 20.28 12 30.26 18.5a8.58 8.58 0 0 0 7.36 1.78c3.5 -1.24 4.28 -5.86 3.72 -9.5a36.002 36.002 0 0 0 -9.8 -18.68 107.048 107.048 0 0 0 -16.52 -13.52l-15.02 21.42Z" stroke-width="1"></path><path fill="#325a80" d="M253.14 161.88c9.48 1.1 16.86 8.68 24.3 14.46a36.248 36.248 0 0 0 8.14 5.4 6.92 6.92 0 0 0 8 -1.16 10.5 10.5 0 0 0 2.24 -7.56c-1.72 -16 -14 -25.32 -27.04 -34.56 -1.16 -0.86 -2.24 1.1 -1.12 2 10.78 7.54 23.08 16.56 25.62 30.48a10.252 10.252 0 0 1 -0.96 7.6c-2.12 3 -5.84 1.36 -8.32 -0.2 -11.02 -6.98 -16.5 -16.24 -30.82 -18.66 -1.5 -0.22 -1.46 2.02 -0.04 2.2Z" stroke-width="1"></path><path fill="#ffffff" d="M208 38.14c44.62 0 80.8 32.7 80.8 73.02 0 40.32 -36.18 73 -80.8 73s-80.8 -32.68 -80.8 -73S163.42 38.14 208 38.14Z" stroke-width="1"></path><path fill="#325a80" d="M208 185.28c-45.18 0 -82 -33.26 -82 -74.12 0 -40.86 36.76 -74.14 82 -74.14s82 33.26 82 74.14 -36.78 74.12 -82 74.12Zm0 -146c-44 0 -79.68 32.24 -79.68 71.88 0 39.64 35.78 71.88 79.68 71.88 43.9 0 79.68 -32.26 79.68 -71.88S252 39.28 208 39.28Z" stroke-width="1"></path><path fill="#a4deff" d="M263.4 46.76c4.44 5.46 7.38 12 11.78 17.38 4.4 5.38 10.76 10 17.76 9.76 -8.26 8.32 -20.66 11.58 -32.32 10.7 -11.66 -0.88 -22.8 -5.5 -33.02 -11.02 -6.76 -3.66 -13.36 -8 -17.6 -14.36a56.584 56.584 0 0 1 -90.14 16.4c15.58 -2.34 24 -19.54 33.42 -29.28a58.14 58.14 0 0 1 39.12 -17.5c6.92 -0.26 10.8 2 15.48 6.6 1.04 -5.5 7.6 -8 13.2 -8.2a53.724 53.724 0 0 1 42.32 19.52Z" stroke-width="1"></path><path fill="#325a80" d="M292.96 72.8c-6.6 0.18 -12.28 -3.9 -16.4 -8.74 -4.66 -5.5 -7.74 -12.14 -12.14 -17.84 -7.54 -9.72 -20 -17.42 -35.74 -19.82 -7.8 -1.18 -18.16 -0.34 -21.4 6.84a19.308 19.308 0 0 0 -14.52 -5.64 58.94 58.94 0 0 0 -38.24 15.78C143.18 54 135.8 71.8 119.48 74.44a1.16 1.16 0 0 0 -0.5 2 57.34 57.34 0 0 0 39.54 16A58.32 58.32 0 0 0 210 61.24a45.372 45.372 0 0 0 12.36 10.56c16.68 10 35.5 17.52 54.26 12.5a36.964 36.964 0 0 0 17.06 -9.56 1.16 1.16 0 0 0 -0.72 -1.94Zm-31.46 10.74c-12.68 -0.72 -24.66 -6.28 -35.56 -12.28a46.232 46.232 0 0 1 -15 -12.72 1.136 1.136 0 0 0 -2 0 55.498 55.498 0 0 1 -86.74 17.64C136 72.8 143.34 59.14 152 49.26a59.12 59.12 0 0 1 36.28 -19.1c3.508 -0.54 7.086 -0.4 10.54 0.42a20.858 20.858 0 0 1 8.24 5.54 1.14 1.14 0 0 0 1.88 -0.5c2.92 -13.52 38.28 -8 53.48 11.72 4.7 6 8 13.2 13.08 18.94a24.738 24.738 0 0 0 14.66 8.62 40.98 40.98 0 0 1 -28.66 8.64Z" stroke-width="1"></path><path fill="#325a80" d="M194.62 137.22a17.824 17.824 0 0 0 22.484 6.446 17.82 17.82 0 0 0 6.576 -5.266c0.86 -1.14 -0.72 -2.74 -1.6 -1.58a15.56 15.56 0 0 1 -25.54 -0.72c-0.78 -1.22 -2.72 -0.1 -1.92 1.12Z" stroke-width="1"></path><path fill="#325a80" d="M35.6 198.44c0.16 -45.1 27.68 -85.9 65.38 -104.58 1.32 -0.64 0.16 -2.58 -1.14 -2a121.58 121.58 0 0 0 -66.5 106.58 1.14 1.14 0 0 0 1.12 1.14 1.16 1.16 0 0 0 1.14 -1.14Z" stroke-width="1"></path><path fill="#325a80" d="M57.28 157.32a78.88 78.88 0 0 1 42 -45.88c1.34 -0.58 0.18 -2.52 -1.12 -2a80.76 80.76 0 0 0 -43.06 47.38c-0.46 1.38 1.7 2 2.26 0.62l-0.08 -0.12Z" stroke-width="1"></path><path fill="#325a80" d="M319.86 143.56a95.34 95.34 0 0 1 14.6 43.86c0.1 1.44 2.36 1.48 2.24 0a95.996 95.996 0 0 0 -16.3 -47.06 26.232 26.232 0 0 0 -9.42 -8.64c-1.32 -0.62 -2.46 1.32 -1.16 2a26.616 26.616 0 0 1 10.04 9.84Z" stroke-width="1"></path><path fill="#325a80" d="M314.52 116.88a103.296 103.296 0 0 1 34.68 80.26 1.12 1.12 0 1 0 2.24 0 105.43 105.43 0 0 0 -35.32 -81.86c-1.1 -0.96 -2.7 0.72 -1.6 1.6Z" stroke-width="1"></path><path fill="#325a80" d="M167.82 355.26a120.12 120.12 0 0 0 60.84 0.4 1.172 1.172 0 0 0 0.83 -1.43 1.158 1.158 0 0 0 -0.544 -0.71 1.164 1.164 0 0 0 -0.886 -0.12 115.058 115.058 0 0 1 -59.74 -0.42 1.162 1.162 0 0 0 -1.208 0.472 1.17 1.17 0 0 0 0.708 1.808Z" stroke-width="1"></path><path fill="#325a80" d="M158.76 366.92a97.18 97.18 0 0 0 64.9 2.88 1.164 1.164 0 1 0 -0.58 -2.26 94.116 94.116 0 0 1 -63.74 -2.94c-1.32 -0.54 -2 1.62 -0.58 2.26v0.06Z" stroke-width="1"></path><path fill="#f1f9ff" d="M26.1 318.66c-17.48 10.24 -21.34 39.1 -1.82 48.5 8.38 3.76 18.16 1.34 26.88 -1.58 4.12 -1.4 9.02 -2.74 12.42 0 3.06 -4.8 0 -11.28 -4 -15.28s-9 -7.68 -10.58 -13.16c-1.08 -3.72 -0.36 -7.72 -0.88 -11.58 -1.5 -11 -13.34 -11.56 -22.02 -6.9Z" stroke-width="1"></path><path fill="#325a80" d="M57.38 346.62c-2.88 -2.72 -6 -5.64 -7.3 -9.58 -1.36 -4.36 0 -9 -1.3 -13.52 -3.38 -11.48 -19.36 -10.82 -28.48 -2a34.282 34.282 0 0 0 -10 20.56c-2 16.1 10.18 30.16 26.58 28a62.422 62.422 0 0 0 13.68 -3.1c3.68 -1.22 8.78 -3.3 12.26 -0.6a1.116 1.116 0 0 0 1.76 -0.22c4.3 -7.26 -2.18 -14.78 -7.2 -19.54Zm-12.52 19.64c-7.42 2 -15.78 2.84 -22.54 -1.5 -12.82 -8.62 -12.5 -26 -3.44 -38.32 10.22 -14 28 -10.94 28.28 2.64a33.27 33.27 0 0 0 0.56 7.84c2 7.16 7.86 10.18 12.14 15.38 2.6 3.16 4.84 7.66 3.24 11.62 -5.58 -3.06 -12.7 0.92 -18.24 2.34Z" stroke-width="1"></path><path fill="#ffffff" d="M58.26 208.8C92 186.6 139.12 198.8 163.7 236s17.2 85.44 -16.46 107.66 -80.86 10 -105.44 -27.26c-24.58 -37.26 -17.2 -85.4 16.46 -107.6Z" stroke-width="1"></path><path fill="#325a80" d="M40.86 317.08c-24.86 -37.72 -17.36 -86.7 16.78 -109.22 34.14 -22.52 82.12 -10.14 107 27.58 24.88 37.72 17.34 86.7 -16.78 109.22 -34.78 22.92 -82.6 9.34 -107 -27.58Zm18 -107.34c-33.1 21.84 -40.32 69.42 -16.14 106s70.8 48.76 103.88 26.94c33.08 -21.82 40.32 -69.42 16.14 -106S92 188 58.88 209.74h-0.02Z" stroke-width="1"></path><path fill="#f1f9ff" d="M48.14 215.42c9.02 -7.66 17.86 -15.78 30.46 -15.78a18.39 18.39 0 0 0 -10 10.86c-3.8 11.08 6.76 20.94 9.88 31.3 4 13.32 3.4 25.88 2.4 39.48 34.96 -0.36 39.2 4 71.5 19.28a32.97 32.97 0 0 0 13.04 4 12.25 12.25 0 0 0 11.54 -6c-2.26 4.52 -1.78 11.48 -3.7 16.44a41.996 41.996 0 0 1 -9.4 15C136.84 357.04 102 363.3 72.12 352.2c-55.08 -21.52 -69.16 -97.92 -23.98 -136.78Z" stroke-width="1"></path><path fill="#325a80" d="M175.86 298.16c-1.4 3.72 -7.52 6.78 -14.72 4.76 -5.7 -1.58 -8.92 -3.8 -19.04 -8.48C120.86 284 110 279.64 82 280.2c0.9 -12.42 1.54 -25.02 -2 -37.16 -3.74 -12.68 -11.68 -19.18 -11.02 -28.54a16.89 16.89 0 0 1 10.34 -14c1.06 -0.46 0.48 -2.12 -0.56 -2 -12.9 0.12 -22.8 8.68 -32 16.76 -37.76 33.3 -34.38 94.52 4.32 125.84 27.86 22.34 66.18 22.38 95.4 4.18 6.9 -4.28 16 -11.22 21.12 -17.6a42.156 42.156 0 0 0 8.7 -22.68c0.226 -1.976 0.738 -3.91 1.52 -5.74 0.58 -1.26 -1.2 -2.52 -1.96 -1.1Zm-2.54 11.24c-2.3 13.7 -11.66 22.5 -22.38 30.26 -27.58 20.32 -65.4 23.3 -94.6 2.74 -35.2 -24.94 -44 -74.46 -22 -109.54A95.768 95.768 0 0 1 60 207.28a33.314 33.314 0 0 1 13.64 -6 18.58 18.58 0 0 0 -4.84 23.4c3.88 8.72 10.62 15.06 11.34 33.68a159.47 159.47 0 0 1 -0.52 22.92 1.14 1.14 0 0 0 1.14 1.12c34.3 -0.84 42.6 5.6 71.84 19.6 6.86 3.46 15.26 5.68 21.66 1.22a41.648 41.648 0 0 0 -0.94 6.18Z" stroke-width="1"></path><path fill="#325a80" d="M148.1 256.96A17.778 17.778 0 0 0 132.96 232a1.12 1.12 0 0 0 0 2.24 15.598 15.598 0 0 1 12.21 7.39 15.574 15.574 0 0 1 1.07 14.23c-0.58 1.32 1.36 2.48 2 1.14l-0.14 -0.04Z" stroke-width="1"></path><path fill="#f1f9ff" d="M169.38 137.5a13.7 13.7 0 1 0 0 -27.4 13.7 13.7 0 0 0 0 27.4Z" stroke-width="1"></path><path fill="#f1f9ff" d="M249.84 136.8a13.7 13.7 0 1 0 0 -27.4 13.7 13.7 0 0 0 0 27.4Z" stroke-width="1"></path><path fill="#325a80" d="M180.14 106a7.08 7.08 0 1 0 0.04 14.16 7.08 7.08 0 0 0 -0.04 -14.16Z" stroke-width="1"></path><path fill="#325a80" d="M238.64 105.86a7.096 7.096 0 0 0 -6.986 8.474 7.104 7.104 0 0 0 9.678 5.188 7.1 7.1 0 0 0 -2.692 -13.66Z" stroke-width="1"></path><path fill="#f1f9ff" d="M319.292 240.018a13.7 13.7 0 1 0 -26.804 -5.688 13.7 13.7 0 0 0 26.804 5.688Z" stroke-width="1"></path><path fill="#f1f9ff" d="M266.28 320.92a13.7 13.7 0 1 0 0 -27.4 13.7 13.7 0 0 0 0 27.4Z" stroke-width="1"></path><path fill="#325a80" d="M309.72 244.74a7.102 7.102 0 0 0 -5.04 12.12 7.086 7.086 0 0 0 7.746 1.536 7.104 7.104 0 0 0 4.374 -6.576 7.096 7.096 0 0 0 -7.08 -7.08Z" stroke-width="1"></path><path fill="#325a80" d="M280.64 295.48a7.1 7.1 0 1 0 0 14.2 7.1 7.1 0 0 0 0 -14.2Z" stroke-width="1"></path><path fill="#f1f9ff" d="M155.56 294.04a13.7 13.7 0 1 0 0 -27.4 13.7 13.7 0 0 0 0 27.4Z" stroke-width="1"></path><path fill="#f1f9ff" d="M104.14 232.14a13.7 13.7 0 1 0 0 -27.4 13.7 13.7 0 0 0 0 27.4Z" stroke-width="1"></path><path fill="#325a80" d="M140.5 271.62a7.1 7.1 0 1 0 0 14.202 7.1 7.1 0 0 0 0 -14.202Z" stroke-width="1"></path><path fill="#325a80" d="M103.38 226.42a7.104 7.104 0 0 0 -6.984 8.48 7.096 7.096 0 0 0 9.69 5.176 7.106 7.106 0 0 0 4.374 -6.576 7.098 7.098 0 0 0 -7.08 -7.08Z" stroke-width="1"></path></svg>