<svg xmlns="http://www.w3.org/2000/svg" viewBox="0 0 300 300"><path fill="#77CBB9" d="M217.62 227.1c-7.08-8.5-13.5-17.53-19.19-27.02-5.68-9.47-10.66-19.33-15.66-29.18-.43-.85-.86-1.69-1.29-2.54 4.4-4.81 8.69-9.71 12.79-14.76 6.13-7.56 11.74-15.54 16.27-24.17.85-1.62-.56-3.58-2.39-3.11-14.2 3.66-28.46 7.11-42.77 10.34l-14.4-28.35-18-35.45c-.93-1.83-4.09-1.01-3.94 1.07 1.73 23.89-.53 47.58-3.85 71.18-5.08.99-10.16 1.95-15.24 2.89-9.27 1.7-18.55 3.3-27.85 4.82-1.78.29-2.07 3.1-.51 3.87 13.14 6.46 26.04 13.4 38.67 20.8-1.16 7.47-2.29 14.93-3.3 22.4-1.57 11.66-2.85 23.35-3.49 35.1-.1 1.83 2.39 2.79 3.61 1.5l36.12-38.22c9.84 6.67 19.49 13.62 28.91 20.87 4.28 3.3 8.41 6.84 12.78 10.01 4.02 2.91 8.51 4.97 13.55 4.04 1.03-.19 1.89-1.61 1.48-2.6-4.88-11.71-11.13-22.74-18.78-32.88-.36-.48-.9-.75-1.47-.85-4.59-6.39-9.44-12.59-14.54-18.59l-.17-.23c-.13-.18-.27-.33-.42-.46-.26-.3-.52-.61-.78-.91a722 722 0 004.66-4.97c4.86 9.58 9.69 19.18 15.12 28.45 6.18 10.56 13.25 20.56 21.08 29.96 1.75 2.09 4.73-.91 2.99-2.99zm-66.96-60.27c-.22.53-.43 1.07-.65 1.6-1.26-.47-2.51-.94-3.77-1.41-.81-.32-1.62-.64-2.43-.97.61-.36 1.17-.76 1.67-1.18 2.24.25 4.49.45 6.74.6-.66.15-1.26.59-1.57 1.36zm21.12 26.67c-2.86-1.96-5.77-3.85-8.73-5.64.19-.2.39-.4.58-.6 1.59 1.01 3.15 2.05 4.7 3.11 1.14 1.06 2.29 2.1 3.45 3.14zm-29.98-51.75c-.04-.48-.08-.97-.13-1.45.32.2.68.33 1.04.38.1.26.21.54.32.82-.41.09-.82.17-1.23.26zm-1.94 4.87c0-.06.01-.11.02-.17 1.01-.21 2.01-.41 3.02-.62-.73.21-1.46.43-2.19.65-.28.05-.56.1-.84.14zm1.76 4.65c-.34 0-.69 0-1.03.02l1.61-.45c.67-.08 1.33-.15 2-.23-.86.23-1.72.45-2.58.66zm10.98 24.52c-.27-.14-.54-.27-.81-.41.19-.43.38-.86.56-1.29.1.21.24.42.43.62.09.1.19.2.28.3-.15.26-.3.52-.46.78zm-4.18-3.4l-.45 1.11c-1.09-.52-2.18-1.04-3.28-1.55-1.63-.94-3.25-1.89-4.87-2.85 1.65.62 3.3 1.23 4.94 1.85 1.21.48 2.43.96 3.65 1.43zm-20.13 26.26c.16.17.35.31.56.41-.36.49-.71.98-1.06 1.48.13-.54.26-1.08.41-1.62.02-.08.05-.17.09-.26zm9.54-8.41c-.15 0-.31.01-.47.05-.07-.17-.15-.35-.22-.52.22.16.45.32.68.47zm18.77-6.14c-.06-.06-.12-.12-.17-.18 1.07.46 2.15.92 3.22 1.38-.11.11-.21.23-.32.34-.9-.52-1.81-1.03-2.72-1.54zm-1.18-13.66c-.46-.17-.93-.35-1.39-.52.25-.66.49-1.31.73-1.97.33-.94.02-1.67-.56-2.1.3 0 .61-.06.95-.22.73.03 1.45.06 2.18.08-.56 1.61-1.2 3.19-1.9 4.74zm2.05-11.77c-.24.18-.47.36-.71.53-1.27-.41-2.54-.81-3.82-1.18.81-.26 1.63-.52 2.44-.79.68.5 1.38.98 2.1 1.44zm-27.4 24.66c0 .31.07.64.21.96.3.7.59 1.4.89 2.1-.7-.6-1.41-1.19-2.11-1.79-.02-.51-.04-1.02-.08-1.54-.01-.16-.05-.32-.09-.47.4.24.79.49 1.19.73zm29.4-8.71c.35-.75.31-1.72-.24-2.42.95-2.1 1.78-4.25 2.49-6.45h.48c-.81 3.31-1.09 6.75-.8 10.18 0 .09.02.18.04.27-.65-.53-1.31-1.05-1.97-1.58zm-5.46-39.31c-.63-2.19-1.33-4.35-2.12-6.48.98 1.16 2 2.29 3.06 3.38 1.6 1.89 3.2 3.79 4.8 5.68-1.16.26-2.33.51-3.49.76-.74-1.12-1.48-2.24-2.25-3.35zm12.41 42.82c-.38.41-.77.81-1.15 1.22l-1.58-1.31c.46-.02.92-.21 1.33-.61.12-.12.24-.24.35-.36.22.22.48.38.77.48.09.19.19.39.28.58zm-9.81-25.81c-.08-.06-.16-.12-.24-.17.77-.4 1.53-.81 2.3-1.21.09.17.19.35.28.52-.78.29-1.56.58-2.34.86zm6.3-2.41c-.17-.32-.34-.63-.51-.95 1.18-.62 2.37-1.25 3.55-1.87.21.42.43.84.64 1.26a169.3 169.3 0 01-3.68 1.57zm-17.74-42.21c-.09-.7-.18-1.4-.28-2.1.83 1.64 1.67 3.29 2.5 4.93-.72-.96-1.47-1.9-2.22-2.84zm-4.65-8.62c-.04-.35-.08-.71-.11-1.06-.29-2.65-4.42-2.76-4.23 0 .14 2.17.24 4.34.28 6.5-.2.15-.37.33-.51.54-.29.07-.56.21-.78.43l-.06-.68c-.1-1.03-.73-1.67-1.48-1.92.27-6.39.34-12.79.14-19.18 2.53 4.99 5.06 9.97 7.59 14.96-.31.08-.6.23-.84.43zm-15.03 75.6c-.05.28-.1.55-.16.83l-.45-.27c.04-.29.09-.57.13-.86.16.1.32.2.47.3zm13.98 22.8c1.04-.97 2.08-1.94 3.12-2.9a57.683 57.683 0 01-4.1 5.37c.37-.8.69-1.63.98-2.46zm65.01-65.87c-1.45 2.5-2.98 4.94-4.59 7.32.47-1.51-1.17-2.74-2.56-2.48-.66-.22-1.46-.13-2.17.43-.93.75-1.84 1.51-2.75 2.29-.55.32-1.1.63-1.64.95-.38-.56-1.01-.97-1.66-1.07-.48-1.52-2.75-2.27-3.84-.51-.53.86-1.07 1.71-1.62 2.56-.24-.24-.53-.42-.86-.5-.22-1.77-3.03-2.08-3.94-.57l-1.98 3.28c-2.12 1.14-4.27 2.24-6.44 3.27l-.75-1.47 7.98-4.22c1.19-.63 1.26-1.96.69-2.9 1.16-.27 2.33-.54 3.49-.82 7.56-1.79 15.1-3.65 22.63-5.57zm-74.46 9.43c.43.3.98.46 1.52.44l-.3 2.41c-.55.11-1.1.22-1.66.33.15-1.06.29-2.12.44-3.18zm-17.57 27.03c-7.58-4.25-15.25-8.32-23.01-12.23 2.95-.49 5.9-1 8.85-1.52-.03.14-.06.28-.07.42-.41 1.04-.1 2.29 1.29 2.62-.24.8-.02 1.7.97 2.27.66.38 1.32.75 1.98 1.12.22.48.61.9 1.2 1.14 1.01.42 2.02.81 3.05 1.17 2.54 1.34 5.1 2.63 7.69 3.87 2.2 1.7 4.45 3.34 6.75 4.91-.06.37-.12.74-.17 1.11-2.83-1.65-5.67-3.28-8.52-4.88zm12.05 11.89c-.09.49-.18.98-.27 1.46-.11.59.03 1.13.31 1.58-.45.91-.88 1.84-1.28 2.77.3-2 .61-4 .92-6.01.11.06.22.13.33.19zm12.1 29.68c-6.17 6.53-12.35 13.06-18.52 19.6.22-3.07.48-6.14.78-9.2.52-.12 1-.42 1.31-.93.09-.14.16-.28.25-.42.63.25 1.39.25 1.93-.1 1.56-.99 3.05-2.1 4.45-3.29.19-.11.38-.23.56-.35.29-.08.57-.25.84-.53 7.93-5.06 14.55-11.92 19.4-19.94.69.45 1.37.91 2.06 1.37-4.36 4.6-8.71 9.19-13.06 13.79zm47.65 5.8a594.184 594.184 0 00-23.06-16.87c-.51-.36-1.03-.7-1.54-1.06 1.15-.04 2.17-.95 2.23-2 .35.21.71.42 1.06.63a197.118 197.118 0 0036.21 26.08c.83.46 1.66.31 2.27-.15 1.18 2.32 2.29 4.67 3.34 7.05-3.55-.43-6.81-2.92-9.53-5.06-3.66-2.88-7.29-5.8-10.98-8.64zm-13.35-42.09l-.51-.57c.29-.84.55-1.69.77-2.55.25-.34.5-.69.74-1.04 1.43-.67 2.81-1.4 4.17-2.19.09.18.18.36.27.53-.22.23-.43.47-.65.7-1.59 1.71-3.2 3.41-4.8 5.11z"></path><path fill="#A5A6BC" d="M99.14 64.45a73.319 73.319 0 00-11.7-6.9L71.27 46.41c-2.25-1.55-4.37 2.12-2.14 3.65 2.33 1.61 4.66 3.21 6.99 4.82-.27-.12-.54-.24-.8-.36-2-.91-4.57 1.66-2.56 3.32 3.96 3.29 7.93 6.58 11.89 9.86 2.08 1.73 5.09-1.25 2.99-2.99-.08-.07-.16-.13-.24-.2.86.34 1.75.64 2.64.89 2.48.99 4.96 1.97 7.46 2.91 2.41.91 3.43-2.57 1.63-3.87zM62.49 88.88c-13.53-3.62-27.07-7.25-40.6-10.87-2.63-.71-3.76 3.38-1.13 4.08 6.44 1.72 12.88 3.45 19.32 5.17-.03.89.43 1.76 1.51 1.96l14.22 2.69c.51.2 1.01.41 1.51.63.66.29 1.29.25 1.82 0l2.22.42c2.64.5 3.79-3.37 1.13-4.08zM63.25 191.16c-.51-.35-1.17-.47-1.89-.19.33-.81.63-1.64.9-2.48.82-2.61-3.27-3.72-4.08-1.13-.74 2.35-1.77 4.56-3.05 6.59a66 66 0 00-7.64 4.32c-.45.24-.91.48-1.36.72-.4.21-.67.49-.84.79-.64.46-1.27.93-1.9 1.41-.14.11-.29.22-.43.33-1.31 1.02-.67 2.55.49 3.21-.98 1.55.87 4.01 2.92 2.95a69.808 69.808 0 0017.65-13.01c1.09-1.11.5-3.03-.78-3.53zM72.27 236.68c-.41.25-.82.49-1.23.74.44-.48.88-.95 1.33-1.43 1.57-1.68-.49-4.73-2.56-3.32-1.78 1.21-3.58 2.4-5.39 3.58.72-.99 1.43-2 2.12-3.02 1.52-2.27-2.15-4.39-3.65-2.14-3.07 4.6-6.59 8.83-10.51 12.73-1.69 1.69.48 4.56 2.56 3.32.98-.58 1.95-1.18 2.92-1.77l-.04.04c-1.6 1.72.44 4.6 2.56 3.32l5.61-3.36c-2.52 3.15-5.3 6.09-8.35 8.8-2.04 1.81.96 4.8 2.99 2.99a74.209 74.209 0 0014.53-17.59c1.08-1.81-1.08-3.99-2.9-2.9zM260.62 229.79c-.69-.62-1.38-1.22-2.08-1.83.1-.8-.17-1.67-.9-2.2-1.27-.92-3.4-2.32-5.67-3.33-2.1-1.69-4.23-3.35-6.4-4.96-.26-.19-.52-.31-.76-.36-.71-.71-1.4-1.42-2.09-2.16-1.87-1.99-4.86 1.01-2.99 2.99 1.41 1.5 2.86 2.95 4.36 4.35-.08.07-.17.15-.24.23-2.06 2.2-.18 4.68 1.21 6.61.4.55.8 1.11 1.2 1.66-2.17-.39-3.79 2.76-1.54 3.85 2.31 1.11 4.62 2.23 6.92 3.34 1.71.82 4.25-1.02 2.9-2.9l-3.73-5.18c-.62-.86-1.24-1.73-1.86-2.59-.21-.29-.57-.99-.94-1.54.03.01.05.02.08.03 3.16 2.64 6.5 5.08 9.99 7.3 2.01 1.28 4.36-1.7 2.56-3.32zM279.69 192.27c-9.08-4.78-18.5-8.88-28.19-12.28-2.44-.86-3.41 2.55-1.63 3.87 1.11.82 2.25 1.61 3.4 2.37-.58.47-.9 1.18-.56 2.03 2.15 5.32 5.89 9.67 10.98 12.38 2.4 1.28 4.54-2.37 2.14-3.65-2.9-1.54-5.37-3.72-7.19-6.39 1.68.37 3.35.8 5 1.29 2.9 1.28 5.89 2.38 8.94 3.28.58.17 1.12.06 1.56-.22 1.3.42 2.6.82 3.91 1.2 2.27.65 3.79-2.73 1.63-3.87zM244.53 89.88c.48-1.14.08-2.72-1.32-2.92-8.36-1.19-16.72-.82-24.92 1.23-2.05.51-1.83 3.1-.39 3.91-1.99.42-3.98.85-5.97 1.27-1.67.35-2.19 3.14-.51 3.87a34.47 34.47 0 0014.42 2.8c5.2 1.54 10.9 1.16 15.99-1.07 1.65-.72 1.26-2.57.09-3.42.97-.57 1.92-1.19 2.83-1.86 1.22-.89 1.46-3.3-.24-3.8zm-17.91 5.93c-.53-.17-1.04-.38-1.55-.6 3.76-1.17 7.69-1.77 11.63-1.8a30.33 30.33 0 01-10.08 2.4zM223.32 48.33c-1.15.43-2.3.87-3.45 1.3.48-1.65-1.68-2.94-3.2-2.26a64.83 64.83 0 00-5 2.51c1.04-1.23 2.06-2.48 3.04-3.76.7-.91.13-2.38-.76-2.9-2.24-1.31-4.95-1.3-7.07.26-1.89 1.39-.53 4.36 1.3 4.03-3.33 3.89-6.98 7.5-10.89 10.81-1.58 1.34.1 4.27 2.06 3.54l1.92-.72c.67.23 1.44.16 2.11-.41.28-.24.57-.47.85-.7.67-.25 1.34-.5 2.01-.76-.19.18-.37.36-.56.53-1.75 1.61.54 4.65 2.56 3.32 5.57-3.64 11.14-7.28 16.71-10.93 1.89-1.24.73-4.76-1.63-3.87z"></path><path fill="#4e4f66" d="M224.13 126.72c1.08-1.21.48-3.85-1.5-3.61-17.72 2.1-35.52 3.99-53.27 6.13-4.07-8.88-8.15-17.77-12.23-26.64-5.52-12-11.06-23.99-16.61-35.97-.74-1.61-3.55-1.23-3.87.51-4.18 22.8-8.35 45.6-12.53 68.4-4.98.82-9.96 1.69-14.92 2.62-10.46 1.97-20.86 4.27-31.14 7.02-1.81.48-2.02 2.92-.51 3.87 13.21 8.3 26.38 16.68 39.49 25.14l-4.59 25.05-6.85 37.39c-.39 2.12 1.88 3.45 3.54 2.06a1087.3 1087.3 0 0045.18-40.12c9.77 6.47 19.5 12.98 29.21 19.54 9.82 6.64 19.6 13.32 29.36 20.05 2.25 1.55 4.37-2.12 2.14-3.65-.31-.22-.63-.43-.94-.65 1.12-.4 2.04-1.7 1.4-3.11-9.58-21.27-19.21-42.52-28.88-63.76 4.58-4.67 9.11-9.37 13.6-14.11 8.12-8.58 16.09-17.3 23.92-26.14zm-90.25-21.08c1.89-10.34 3.79-20.69 5.68-31.03 8.5 18.37 16.97 36.76 25.41 55.16-12.18 1.5-24.33 3.13-36.44 5.05l5.34-29.18zm33.01 28.3c4.9 10.7 9.79 21.41 14.67 32.12-9.07 9.21-18.31 18.25-27.71 27.13a3623.04 3623.04 0 00-32.16-21.03l6.03-32.91c13.01-2.05 26.08-3.73 39.16-5.3zm-57.18 30.49c-8.58-5.5-17.19-10.96-25.82-16.4 13.02-3.3 26.18-5.9 39.42-8.07-1.81 9.91-3.63 19.82-5.44 29.73-2.72-1.75-5.43-3.51-8.16-5.25zm23.21 48.04c-7.29 6.53-14.67 12.96-22.14 19.29 3.36-18.37 6.73-36.73 10.09-55.1 9.97 6.45 19.91 12.96 29.82 19.5-5.87 5.5-11.79 10.93-17.78 16.3zm62.6-15.71c5.33 11.76 10.64 23.52 15.94 35.29a3777.495 3777.495 0 00-53.98-36.46c8.79-8.32 17.45-16.78 25.96-25.39 4.03 8.85 8.06 17.7 12.07 26.56zm-24.23-63.34c6.36-.76 12.71-1.5 19.06-2.25 9.01-1.07 18.01-2.13 27.02-3.2-10.62 11.86-21.5 23.49-32.63 34.88-4.47-9.81-8.95-19.62-13.44-29.43zM98.16 71.41C84.27 63.23 69.77 56.15 54.8 50.16c-2.53-1.01-3.63 3.08-1.13 4.08 14.63 5.85 28.78 12.83 42.35 20.82 2.35 1.39 4.48-2.27 2.14-3.66zM61.77 90.11c-10.64-1.66-21.28-3.33-31.92-4.99-2.66-.42-3.81 3.66-1.13 4.08 10.64 1.66 21.28 3.33 31.92 4.99 2.66.42 3.81-3.66 1.13-4.08zM68.69 190.42a227.353 227.353 0 01-27.51 19.62c-2.32 1.41-.2 5.07 2.14 3.65 9.95-6.05 19.42-12.83 28.36-20.28 2.1-1.75-.91-4.73-2.99-2.99zM65.69 237.31c-4.27 5.03-8.93 9.7-13.97 13.97-2.08 1.76.93 4.75 2.99 2.99 5.03-4.27 9.7-8.93 13.97-13.97 1.75-2.07-1.23-5.07-2.99-2.99zM259.24 231.32c-4.66-3.66-9.31-7.32-13.97-10.97-2.12-1.66-5.13 1.31-2.99 2.99 4.66 3.66 9.31 7.32 13.97 10.97 2.12 1.66 5.13-1.31 2.99-2.99zM273.26 193.89c-9.3-2.71-18.59-5.42-27.89-8.14-2.62-.76-3.74 3.32-1.13 4.08 9.3 2.71 18.59 5.42 27.89 8.14 2.62.76 3.74-3.32 1.13-4.08zM247.18 83.01l-43.85 8.25c-2.67.5-1.54 4.58 1.13 4.08l43.85-8.25c2.67-.5 1.54-4.58-1.13-4.08zM220.33 45.76c-5.7 5.77-11.88 11-18.53 15.63-2.22 1.55-.11 5.22 2.14 3.65 6.94-4.84 13.43-10.27 19.38-16.29 1.92-1.94-1.07-4.93-2.99-2.99z"></path></svg>