<svg xmlns="http://www.w3.org/2000/svg" viewBox="0 0 400 400" id="Protect-Privacy-2--Streamline-Manila.svg" height="400" width="400"><desc>Protect Privacy 2 Streamline Illustration: https://streamlinehq.com</desc><g><path d="M133.76 81.38c16 -14 12.72 -49.4 -16.22 -48.92 -35.08 0.6 -37.02 36.98 -9.52 52 -21.74 5.8 -38.76 47.3 6.14 52 55.84 -8.22 56.06 -46.34 19.6 -55.08Z" fill="#3d9cfb" stroke-width="1"></path><path d="M88.64 256c8 -3.36 5.66 -10.98 -1.8 -4.36 4.32 -10.78 -4 -10 -4.88 -0.24 -4.22 -8 -11.62 -4.84 -4.22 2.26 -8.84 -2.82 -12.3 4 -1.56 4.38 -10.72 4.58 -5.28 10.2 3.04 3.56 -6.46 10 2.24 10.6 4.7 1.1 4.7 9.76 12.22 6.96 4.3 -2 9.48 2.66 12.56 -3.08 0.42 -4.7Z" fill="#001434" stroke-width="1"></path><path d="M54.24 252.68c5.68 -7.82 -0.48 -12.92 -4.66 -1.58 -1.52 -8.56 -10 -8.3 -4.9 0.62 -10 -6.94 -11.12 1.54 -1.42 4.7 -9.4 2.18 -8 10 1.3 4.66 -5.02 7.86 1.22 12.98 4.12 2.64 2.16 11.58 9.24 7.72 4.42 -2 8.74 8.82 11.42 0.52 2.26 -4.3 11.44 -1.92 10.18 -8.62 -1.12 -4.74Z" fill="#001434" stroke-width="1"></path><path d="M108.82 175.56a14 14 0 0 0 -18.28 3.56c-3.76 5.28 -3 12.98 0.46 13.16 1.32 0 2 -1.68 1.66 -2.96 -2 -7.66 6 -14 13.78 -10A8 8 0 0 1 109.72 188c-1.3 4.4 -7 6.28 -9.08 2.24 -2.34 -4.46 4.94 -2.24 5.52 -4.7 1.06 -4.56 -6.78 -3.72 -8.6 -1.2 -4.7 5.1 -0.12 12.94 6.82 12.78 10.44 -0.18 13.78 -16.22 4.44 -21.56Z" fill="#001434" stroke-width="1"></path><path d="M121.64 253.14c6.32 -8.36 1.42 -13.56 -4.58 -1.72 -1.06 -8.16 -9.46 -8.34 -4.92 0.34 -9.58 -7.06 -11.18 0.9 -1.66 4.36 -9.5 1.6 -8 8.1 1.06 4.48 -5.46 7.2 0.52 12.34 4 2.7 1.54 11.06 8.82 7.76 4.52 -1.72 8.26 8.78 11.4 1.08 2.48 -4 10.4 -1.58 9.24 -8.5 -0.9 -4.44Z" fill="#001434" stroke-width="1"></path><path d="M83.4 133.06c67.66 26.36 112 -49 85.22 -90.44C153.72 19.5 121.72 6 92.72 11.02c-59.14 10.1 -72.24 97.5 -9.32 122.04Zm-18.24 -17.46C70.6 95.4 88 86.14 105.82 85.82c20.82 -0.38 38.68 10 45.04 32.5C126 140.22 86.92 136 65.16 115.6Zm30.1 -37.22c-16.78 -9.32 -18.12 -27.38 -9.66 -38a27.24 27.24 0 0 1 41.64 -0.84c8 8.9 4.88 24 -0.24 31.44a24.6 24.6 0 0 1 -31.74 7.4Zm-48 -12.26c6.44 -41.78 40.2 -56.24 70.86 -50.4 27.74 5.3 52.9 27.6 53.68 54 0.38 13.72 -4 28.88 -17.3 44.28 -4 -11.88 -12.98 -27.24 -33.14 -31.76 24.64 -13.22 19.94 -57.5 -15.06 -56.48 -34 1 -41.02 41.34 -13.16 56.94 -15.4 3.74 -25.88 13.3 -31.76 29.06a54 54 0 0 1 -14.06 -45.64Z" fill="#001434" stroke-width="1"></path><path d="M51.26 193.12C47.14 196.4 46 192 48.88 186.58c2.48 -4.78 1.32 -8 -1.4 -9.88 -4.3 -2.92 -13.38 2.4 -9.68 6a2.28 2.28 0 0 0 3.32 -0.7c1.72 -2.66 5.3 -1.32 3.58 2.22 -4.12 7.22 -2.16 12 0.78 13.88a6.36 6.36 0 0 0 8.4 -0.9c2.12 -2.72 0.86 -6.84 -2.62 -4.08Z" fill="#001434" stroke-width="1"></path><path d="M374.28 262.3c6.64 -25.74 8.28 -52 -3.04 -68 -6 -8.78 -15.1 -13.38 -26 -14.5 -0.44 -11.1 -2 -17.84 -15.08 -19.64 -5.44 -26.84 -17.4 -43.12 -38.28 -50.68 6.16 -1.48 28.3 -0.54 25.42 -12.14 27.54 -6 8 -31.1 -17.62 -13.82 -3.28 -17.04 -17.6 -3.78 -26.42 2.74 9.48 -11.6 5.04 -26.22 -9.26 -18.86 0.7 -18.38 -21.32 -10.66 -21.38 5.26 -6.62 -3.18 -13.32 0.32 -10 18 -3.64 -4.26 -8.82 -8.56 -13.82 -8.84 -9.24 -21.84 -34 -11.48 -20.24 4.5 -1.36 3.88 -0.22 6.4 6.84 13.2 -16.82 -2.48 -12.9 7.22 -12.9 7.22 -21.44 4.38 -18.9 25.26 9.82 17.64 -8.62 9.52 -13.46 22.22 -14 37.74a16.66 16.66 0 0 0 -7.76 4.5c-46.46 -0.32 -99.18 -3.22 -134.76 0.46 -36 3.5 -30.62 43.34 1.16 44 28.7 -0.28 65.8 0.56 96.38 0.62 -6.82 6.84 -10.26 12.9 -10.76 23.36 -43.84 -0.76 -54.64 -0.34 -86.86 0.72s-34 42.8 -2.18 44.88c32 1.2 64 -0.4 96 -0.5 3.82 15.36 9.86 31.74 22.12 39.2 -2.58 27.06 -12 33.38 -3.54 38.88 -5.36 1.74 -11.26 2.88 -18.98 10.74 -7.24 7.38 -1.28 18.34 5.76 18.62 14.18 0.6 107.84 7.42 112.16 -4.5 1.62 4.2 4.3 5.24 8.26 5.18s61.24 -0.38 61.24 -0.38 37.24 -1.72 38.8 -9.3c2.18 -10.58 -5.28 -15.26 -19.74 -22 8.34 -8.9 -5.58 -14.98 -9.32 -52.94 22.74 -5.84 32.16 -18.82 37.98 -41.36Zm-330.58 13.46C18 274 19.74 241 45.86 240.5c32.14 -1.06 42.82 -1.42 86.58 -0.74a143.12 143.12 0 0 0 5.66 35.5c-31.94 0.16 -63.78 1.68 -94.4 0.5Zm204 -177.08c13.08 -1.26 19.7 2.42 25.38 6.5 -15.26 -4.46 -36.12 -0.76 -50.76 5.22 2.5 -5.36 13.28 -10.54 25.32 -11.72ZM182.8 171.4c1.14 -3.1 4.68 -4.38 8.24 -4.94a2.4 2.4 0 0 0 2 -2.34 61.78 61.78 0 0 1 5.62 -25.74 12 12 0 0 0 8.88 -6c8 4.32 19.02 -1.66 18 -10.2 4.14 4.64 11.48 2.28 13.64 -1.02a4.46 4.46 0 0 0 4.82 4.36c-2.4 9.28 5.7 17.82 17.16 11.6 14.72 2.24 15.12 -10.88 12.92 -14.78 3.04 0.92 6.98 0 7.84 -3.26 2 4 6 8.14 15.66 6a9.54 9.54 0 0 0 11.18 7.66c0 3.64 6.18 9.3 10.16 10.7 2.48 0.86 6 13.68 6.94 19.72 1.16 7.18 14 -4.82 14.58 16.42a39.4 39.4 0 0 0 -37.44 36c-10.28 -3.48 -18.3 0 -19.28 17.08 -24.24 0.34 -54.32 -2.6 -75.82 -14.18C188.5 208 176 190 182.8 171.4Zm105.2 97.44c4.5 21.62 14.46 29.52 34.68 29.84 1.34 0 2 0.98 1.4 2.16 -1.48 2.86 -21.24 1.78 -31.3 -10 -4.62 -5.4 -8.12 -15.68 -8.48 -22.28 -0.18 -1.78 2.8 -3.74 3.7 0.28Zm-36.78 -33.16q10 1.18 21.1 1.58L254 269.64s-7.72 -12.78 -7.36 -16.24c3.36 -6.24 13.5 -7.4 4.5 -17.72Zm-50 14c-3.48 0.6 -5.2 -13.52 -7.08 -22.16a2.54 2.54 0 0 1 1.32 -3.14c3.54 -1.26 4.64 4 5.46 9.56 0.54 4.06 3.64 15.1 0.2 15.66Zm-154.32 -43.5c-25.82 -0.52 -30.32 -31.54 -0.66 -34.3 34.1 -3.58 86 -0.86 131.06 -0.5 -2.7 5.38 -2.54 13.44 -0.48 20a114.3 114.3 0 0 0 -28.16 15.6c-14.66 -0.34 -85.06 -0.98 -101.76 -0.8Zm100 81.8c10.54 -13.18 64.42 -39.4 72.76 -26 2 3.22 1.84 11.34 -5.68 18.2 2.86 7.18 5.04 20.56 -0.24 27.76a45.04 45.04 0 0 1 -11.7 -10 2.1 2.1 0 0 0 -3.2 2.72 38.36 38.36 0 0 0 12 11.14 31.44 31.44 0 0 1 -15.58 8.6 69.56 69.56 0 0 1 -9.78 -10c-2 -2.34 -4.16 0.88 -2.52 3.56a44.9 44.9 0 0 0 6.18 7.56C167.42 323.6 152.44 309.6 146.8 288Zm76.56 85.34a2.18 2.18 0 0 1 -3.24 1.04c-7.06 -5.76 -16.4 -11 -44.34 -12 -3.1 0 -4 -3.6 -0.96 -3.7 27.42 -0.88 49.9 9.88 48.44 14.66Zm0.66 -113.1a9.3 9.3 0 0 0 -4.5 -4.68c-2 -10 -3.2 -16.94 -4.68 -28.14a127.56 127.56 0 0 0 16 4.76c-10.54 10.28 -1.78 12 0.66 19.24 -0.68 1.92 -5.02 6.34 -7.6 8.82Zm34 108.74c-2.56 0.4 -2.9 -9.32 -8.22 -24.56 -2.24 -6.42 -3.3 -9.04 -1 -10s3.78 4.84 7.62 19.06c3.06 11.72 4.3 15.06 1.48 15.5Zm1.58 -52c-3.8 -0.32 -23.7 0.28 -22.74 -3.82 0.28 -1.22 -0.48 -2.18 15.28 -1.04s45.14 0.6 52.62 -1.12c5.18 -1.18 7.04 2.42 4.32 3.24 -9.56 2.82 -43.34 3.16 -49.6 2.66Zm65.14 41.6c-16.96 0.68 -31.2 6.18 -42.8 11.22 -1.76 0.76 -2.64 -0.68 -2 -1.86 1.62 -2.92 11.68 -6.84 22.16 -9.74 14.76 -4 26.26 -3.26 26.88 -1.82 0.26 0.8 -0.72 1.98 -4.36 2.12Zm-35.88 -120c-2.56 -17.3 7.16 -23.04 13.82 -17.32 1.32 1.12 0.74 14.88 4 14.62a2.32 2.32 0 0 0 2 -2.82c-4.26 -21.76 3.64 -41.66 23.76 -47.48 -0.4 0.64 -5.28 23.72 -0.34 24 4 0.28 1.84 -7.7 5.68 -25.06a27.24 27.24 0 0 1 20.34 4 127.42 127.42 0 0 0 -4.72 23.58c-0.38 3.1 2.92 5.62 3.5 2.54a237.34 237.34 0 0 1 5.36 -23.26c15.76 9.72 15.36 41.3 7.68 68.82 -8.58 30.08 -73.02 33.3 -81.2 -21.66Z" fill="#001434" stroke-width="1"></path><path d="M206.82 184.26c18.86 8.86 46.94 -4.36 28 -24.76 -30.3 -25.92 -51.62 11.64 -28 24.76ZM208.98 156c4.58 -1.64 9.42 0 14.48 2.18 -6 6.9 -8.36 16.16 -9.18 23.38 -15.28 -0.52 -15.62 -21.96 -5.3 -25.56Z" fill="#001434" stroke-width="1"></path><path d="M155.22 194.14c-0.18 3.1 4.8 3.62 4.78 0.48 0 -5.06 1.8 -18.82 -3.12 -18.28 -4.24 0.44 -1.5 14.88 -1.66 17.8Z" fill="#001434" stroke-width="1"></path><path d="M267.58 158c3.86 -1.56 10.24 -6.96 13.38 -9.26 2.52 -1.86 0.36 -5.78 -2.34 -4.2a40.44 40.44 0 0 0 -13.58 10.38c-1.4 1.64 0.6 3.88 2.54 3.08Z" fill="#001434" stroke-width="1"></path><path d="M256.58 188.54c4.78 0.16 10.32 0.28 10.7 -2s-1.9 -2.54 -8 -2.76c-9.72 -0.34 -9.68 -0.48 -9.86 -2.98a58.68 58.68 0 0 1 0.78 -6.98 2.42 2.42 0 0 0 -4.78 -0.62c-1.9 10.8 -2.88 14.8 11.16 15.34Z" fill="#001434" stroke-width="1"></path><path d="M141.66 187.86c-2 0.52 -1.78 -2.34 -2.48 -4 -4.26 -17.16 -20.9 -10 -15.6 12.16a2.42 2.42 0 0 0 4.74 -0.88c-1.38 -10 -1 -17.02 3.24 -15.82s2.88 10.8 7.18 13c4.78 2.52 9.64 -6.32 2.92 -4.46Z" fill="#001434" stroke-width="1"></path><path d="M228.5 148.94c3.88 3.2 11.48 11.42 14.52 10.98 6.7 -1 -7.88 -12.54 -12 -15.08 -2.64 -1.64 -5.02 2.1 -2.52 4.1Z" fill="#001434" stroke-width="1"></path><path d="M260.54 196.44c-3.4 -2 -24.22 -3.88 -24.94 0.84s16.64 2.32 24 3.78c2.4 0.48 4.2 -2.68 0.94 -4.62Z" fill="#001434" stroke-width="1"></path><path d="M79.7 190.76c-7.2 7.52 -14.24 0.22 -11.2 -11.42 0.36 -1.28 -0.36 -2.96 -1.7 -2.96 -5.82 0 -6.84 18.76 2.34 22.18a13.04 13.04 0 0 0 14.18 -4c2.22 -2.68 -0.84 -6.72 -3.62 -3.8Z" fill="#001434" stroke-width="1"></path><path d="M270.84 161.84c-10 16.38 7.44 35.18 32.9 22.48 15.88 -8 10.96 -31.48 -3.74 -33.28 -7.84 -1.04 -25.2 4.32 -29.16 10.8Zm27.32 -6c15.14 1.32 14.96 24.44 -3.16 27.34 -0.78 -8 -3.56 -18.12 -9.18 -25.04a27.3 27.3 0 0 1 12.34 -2.4Z" fill="#001434" stroke-width="1"></path></g></svg>