<svg xmlns="http://www.w3.org/2000/svg" viewBox="0 0 300 300"><path fill="#252634" d="M284.49 215c-12.04 0-21.5-8.44-28.13-25.07-4.14-10.38-7.3-23.63-10.36-36.44-2.34-9.78-5.84-24.42-9.31-33.11-3.47 8.69-6.97 23.33-9.31 33.11-3.06 12.81-6.23 26.06-10.36 36.44-6.63 16.64-16.09 25.07-28.13 25.07s-21.5-8.44-28.12-25.07c-4.13-10.38-7.3-23.63-10.36-36.44-2.34-9.78-5.84-24.42-9.31-33.11-3.47 8.69-6.97 23.33-9.31 33.11-3.06 12.81-6.23 26.06-10.36 36.44C114.8 206.57 105.34 215 93.31 215s-21.5-8.44-28.12-25.07c-4.14-10.38-7.3-23.63-10.36-36.44-3.17-13.27-8.48-35.47-12.96-39.64.32.3 1.68 1.15 3.65 1.15V85c12.04 0 21.5 8.44 28.12 25.07 4.14 10.38 7.3 23.63 10.36 36.44 2.34 9.78 5.84 24.42 9.31 33.11 3.47-8.69 6.97-23.33 9.31-33.11 3.06-12.81 6.23-26.06 10.36-36.44C119.61 93.43 129.07 85 141.1 85s21.5 8.44 28.12 25.08c4.13 10.38 7.3 23.63 10.36 36.44 2.34 9.78 5.84 24.42 9.31 33.11 3.47-8.69 6.97-23.33 9.31-33.11 3.06-12.81 6.23-26.06 10.36-36.44 6.63-16.64 16.09-25.07 28.12-25.07s21.5 8.44 28.13 25.07c4.14 10.38 7.3 23.63 10.36 36.44 3.17 13.27 8.48 35.47 12.96 39.64-.32-.3-1.68-1.15-3.65-1.15v30z"></path><path fill="#77CBB9" d="M254.49 215c-12.04 0-21.5-8.44-28.13-25.07-4.14-10.38-7.3-23.63-10.36-36.44-2.34-9.78-5.84-24.42-9.31-33.11-3.47 8.69-6.97 23.33-9.31 33.11-3.06 12.81-6.23 26.06-10.36 36.44-6.63 16.64-16.09 25.07-28.13 25.07s-21.5-8.44-28.12-25.07c-4.13-10.38-7.3-23.63-10.36-36.44-2.34-9.78-5.84-24.42-9.31-33.11-3.47 8.69-6.97 23.33-9.31 33.11-3.06 12.81-6.23 26.06-10.36 36.44C84.8 206.57 75.34 215 63.31 215s-21.5-8.44-28.12-25.07c-4.14-10.38-7.3-23.63-10.36-36.44-3.17-13.27-8.48-35.47-12.96-39.64.32.3 1.68 1.15 3.65 1.15V85c12.04 0 21.5 8.44 28.12 25.07 4.14 10.38 7.3 23.63 10.36 36.44 2.34 9.78 5.84 24.42 9.31 33.11 3.47-8.69 6.97-23.33 9.31-33.11 3.06-12.81 6.23-26.06 10.36-36.44C89.61 93.43 99.07 85 111.1 85s21.5 8.44 28.12 25.08c4.13 10.38 7.3 23.63 10.36 36.44 2.34 9.78 5.84 24.42 9.31 33.11 3.47-8.69 6.97-23.33 9.31-33.11 3.06-12.81 6.23-26.06 10.36-36.44 6.63-16.64 16.09-25.07 28.12-25.07s21.5 8.44 28.13 25.07c4.14 10.38 7.3 23.63 10.36 36.44 3.17 13.27 8.48 35.47 12.96 39.64-.32-.3-1.68-1.15-3.65-1.15v30z"></path></svg>